<?xml version="1.0" encoding="UTF-8" standalone="no"?>
<!-- Created with Inkscape (http://www.inkscape.org/) -->

<svg
   xmlns:dc="http://purl.org/dc/elements/1.1/"
   xmlns:cc="http://creativecommons.org/ns#"
   xmlns:rdf="http://www.w3.org/1999/02/22-rdf-syntax-ns#"
   xmlns:svg="http://www.w3.org/2000/svg"
   xmlns="http://www.w3.org/2000/svg"
   xmlns:sodipodi="http://sodipodi.sourceforge.net/DTD/sodipodi-0.dtd"
   xmlns:inkscape="http://www.inkscape.org/namespaces/inkscape"
   width="975"
   height="975"
   viewBox="0 0 257.96874 257.96876"
   version="1.1"
   id="svg2908"
   sodipodi:docname="Queen.svg"
   inkscape:version="0.92.4 (5da689c313, 2019-01-14)">
  <defs
     id="defs2902" />
  <sodipodi:namedview
     id="base"
     pagecolor="#ffffff"
     bordercolor="#666666"
     borderopacity="1.0"
     inkscape:pageopacity="0.0"
     inkscape:pageshadow="2"
     inkscape:zoom="0.36508865"
     inkscape:cx="513.80019"
     inkscape:cy="480.75266"
     inkscape:document-units="px"
     inkscape:current-layer="layer1"
     showgrid="false"
     inkscape:window-width="1920"
     inkscape:window-height="1017"
     inkscape:window-x="1912"
     inkscape:window-y="-8"
     inkscape:window-maximized="1"
     units="px" />
  <metadata
     id="metadata2905">
    <rdf:RDF>
      <cc:Work
         rdf:about="">
        <dc:format>image/svg+xml</dc:format>
        <dc:type
           rdf:resource="http://purl.org/dc/dcmitype/StillImage" />
        <dc:title></dc:title>
      </cc:Work>
    </rdf:RDF>
  </metadata>
  <g
     inkscape:label="Layer 1"
     inkscape:groupmode="layer"
     id="layer1"
     transform="translate(0,-39.031233)">
    <g
       transform="matrix(0.26458333,0,0,0.26458333,-71.964223,24.053476)"
       id="g2174">
      <polygon
         style="fill:#c68b8b"
         points="756.41,1018.605 701.957,983.651 805.007,982.595 "
         id="polygon1694" />
      <polygon
         style="fill:#c28787"
         points="709.334,919.544 795.784,916.485 799.776,961.945 "
         id="polygon1696" />
      <polygon
         style="fill:#bd8484"
         points="644.319,1025.713 701.957,983.651 756.41,1018.605 "
         id="polygon1698" />
      <polygon
         style="fill:#ba8282"
         points="709.334,919.544 799.776,961.945 705.344,961.197 "
         id="polygon1700" />
      <polygon
         style="fill:#7e5858"
         points="805.007,982.595 705.344,961.197 799.776,961.945 "
         id="polygon1702" />
      <polygon
         style="fill:#7d5757"
         points="705.344,961.197 805.007,982.595 701.957,983.651 "
         id="polygon1704" />
      <polygon
         style="fill:#ac7878"
         points="705.344,961.197 641.993,920.006 709.334,919.544 "
         id="polygon1706" />
      <polygon
         style="fill:#2f2121"
         points="887.352,1029.019 644.319,1025.713 756.41,1018.605 "
         id="polygon1708" />
      <polygon
         style="fill:#b57f7f"
         points="805.007,982.595 887.352,1029.019 756.41,1018.605 "
         id="polygon1710" />
      <polygon
         style="fill:#b17c7c"
         points="870.8,921.713 799.776,961.945 795.784,916.485 "
         id="polygon1712" />
      <polygon
         style="fill:#5f4242"
         points="814.202,225.117 746.25,221.539 814.225,200.809 "
         id="polygon1714" />
      <polygon
         style="fill:#845c5c"
         points="814.202,225.117 750.573,259.925 746.25,221.539 "
         id="polygon1716" />
      <polygon
         style="fill:#775353"
         points="750.573,259.925 683.086,212.173 746.25,221.539 "
         id="polygon1718" />
      <polygon
         style="fill:#a77474"
         points="594.835,977.752 701.957,983.651 644.319,1025.713 "
         id="polygon1720" />
      <polygon
         style="fill:#725050"
         points="701.957,983.651 594.835,977.752 705.344,961.197 "
         id="polygon1722" />
      <polygon
         style="fill:#463131"
         points="864.457,253.704 814.202,225.117 814.225,200.809 "
         id="polygon1724" />
      <polygon
         style="fill:#6e4d4d"
         points="799.776,961.945 913.182,981.726 805.007,982.595 "
         id="polygon1726" />
      <polygon
         style="fill:#a47373"
         points="913.182,981.726 887.352,1029.019 805.007,982.595 "
         id="polygon1728" />
      <polygon
         style="fill:#956868"
         points="870.8,921.713 872.466,963.449 799.776,961.945 "
         id="polygon1730" />
      <polygon
         style="fill:#614444"
         points="913.182,981.726 799.776,961.945 872.466,963.449 "
         id="polygon1732" />
      <polygon
         style="fill:#b17c7c"
         points="795.784,916.485 709.334,919.544 770.497,786.338 "
         id="polygon1734" />
      <polygon
         style="fill:#a47373"
         points="689.559,317.993 683.086,212.173 750.573,259.925 "
         id="polygon1736" />
      <polygon
         style="fill:#916666"
         points="644.337,258.355 683.086,212.173 689.559,317.993 "
         id="polygon1738" />
      <polygon
         style="fill:#563c3c"
         points="705.344,961.197 594.835,977.752 619.383,962.9 "
         id="polygon1740" />
      <polygon
         style="fill:#976969"
         points="705.344,961.197 619.383,962.9 641.993,920.006 "
         id="polygon1742" />
      <polygon
         style="fill:#b07b7b"
         points="722.353,786.012 770.497,786.338 709.334,919.544 "
         id="polygon1744" />
      <polygon
         style="fill:#9f6f6f"
         points="641.993,920.006 722.353,786.012 709.334,919.544 "
         id="polygon1746" />
      <polygon
         style="fill:#815a5a"
         points="814.202,225.117 864.457,253.704 826.987,305.755 "
         id="polygon1748" />
      <polygon
         style="fill:#906464"
         points="750.573,259.925 814.202,225.117 826.987,305.755 "
         id="polygon1750" />
      <polygon
         style="fill:#6e4d4d"
         points="752.117,465.846 726.003,447.086 823.042,454.489 "
         id="polygon1752" />
      <polygon
         style="fill:#cb8e8e"
         points="722.353,786.012 752.117,465.846 770.497,786.338 "
         id="polygon1754" />
      <polygon
         style="fill:#b67f7f"
         points="719.845,381.735 774.348,372.073 726.003,447.086 "
         id="polygon1756" />
      <polygon
         style="fill:#ca8d8d"
         points="689.559,317.993 774.348,372.073 719.845,381.735 "
         id="polygon1758" />
      <polygon
         style="fill:#bf8686"
         points="774.348,372.073 823.042,454.489 726.003,447.086 "
         id="polygon1760" />
      <polygon
         style="fill:#aa7777"
         points="750.573,259.925 826.987,305.755 774.348,372.073 "
         id="polygon1762" />
      <polygon
         style="fill:#a77575"
         points="774.348,372.073 689.559,317.993 750.573,259.925 "
         id="polygon1764" />
      <polygon
         style="fill:#262626"
         points="668.687,223.317 746.25,221.539 683.086,212.173 "
         id="polygon1766" />
      <polygon
         style="fill:#171010"
         points="644.337,258.355 668.687,223.317 683.086,212.173 "
         id="polygon1768" />
      <polygon
         style="fill:#8d6363"
         points="594.835,977.752 644.319,1025.713 575.481,1015.939 "
         id="polygon1770" />
      <polygon
         style="fill:#212121"
         points="827.821,221.553 864.457,253.704 814.225,200.809 "
         id="polygon1772" />
      <polygon
         style="fill:#5c5c5c"
         points="814.225,200.809 746.25,221.539 827.821,221.553 "
         id="polygon1774" />
      <polygon
         style="fill:#453030"
         points="800.01,466.132 752.117,465.846 823.042,454.489 "
         id="polygon1776" />
      <polygon
         style="fill:#c28888"
         points="752.117,465.846 800.01,466.132 770.497,786.338 "
         id="polygon1778" />
      <polygon
         style="fill:#a47373"
         points="864.457,253.704 827.821,221.553 921.174,210.783 "
         id="polygon1780" />
      <polygon
         style="fill:#a87676"
         points="582.372,214.628 668.687,223.317 644.337,258.355 "
         id="polygon1782" />
      <polygon
         style="fill:#9b6c6c"
         points="795.784,916.485 818.748,786.855 870.8,921.713 "
         id="polygon1784" />
      <polygon
         style="fill:#9d6e6e"
         points="770.497,786.338 818.748,786.855 795.784,916.485 "
         id="polygon1786" />
      <polygon
         style="fill:#b67f7f"
         points="770.497,786.338 800.01,466.132 818.748,786.855 "
         id="polygon1788" />
      <polygon
         style="fill:#362626"
         points="827.821,221.553 746.25,221.539 770.682,213.791 "
         id="polygon1790" />
      <polygon
         style="fill:#a47272"
         points="646.073,445.329 719.845,381.735 726.003,447.086 "
         id="polygon1792" />
      <polygon
         style="fill:#5d4141"
         points="698.381,467.512 726.003,447.086 752.117,465.846 "
         id="polygon1794" />
      <polygon
         style="fill:#6d4c4c"
         points="698.381,467.512 646.073,445.329 726.003,447.086 "
         id="polygon1796" />
      <polygon
         style="fill:#c28787"
         points="698.381,467.512 752.117,465.846 722.353,786.012 "
         id="polygon1798" />
      <polygon
         style="fill:#7c5757"
         points="619.383,962.9 587.799,917.304 641.993,920.006 "
         id="polygon1800" />
      <polygon
         style="fill:#735050"
         points="641.993,920.006 587.799,917.304 671.669,786.418 "
         id="polygon1802" />
      <polygon
         style="fill:#8c6262"
         points="722.353,786.012 641.993,920.006 671.669,786.418 "
         id="polygon1804" />
      <polygon
         style="fill:#a47373"
         points="698.381,467.512 722.353,786.012 671.669,786.418 "
         id="polygon1806" />
      <polygon
         style="fill:#996b6b"
         points="774.348,372.073 826.987,305.755 822.102,378.051 "
         id="polygon1808" />
      <polygon
         style="fill:#8e6363"
         points="774.348,372.073 822.102,378.051 823.042,454.489 "
         id="polygon1810" />
      <polygon
         style="fill:#b78080"
         points="719.755,164.14 780.645,171.611 770.682,213.791 "
         id="polygon1812" />
      <polygon
         style="fill:#5b4040"
         points="644.337,258.355 689.559,317.993 629.828,284.246 "
         id="polygon1814" />
      <polygon
         style="fill:#5b4040"
         points="644.337,258.355 629.828,284.246 582.372,214.628 "
         id="polygon1816" />
      <polygon
         style="fill:#614444"
         points="870.8,921.713 818.748,786.855 925.484,922.511 "
         id="polygon1818" />
      <polygon
         style="fill:#6a4a4a"
         points="870.8,921.713 925.484,922.511 872.466,963.449 "
         id="polygon1820" />
      <polygon
         style="fill:#bb8383"
         points="691.882,214.177 719.755,164.14 770.682,213.791 "
         id="polygon1822" />
      <polygon
         style="fill:#261b1b"
         points="691.882,214.177 770.682,213.791 746.25,221.539 "
         id="polygon1824" />
      <polygon
         style="fill:#7c5757"
         points="689.559,317.993 719.845,381.735 674.157,378.661 "
         id="polygon1826" />
      <polygon
         style="fill:#7c5757"
         points="629.828,284.246 689.559,317.993 674.157,378.661 "
         id="polygon1828" />
      <polygon
         style="fill:#775353"
         points="674.157,378.661 719.845,381.735 646.073,445.329 "
         id="polygon1830" />
      <polygon
         style="fill:#342424"
         points="907.925,961.519 913.182,981.726 872.466,963.449 "
         id="polygon1832" />
      <polygon
         style="fill:#523939"
         points="907.925,961.519 872.466,963.449 925.484,922.511 "
         id="polygon1834" />
      <polygon
         style="fill:#735050"
         points="669.994,465.272 698.381,467.512 671.669,786.418 "
         id="polygon1836" />
      <polygon
         style="fill:#533a3a"
         points="838.086,465.53 840.049,720.295 818.748,786.855 "
         id="polygon1838" />
      <polygon
         style="fill:#2c1e1e"
         points="823.042,454.489 838.086,465.53 800.01,466.132 "
         id="polygon1840" />
      <polygon
         style="fill:#755252"
         points="800.01,466.132 838.086,465.53 818.748,786.855 "
         id="polygon1842" />
      <polygon
         style="fill:#6e4d4d"
         points="840.049,720.295 856.293,808.24 818.748,786.855 "
         id="polygon1844" />
      <polygon
         style="fill:#483232"
         points="925.484,922.511 818.748,786.855 856.293,808.24 "
         id="polygon1846" />
      <polygon
         style="fill:#432f2f"
         points="864.457,253.704 921.174,210.783 895.235,261.962 "
         id="polygon1848" />
      <polygon
         style="fill:#6c4c4c"
         points="822.102,378.051 826.987,305.755 895.235,261.962 "
         id="polygon1850" />
      <polygon
         style="fill:#453030"
         points="895.235,261.962 826.987,305.755 864.457,253.704 "
         id="polygon1852" />
      <polygon
         style="fill:#6c4b4b"
         points="877.205,442.743 823.042,454.489 822.102,378.051 "
         id="polygon1854" />
      <polygon
         style="fill:#312222"
         points="877.205,442.743 838.086,465.53 823.042,454.489 "
         id="polygon1856" />
      <polygon
         style="fill:#503838"
         points="913.182,981.726 941.253,1018.684 887.352,1029.019 "
         id="polygon1858" />
      <polygon
         points="643.845,220.682 746.25,221.539 668.687,223.317 "
         id="polygon1860" />
      <polygon
         style="fill:#dd9999"
         points="643.845,220.682 668.687,223.317 582.372,214.628 "
         id="polygon1862" />
      <polygon
         style="fill:#463131"
         points="746.25,221.539 643.845,220.682 691.882,214.177 "
         id="polygon1864" />
      <polygon
         style="fill:#372626"
         points="629.828,284.246 674.157,378.661 605.819,258.565 "
         id="polygon1866" />
      <polygon
         style="fill:#1f1616"
         points="605.819,258.565 582.372,214.628 629.828,284.246 "
         id="polygon1868" />
      <polygon
         style="fill:#797979"
         points="582.372,214.628 605.819,258.565 643.845,220.682 "
         id="polygon1870" />
      <polygon
         style="fill:#171010"
         points="770.682,213.791 858.57,220.634 827.821,221.553 "
         id="polygon1872" />
      <polygon
         style="fill:#868686"
         points="895.235,261.962 921.174,210.783 858.57,220.634 "
         id="polygon1874" />
      <polygon
         style="fill:#131313"
         points="858.57,220.634 921.174,210.783 827.821,221.553 "
         id="polygon1876" />
      <polygon
         style="fill:#704e4e"
         points="754.213,137.845 780.645,171.611 719.755,164.14 "
         id="polygon1878" />
      <polygon
         style="fill:#372626"
         points="657.976,787.702 669.994,465.272 671.669,786.418 "
         id="polygon1880" />
      <polygon
         style="fill:#2e2020"
         points="587.799,917.304 657.976,787.702 671.669,786.418 "
         id="polygon1882" />
      <polygon
         style="fill:#221818"
         points="780.645,171.611 754.213,137.845 820.357,201.118 "
         id="polygon1884" />
      <polygon
         style="fill:#533a3a"
         points="820.357,201.118 858.57,220.634 770.682,213.791 "
         id="polygon1886" />
      <polygon
         style="fill:#755252"
         points="780.645,171.611 820.357,201.118 770.682,213.791 "
         id="polygon1888" />
      <polygon
         style="fill:#261b1b"
         points="877.205,442.743 822.102,378.051 834.969,381.002 "
         id="polygon1890" />
      <polygon
         style="fill:#322323"
         points="834.969,381.002 822.102,378.051 895.235,261.962 "
         id="polygon1892" />
      <polygon
         style="fill:#eeeeee"
         points="670.38,466.543 669.994,465.272 657.976,787.702 "
         id="polygon1894" />
      <polygon
         style="fill:#201616"
         points="646.073,445.329 668.684,376.828 674.157,378.661 "
         id="polygon1896" />
      <polygon
         style="fill:#241919"
         points="686.758,207.116 719.755,164.14 691.882,214.177 "
         id="polygon1898" />
      <polygon
         style="fill:#202020"
         points="754.213,137.845 719.755,164.14 686.758,207.116 "
         id="polygon1900" />
      <polygon
         style="fill:#241919"
         points="686.758,207.116 691.882,214.177 643.845,220.682 "
         id="polygon1902" />
      <polygon
         style="fill:#171010"
         points="657.976,787.702 587.799,917.304 579.676,921.32 "
         id="polygon1904" />
      <polygon
         style="fill:#201717"
         points="594.835,977.752 592.721,962.342 619.383,962.9 "
         id="polygon1906" />
      <polygon
         style="fill:#2f2121"
         points="587.799,917.304 619.383,962.9 592.721,962.342 "
         id="polygon1908" />
      <polygon
         style="fill:#1e1515"
         points="592.721,962.342 579.676,921.32 587.799,917.304 "
         id="polygon1910" />
      <polygon
         style="fill:#2d1f1f"
         points="913.182,981.726 938.484,985.378 941.253,1018.684 "
         id="polygon1912" />
      <polygon
         style="fill:#231919"
         points="938.484,985.378 913.182,981.726 907.925,961.519 "
         id="polygon1914" />
      <polygon
         style="fill:#1c1313"
         points="668.684,376.828 646.073,445.329 632.413,455.055 "
         id="polygon1916" />
      <polygon
         style="fill:#735050"
         points="698.381,467.512 669.994,465.272 632.413,455.055 "
         id="polygon1918" />
      <polygon
         points="670.38,466.543 632.413,455.055 669.994,465.272 "
         id="polygon1920" />
      <polygon
         style="fill:#261a1a"
         points="698.381,467.512 632.413,455.055 646.073,445.329 "
         id="polygon1922" />
      <polygon
         style="fill:#2d2d2d"
         points="840.049,720.295 838.086,465.53 830.256,730.066 "
         id="polygon1924" />
      <polygon
         style="fill:#2d1f1f"
         points="563.053,985.884 594.835,977.752 575.481,1015.939 "
         id="polygon1926" />
      <polygon
         style="fill:#1e1515"
         points="592.721,962.342 594.835,977.752 563.053,985.884 "
         id="polygon1928" />
      <polygon
         style="fill:#825b5b"
         points="895.235,261.962 858.57,220.634 889.761,198.731 "
         id="polygon1930" />
      <polygon
         style="fill:#2e2e2e"
         points="674.157,378.661 631.212,282.299 605.819,258.565 "
         id="polygon1932" />
      <polygon
         style="fill:#1c1313"
         points="668.684,376.828 631.212,282.299 674.157,378.661 "
         id="polygon1934" />
      <polygon
         style="fill:#3d3d3d"
         points="895.235,261.962 867.151,285.696 834.969,381.002 "
         id="polygon1936" />
      <polygon
         style="fill:#454545"
         points="818.389,465.482 830.256,730.066 838.086,465.53 "
         id="polygon1938" />
      <polygon
         points="580.633,1029.917 644.319,1025.713 887.352,1029.019 "
         id="polygon1940" />
      <polygon
         style="fill:#dd9999"
         points="575.481,1015.939 580.633,1029.917 563.053,985.884 "
         id="polygon1942" />
      <polygon
         style="fill:#1e1515"
         points="644.319,1025.713 580.633,1029.917 575.481,1015.939 "
         id="polygon1944" />
      <polygon
         style="fill:#474747"
         points="674.428,789.185 657.976,787.702 579.676,921.32 "
         id="polygon1946" />
      <polygon
         style="fill:#4e4e4e"
         points="670.38,466.543 657.976,787.702 674.428,789.185 "
         id="polygon1948" />
      <polygon
         style="fill:#727272"
         points="686.758,207.116 759.714,177.777 754.213,137.845 "
         id="polygon1950" />
      <polygon
         style="fill:#5c5c5c"
         points="754.213,137.845 759.714,177.777 820.357,201.118 "
         id="polygon1952" />
      <polygon
         style="fill:#1a1a1a"
         points="896.013,961.266 938.484,985.378 907.925,961.519 "
         id="polygon1954" />
      <polygon
         style="fill:#252525"
         points="925.484,922.511 896.013,961.266 907.925,961.519 "
         id="polygon1956" />
      <polygon
         style="fill:#313131"
         points="839.287,807.945 840.049,720.295 830.256,730.066 "
         id="polygon1958" />
      <polygon
         style="fill:#363636"
         points="856.293,808.24 840.049,720.295 839.287,807.945 "
         id="polygon1960" />
      <polygon
         style="fill:#5e5e5e"
         points="834.969,381.002 804.145,371.604 877.205,442.743 "
         id="polygon1962" />
      <polygon
         style="fill:#727272"
         points="804.145,371.604 834.969,381.002 867.151,285.696 "
         id="polygon1964" />
      <polygon
         style="fill:#848484"
         points="763.869,214.961 858.57,220.634 820.357,201.118 "
         id="polygon1966" />
      <polygon
         style="fill:#bbbbbb"
         points="759.714,177.777 686.758,207.116 763.869,214.961 "
         id="polygon1968" />
      <polygon
         style="fill:#979797"
         points="820.357,201.118 759.714,177.777 763.869,214.961 "
         id="polygon1970" />
      <polygon
         style="fill:#212121"
         points="605.819,258.565 631.212,282.299 579.047,213.102 "
         id="polygon1972" />
      <polygon
         style="fill:#825b5b"
         points="605.819,258.565 579.047,213.102 643.845,220.682 "
         id="polygon1974" />
      <polygon
         style="fill:#1c1c1c"
         points="851.727,454.88 818.389,465.482 838.086,465.53 "
         id="polygon1976" />
      <polygon
         style="fill:#515151"
         points="877.205,442.743 804.145,371.604 851.727,454.88 "
         id="polygon1978" />
      <polygon
         style="fill:#121212"
         points="877.205,442.743 851.727,454.88 838.086,465.53 "
         id="polygon1980" />
      <polygon
         style="fill:#7a7a7a"
         points="702.919,465.954 670.38,466.543 674.428,789.185 "
         id="polygon1982" />
      <polygon
         style="fill:#2d2d2d"
         points="702.919,465.954 632.413,455.055 670.38,466.543 "
         id="polygon1984" />
      <polygon
         style="fill:#787878"
         points="703.231,373.37 631.212,282.299 668.684,376.828 "
         id="polygon1986" />
      <polygon
         style="fill:#707070"
         points="632.413,455.055 703.231,373.37 668.684,376.828 "
         id="polygon1988" />
      <polygon
         style="fill:#181818"
         points="895.235,261.962 923.198,225.614 867.151,285.696 "
         id="polygon1990" />
      <polygon
         style="fill:#624444"
         points="895.235,261.962 889.761,198.731 923.198,225.614 "
         id="polygon1992" />
      <polygon
         style="fill:#ffaaaa"
         points="676.434,222.88 643.845,220.682 579.047,213.102 "
         id="polygon1994" />
      <polygon
         style="fill:#323232"
         points="676.434,222.88 686.758,207.116 643.845,220.682 "
         id="polygon1996" />
      <polygon
         style="fill:#474747"
         points="676.434,222.88 763.869,214.961 686.758,207.116 "
         id="polygon1998" />
      <polygon
         style="fill:#161616"
         points="763.869,214.961 834.007,222.397 858.57,220.634 "
         id="polygon2000" />
      <polygon
         style="fill:#8c8c8c"
         points="834.007,222.397 923.198,225.614 889.761,198.731 "
         id="polygon2002" />
      <polygon
         style="fill:#231818"
         points="858.57,220.634 834.007,222.397 889.761,198.731 "
         id="polygon2004" />
      <polygon
         style="fill:#aaaaaa"
         points="715.042,713.715 702.919,465.954 674.428,789.185 "
         id="polygon2006" />
      <polygon
         style="fill:#c6c6c6"
         points="702.919,465.954 715.042,713.715 766.153,466.668 "
         id="polygon2008" />
      <polygon
         style="fill:#3d3d3d"
         points="851.727,454.88 766.153,466.668 818.389,465.482 "
         id="polygon2010" />
      <polygon
         style="fill:#303030"
         points="906.464,917.172 856.293,808.24 839.287,807.945 "
         id="polygon2012" />
      <polygon
         style="fill:#222222"
         points="906.464,917.172 925.484,922.511 856.293,808.24 "
         id="polygon2014" />
      <polygon
         style="fill:#2b2b2b"
         points="925.484,922.511 906.464,917.172 896.013,961.266 "
         id="polygon2016" />
      <polygon
         style="fill:#cacaca"
         points="766.153,466.668 715.042,713.715 776.557,730.106 "
         id="polygon2018" />
      <polygon
         style="fill:#a2a2a2"
         points="830.256,730.066 818.389,465.482 776.557,730.106 "
         id="polygon2020" />
      <polygon
         style="fill:#afafaf"
         points="766.153,466.668 776.557,730.106 818.389,465.482 "
         id="polygon2022" />
      <polygon
         style="fill:#9d9d9d"
         points="839.287,807.945 830.256,730.066 776.557,730.106 "
         id="polygon2024" />
      <polygon
         style="fill:#8d8d8d"
         points="706.87,804.694 715.042,713.715 674.428,789.185 "
         id="polygon2026" />
      <polygon
         style="fill:#b0b0b0"
         points="766.046,810.537 839.287,807.945 776.557,730.106 "
         id="polygon2028" />
      <polygon
         style="fill:#c6c6c6"
         points="776.557,730.106 715.042,713.715 766.046,810.537 "
         id="polygon2030" />
      <polygon
         style="fill:#c6c6c6"
         points="715.042,713.715 706.87,804.694 766.046,810.537 "
         id="polygon2032" />
      <polygon
         style="fill:#646464"
         points="867.151,285.696 923.198,225.614 852.202,261.064 "
         id="polygon2034" />
      <polygon
         style="fill:#5d5d5d"
         points="852.202,261.064 804.145,371.604 867.151,285.696 "
         id="polygon2036" />
      <polygon
         style="fill:#a9a9a9"
         points="923.198,225.614 834.007,222.397 852.202,261.064 "
         id="polygon2038" />
      <polygon
         style="fill:#292929"
         points="676.434,222.88 748.359,222.608 763.869,214.961 "
         id="polygon2040" />
      <polygon
         style="fill:#323232"
         points="834.007,222.397 763.869,214.961 748.359,222.608 "
         id="polygon2042" />
      <polygon
         style="fill:#a7a7a7"
         points="804.145,371.604 754.319,378.535 790.256,436.795 "
         id="polygon2044" />
      <polygon
         style="fill:#939393"
         points="851.727,454.88 804.145,371.604 790.256,436.795 "
         id="polygon2046" />
      <polygon
         style="fill:#8f8f8f"
         points="579.047,213.102 653.527,254.32 676.434,222.88 "
         id="polygon2048" />
      <polygon
         style="fill:#6b6b6b"
         points="653.527,254.32 579.047,213.102 631.212,282.299 "
         id="polygon2050" />
      <polygon
         style="fill:#686868"
         points="653.527,254.32 631.212,282.299 703.231,373.37 "
         id="polygon2052" />
      <polygon
         style="fill:#414141"
         points="901.164,984.478 938.484,985.378 896.013,961.266 "
         id="polygon2054" />
      <polygon
         style="fill:#afafaf"
         points="754.319,378.535 703.231,373.37 717.502,453.493 "
         id="polygon2056" />
      <polygon
         style="fill:#919191"
         points="717.502,453.493 703.231,373.37 632.413,455.055 "
         id="polygon2058" />
      <polygon
         style="fill:#bebebe"
         points="790.256,436.795 754.319,378.535 717.502,453.493 "
         id="polygon2060" />
      <polygon
         style="fill:#868686"
         points="851.727,454.88 790.256,436.795 717.502,453.493 "
         id="polygon2062" />
      <polygon
         style="fill:#404040"
         points="717.502,453.493 702.919,465.954 766.153,466.668 "
         id="polygon2064" />
      <polygon
         style="fill:#838383"
         points="717.502,453.493 766.153,466.668 851.727,454.88 "
         id="polygon2066" />
      <polygon
         style="fill:#494949"
         points="717.502,453.493 632.413,455.055 702.919,465.954 "
         id="polygon2068" />
      <polygon
         style="fill:#b4b4b4"
         points="759.3,301.933 703.231,373.37 754.319,378.535 "
         id="polygon2070" />
      <polygon
         style="fill:#b4b4b4"
         points="653.527,254.32 703.231,373.37 759.3,301.933 "
         id="polygon2072" />
      <polygon
         style="fill:#aaaaaa"
         points="804.145,371.604 759.3,301.933 754.319,378.535 "
         id="polygon2074" />
      <polygon
         style="fill:#acacac"
         points="804.145,371.604 852.202,261.064 759.3,301.933 "
         id="polygon2076" />
      <polygon
         style="fill:#606060"
         points="592.721,962.342 624.002,917.419 579.676,921.32 "
         id="polygon2078" />
      <polygon
         style="fill:#535353"
         points="624.002,917.419 674.428,789.185 579.676,921.32 "
         id="polygon2080" />
      <polygon
         style="fill:#8b8b8b"
         points="674.428,789.185 624.002,917.419 706.87,804.694 "
         id="polygon2082" />
      <polygon
         style="fill:#dddddd"
         points="580.633,1029.917 887.352,1029.019 890.215,1028.364 "
         id="polygon2084" />
      <polygon
         style="fill:#4c4c4c"
         points="938.484,985.378 890.215,1028.364 941.253,1018.684 "
         id="polygon2086" />
      <polygon
         style="fill:#cccccc"
         points="890.215,1028.364 887.352,1029.019 941.253,1018.684 "
         id="polygon2088" />
      <polygon
         style="fill:#5d5d5d"
         points="938.484,985.378 901.164,984.478 890.215,1028.364 "
         id="polygon2090" />
      <polygon
         style="fill:#6c6c6c"
         points="592.721,962.342 657.156,960.857 624.002,917.419 "
         id="polygon2092" />
      <polygon
         style="fill:#484848"
         points="592.721,962.342 563.053,985.884 657.156,960.857 "
         id="polygon2094" />
      <polygon
         style="fill:#777777"
         points="896.013,961.266 906.464,917.172 835.662,961.728 "
         id="polygon2096" />
      <polygon
         style="fill:#4d4d4d"
         points="835.662,961.728 901.164,984.478 896.013,961.266 "
         id="polygon2098" />
      <polygon
         style="fill:#5d4141"
         points="748.359,222.608 676.434,222.88 694.427,198.007 "
         id="polygon2100" />
      <polygon
         style="fill:#cc9999"
         points="653.527,254.32 694.427,198.007 676.434,222.88 "
         id="polygon2102" />
      <polygon
         style="fill:#696969"
         points="580.633,1029.917 629.829,1017.256 563.053,985.884 "
         id="polygon2104" />
      <polygon
         style="fill:#5e5e5e"
         points="757.647,252.305 748.359,222.608 694.427,198.007 "
         id="polygon2106" />
      <polygon
         style="fill:#7e7e7e"
         points="629.829,1017.256 641.029,980.292 563.053,985.884 "
         id="polygon2108" />
      <polygon
         style="fill:#4c4c4c"
         points="563.053,985.884 641.029,980.292 657.156,960.857 "
         id="polygon2110" />
      <polygon
         style="fill:#747474"
         points="641.029,980.292 733.016,960.71 657.156,960.857 "
         id="polygon2112" />
      <polygon
         style="fill:#b4b4b4"
         points="835.662,961.728 817.167,919.93 733.016,960.71 "
         id="polygon2114" />
      <polygon
         style="fill:#979797"
         points="839.287,807.945 766.046,810.537 817.167,919.93 "
         id="polygon2116" />
      <polygon
         style="fill:#8d8d8d"
         points="817.167,919.93 906.464,917.172 839.287,807.945 "
         id="polygon2118" />
      <polygon
         style="fill:#9b9b9b"
         points="906.464,917.172 817.167,919.93 835.662,961.728 "
         id="polygon2120" />
      <polygon
         style="fill:#909090"
         points="820.058,211.693 759.3,301.933 852.202,261.064 "
         id="polygon2122" />
      <polygon
         style="fill:#1c1c1c"
         points="834.007,222.397 820.058,211.693 852.202,261.064 "
         id="polygon2124" />
      <polygon
         style="fill:#251a1a"
         points="834.007,222.397 748.359,222.608 820.058,211.693 "
         id="polygon2126" />
      <polygon
         style="fill:#7d7d7d"
         points="748.359,222.608 757.647,252.305 820.058,211.693 "
         id="polygon2128" />
      <polygon
         style="fill:#b4b4b4"
         points="759.3,301.933 820.058,211.693 757.647,252.305 "
         id="polygon2130" />
      <polygon
         style="fill:#767676"
         points="822.875,981.325 901.164,984.478 835.662,961.728 "
         id="polygon2132" />
      <polygon
         style="fill:#6e6e6e"
         points="822.875,981.325 835.662,961.728 733.016,960.71 "
         id="polygon2134" />
      <polygon
         style="fill:#a4a4a4"
         points="901.164,984.478 822.875,981.325 890.215,1028.364 "
         id="polygon2136" />
      <polygon
         style="fill:#b2b2b2"
         points="722.391,920.643 817.167,919.93 766.046,810.537 "
         id="polygon2138" />
      <polygon
         style="fill:#aaaaaa"
         points="766.046,810.537 706.87,804.694 722.391,920.643 "
         id="polygon2140" />
      <polygon
         style="fill:#afafaf"
         points="722.391,920.643 624.002,917.419 657.156,960.857 "
         id="polygon2142" />
      <polygon
         style="fill:#bebebe"
         points="817.167,919.93 722.391,920.643 733.016,960.71 "
         id="polygon2144" />
      <polygon
         style="fill:#acacac"
         points="733.016,960.71 722.391,920.643 657.156,960.857 "
         id="polygon2146" />
      <polygon
         style="fill:#a1a1a1"
         points="624.002,917.419 722.391,920.643 706.87,804.694 "
         id="polygon2148" />
      <polygon
         style="fill:#b2b2b2"
         points="759.3,301.933 757.647,252.305 684.15,226.612 "
         id="polygon2150" />
      <polygon
         style="fill:#2e2e2e"
         points="653.527,254.32 684.15,226.612 694.427,198.007 "
         id="polygon2152" />
      <polygon
         style="fill:#707070"
         points="684.15,226.612 653.527,254.32 759.3,301.933 "
         id="polygon2154" />
      <polygon
         style="fill:#858585"
         points="694.427,198.007 684.15,226.612 757.647,252.305 "
         id="polygon2156" />
      <polygon
         style="fill:#313131"
         points="772.223,1024.48 629.829,1017.256 580.633,1029.917 "
         id="polygon2158" />
      <polygon
         style="fill:#b2b2b2"
         points="890.215,1028.364 822.875,981.325 772.223,1024.48 "
         id="polygon2160" />
      <polygon
         style="fill:#161616"
         points="772.223,1024.48 580.633,1029.917 890.215,1028.364 "
         id="polygon2162" />
      <polygon
         style="fill:#c8c8c8"
         points="772.223,1024.48 822.875,981.325 724.896,992.917 "
         id="polygon2164" />
      <polygon
         style="fill:#a6a6a6"
         points="724.896,992.917 629.829,1017.256 772.223,1024.48 "
         id="polygon2166" />
      <polygon
         style="fill:#868686"
         points="733.016,960.71 641.029,980.292 724.896,992.917 "
         id="polygon2168" />
      <polygon
         style="fill:#8f8f8f"
         points="724.896,992.917 822.875,981.325 733.016,960.71 "
         id="polygon2170" />
      <polygon
         style="fill:#b7b7b7"
         points="724.896,992.917 641.029,980.292 629.829,1017.256 "
         id="polygon2172" />
    </g>
  </g>
</svg>
