<svg xmlns="http://www.w3.org/2000/svg" xmlns:xlink="http://www.w3.org/1999/xlink" version="1.1" id="Layer_1" x="0px" y="0px" viewBox="0 0 2674.243 1085.728" enable-background="new 0 0 2674.243 1085.728" xml:space="preserve">

<g id="sBishop">
	<polygon fill="#7F5959" points="1147.681,996.246 1264.635,1030.092 1080.382,1022.825  "/>
	<polygon fill="#C08686" points="1147.681,996.246 1274.446,987.956 1264.635,1030.092  "/>
	<polygon fill="#A07070" points="1147.681,996.246 1213.399,960.736 1274.446,987.956  "/>
	<polygon fill="#C48989" points="1130.094,962.852 1125.31,919.06 1225.248,926.335  "/>
	<polygon fill="#825B5B" points="1213.399,960.736 1147.681,996.246 1130.094,962.852  "/>
	<polygon fill="#BB8282" points="1213.399,960.736 1130.094,962.852 1225.248,926.335  "/>
	<polygon fill="#AC7878" points="1053.118,924.195 1125.31,919.06 1130.094,962.852  "/>
	<polygon fill="#AB7878" points="1147.681,996.246 1080.382,1022.825 1025.156,983.846  "/>
	<polygon fill="#8A6161" points="1225.248,926.335 1210.266,845.238 1302.064,922.102  "/>
	<polygon fill="#9E6F6F" points="1141.874,856.331 1210.266,845.238 1125.31,919.06  "/>
	<polygon fill="#A37272" points="1210.266,845.238 1225.248,926.335 1125.31,919.06  "/>
	<polygon fill="#996B6B" points="1053.118,924.195 1130.094,962.852 1049.964,961.215  "/>
	<polygon fill="#895F5F" points="1130.094,962.852 1147.681,996.246 1049.964,961.215  "/>
	<polygon fill="#785454" points="1049.964,961.215 1147.681,996.246 1025.156,983.846  "/>
	<polygon fill="#624545" points="1213.399,960.736 1301.668,962.272 1274.446,987.956  "/>
	<polygon fill="#976A6A" points="1213.399,960.736 1225.248,926.335 1301.668,962.272  "/>
	<polygon fill="#9C6D6D" points="1301.668,962.272 1225.248,926.335 1302.064,922.102  "/>
	<polygon fill="#906565" points="1335.563,1022.322 1264.635,1030.092 1274.446,987.956  "/>
	<polygon fill="#694949" points="1301.668,962.272 1338.432,984.864 1274.446,987.956  "/>
	<polygon fill="#875E5E" points="1274.446,987.956 1338.432,984.864 1335.563,1022.322  "/>
	<polygon fill="#C88C8C" points="1126.135,405.657 1153.655,332.55 1181.729,439.702  "/>
	<polygon fill="#C18787" points="1166.913,520.838 1181.729,439.702 1206.227,437.649  "/>
	<polygon fill="#CA8D8D" points="1166.913,520.838 1126.135,405.657 1181.729,439.702  "/>
	<polygon fill="#CB8E8E" points="1201.979,769.752 1137.462,780.387 1161.183,604.342  "/>
	<polygon fill="#B88181" points="1137.462,780.387 1210.266,845.238 1141.874,856.331  "/>
	<polygon fill="#BF8686" points="1201.979,769.752 1210.266,845.238 1137.462,780.387  "/>
	<polygon fill="#7A5555" points="1025.156,983.846 1080.382,1022.825 1012.164,1028.383  "/>
	<polygon fill="#1E1515" points="1264.635,1030.092 1012.164,1028.383 1080.382,1022.825  "/>
	<polygon fill="#9B6C6C" points="1141.874,856.331 1088.356,846.081 1137.462,780.387  "/>
	<polygon fill="#865E5E" points="1088.356,846.081 1125.31,919.06 1053.118,924.195  "/>
	<polygon fill="#865E5E" points="1141.874,856.331 1125.31,919.06 1088.356,846.081  "/>
	<polygon fill="#5A3F3F" points="1149.664,591.184 1213.645,604.688 1161.183,604.342  "/>
	<polygon fill="#5F4242" points="1149.664,591.184 1233.253,592.041 1213.645,604.688  "/>
	<polygon fill="#C78B8B" points="1201.979,769.752 1161.183,604.342 1213.645,604.688  "/>
	<polygon fill="#B98282" points="1149.664,591.184 1222.91,517.426 1233.253,592.041  "/>
	<polygon fill="#BF8585" points="1222.91,517.426 1166.913,520.838 1206.227,437.649  "/>
	<polygon fill="#BC8484" points="1222.91,517.426 1206.227,437.649 1222.183,387.076  "/>
	<polygon fill="#BA8282" points="1149.664,591.184 1166.913,520.838 1222.91,517.426  "/>
	<polygon fill="#AB7777" points="1126.135,405.657 1166.913,520.838 1122.656,519.274  "/>
	<polygon fill="#A27171" points="1166.913,520.838 1149.664,591.184 1122.656,519.274  "/>
	<polygon fill="#976969" points="1090.682,438.866 1126.135,405.657 1122.656,519.274  "/>
	<polygon fill="#A87676" points="1120.281,606.568 1161.183,604.342 1137.462,780.387  "/>
	<polygon fill="#4A3434" points="1149.664,591.184 1161.183,604.342 1120.281,606.568  "/>
	<polygon fill="#604343" points="1337.209,922.482 1301.668,962.272 1302.064,922.102  "/>
	<polygon fill="#916666" points="1093.019,365.024 1153.655,332.55 1126.135,405.657  "/>
	<polygon fill="#7E5858" points="1090.682,438.866 1093.019,365.024 1126.135,405.657  "/>
	<polygon fill="#8F6464" points="1081.417,591.435 1122.656,519.274 1149.664,591.184  "/>
	<polygon fill="#593E3E" points="1149.664,591.184 1120.281,606.568 1081.417,591.435  "/>
	<polygon fill="#513939" points="1302.064,922.102 1278.275,846.037 1337.209,922.482  "/>
	<polygon fill="#6E4D4D" points="1278.275,846.037 1302.064,922.102 1210.266,845.238  "/>
	<polygon fill="#926666" points="1246.749,768.103 1201.979,769.752 1213.645,604.688  "/>
	<polygon fill="#8C6262" points="1246.749,768.103 1210.266,845.238 1201.979,769.752  "/>
	<polygon fill="#8B6161" points="1278.275,846.037 1210.266,845.238 1246.749,768.103  "/>
	<polygon fill="#936666" points="1182.627,272.716 1181.729,439.702 1153.655,332.55  "/>
	<polygon fill="#5C4141" points="1008.901,922.811 1053.118,924.195 1049.964,961.215  "/>
	<polygon fill="#513838" points="1088.356,846.081 1053.118,924.195 1008.901,922.811  "/>
	<polygon fill="#765353" points="1242.239,605.62 1246.749,768.103 1213.645,604.688  "/>
	<polygon fill="#3A2828" points="1233.253,592.041 1242.239,605.62 1213.645,604.688  "/>
	<polygon fill="#8E6363" points="1278.732,415.841 1222.91,517.426 1222.183,387.076  "/>
	<polygon fill="#755252" points="1100.694,768.142 1120.281,606.568 1137.462,780.387  "/>
	<polygon fill="#765353" points="1100.694,768.142 1137.462,780.387 1088.356,846.081  "/>
	<polygon fill="#442F2F" points="993.717,987.59 1025.156,983.846 1012.164,1028.383  "/>
	<polygon fill="#835B5B" points="1261.302,336.638 1222.183,387.076 1216.701,312.192  "/>
	<polygon fill="#7A5555" points="1261.302,336.638 1278.732,415.841 1222.183,387.076  "/>
	<polygon fill="#6B4B4B" points="1276.882,582.894 1233.253,592.041 1222.91,517.426  "/>
	<polygon fill="#3B2929" points="1233.253,592.041 1276.882,582.894 1242.239,605.62  "/>
	<polygon fill="#2E2020" points="1025.515,960.049 1049.964,961.215 1025.156,983.846  "/>
	<polygon fill="#382727" points="1008.901,922.811 1049.964,961.215 1025.515,960.049  "/>
	<polygon fill="#2C1F1F" points="1025.156,983.846 993.717,987.59 1025.515,960.049  "/>
	<polygon fill="#8B6161" points="1182.627,272.716 1153.655,332.55 1145.903,268.201  "/>
	<polygon fill="#785454" points="1145.903,268.201 1153.655,332.55 1093.019,365.024  "/>
	<polygon fill="#3D2A2A" points="1081.417,591.435 1103.663,525.605 1122.656,519.274  "/>
	<polygon fill="#503838" points="1103.663,525.605 1090.682,438.866 1122.656,519.274  "/>
	<polygon fill="#3D2B2B" points="1106.703,605.166 1120.281,606.568 1100.694,768.142  "/>
	<polygon fill="#1A1212" points="1120.281,606.568 1106.703,605.166 1081.417,591.435  "/>
	<polygon fill="#402D2D" points="1222.91,517.426 1241.644,513.371 1276.882,582.894  "/>
	<polygon fill="#392727" points="1278.732,415.841 1241.644,513.371 1222.91,517.426  "/>
	<polygon fill="#281C1C" points="1093.019,365.024 1090.682,438.866 1081.45,424.398  "/>
	<polygon fill="#1D1414" points="1090.682,438.866 1103.663,525.605 1081.45,424.398  "/>
	<polygon fill="#2A1D1D" points="1325.655,960.411 1301.668,962.272 1337.209,922.482  "/>
	<polygon fill="#231818" points="1301.668,962.272 1325.655,960.411 1338.432,984.864  "/>
	<polygon fill="#181818" points="1242.239,605.62 1276.882,582.894 1233.786,607.091  "/>
	<polygon fill="#333333" points="1100.694,768.142 1110.564,761.799 1106.703,605.166  "/>
	<polygon fill="#332323" points="1335.563,1022.322 1338.432,984.864 1360.922,1003.356  "/>
	<polygon points="1325.655,960.411 1360.922,1003.356 1338.432,984.864  "/>
	<polygon fill="#272727" points="1078.031,842.928 1110.564,761.799 1100.694,768.142  "/>
	<polygon fill="#221717" points="1078.031,842.928 1100.694,768.142 1088.356,846.081  "/>
	<polygon fill="#1F1616" points="1088.356,846.081 1008.901,922.811 1078.031,842.928  "/>
	<polygon fill="#1C1414" points="1226.174,310.661 1261.302,336.638 1216.701,312.192  "/>
	<polygon fill="#6D6D6D" points="1263.554,412.658 1261.302,336.638 1226.174,310.661  "/>
	<polygon fill="#414141" points="1263.554,412.658 1278.732,415.841 1261.302,336.638  "/>
	<polygon fill="#454545" points="1278.732,415.841 1263.554,412.658 1241.644,513.371  "/>
	<polygon fill="#1C1414" points="993.717,987.59 1012.164,1028.383 1001.49,1023.145  "/>
	<polygon fill="#2C2C2C" points="1242.239,605.62 1233.786,607.091 1242.146,781.781  "/>
	<polygon fill="#1B1B1B" points="1242.146,781.781 1246.749,768.103 1242.239,605.62  "/>
	<polygon fill="#282828" points="1278.275,846.037 1246.749,768.103 1242.146,781.781  "/>
	<polygon fill="#121212" points="1100.393,355.902 1145.903,268.201 1093.019,365.024  "/>
	<polygon fill="#181818" points="1081.45,424.398 1100.393,355.902 1093.019,365.024  "/>
	<polygon fill="#878787" points="1145.903,268.201 1100.393,355.902 1179.276,290.083  "/>
	<polygon fill="#151515" points="1181.729,439.702 1182.627,272.716 1179.276,290.083  "/>
	<polygon fill="#3D3D3D" points="1145.903,268.201 1179.276,290.083 1182.627,272.716  "/>
	<polygon fill="#1F1F1F" points="1103.663,525.605 1081.417,591.435 1089.658,591.353  "/>
	<polygon fill="#171717" points="1106.703,605.166 1089.658,591.353 1081.417,591.435  "/>
	<polygon fill="#2F2F2F" points="1106.703,605.166 1130.547,605.692 1089.658,591.353  "/>
	<polygon fill="#6C6C6C" points="1110.564,761.799 1130.547,605.692 1106.703,605.166  "/>
	<polygon fill="#747474" points="1081.45,424.398 1103.663,525.605 1132.151,517.278  "/>
	<polygon fill="#5C5C5C" points="1089.658,591.353 1132.151,517.278 1103.663,525.605  "/>
	<polygon fill="#292929" points="1242.146,781.781 1266.885,852.989 1278.275,846.037  "/>
	<polygon fill="#292929" points="1266.885,852.989 1330.315,922.568 1278.275,846.037  "/>
	<polygon fill="#171717" points="1278.275,846.037 1330.315,922.568 1337.209,922.482  "/>
	<polygon fill="#1A1A1A" points="1325.655,960.411 1337.209,922.482 1330.315,922.568  "/>
	<polygon fill="#262626" points="1078.031,842.928 1008.901,922.811 1024.199,922.496  "/>
	<polygon fill="#767676" points="1263.554,412.658 1203.311,508.908 1241.644,513.371  "/>
	<polygon fill="#717171" points="1276.882,582.894 1241.644,513.371 1203.311,508.908  "/>
	<polygon fill="#6F6F6F" points="1081.45,424.398 1132.151,517.278 1113.368,438.286  "/>
	<polygon fill="#828282" points="1081.45,424.398 1113.368,438.286 1100.393,355.902  "/>
	<polygon fill="#A9A9A9" points="1184.742,604.985 1242.146,781.781 1233.786,607.091  "/>
	<polygon fill="#9A9A9A" points="1110.564,761.799 1078.031,842.928 1149.724,766.504  "/>
	<polygon fill="#9C9C9C" points="1130.547,605.692 1110.564,761.799 1149.724,766.504  "/>
	<polygon fill="#C1C1C1" points="1149.724,766.504 1184.742,604.985 1130.547,605.692  "/>
	<polygon fill="#A1A1A1" points="1202.167,778.742 1242.146,781.781 1184.742,604.985  "/>
	<polygon fill="#CBCBCB" points="1202.167,778.742 1184.742,604.985 1149.724,766.504  "/>
	<polygon fill="#232323" points="1216.251,416.961 1226.174,310.661 1216.701,312.192  "/>
	<polygon fill="#101010" points="1216.251,416.961 1222.183,387.076 1206.227,437.649  "/>
	<polygon fill="#9F9F9F" points="1216.251,416.961 1263.554,412.658 1226.174,310.661  "/>
	<polygon points="1216.251,416.961 1216.701,312.192 1222.183,387.076  "/>
	<polygon fill="#9D9D9D" points="1263.554,412.658 1216.251,416.961 1203.311,508.908  "/>
	<polygon fill="#212121" points="1025.515,960.049 993.717,987.59 1013.858,982.517  "/>
	<polygon fill="#373737" points="1001.49,1023.145 1013.858,982.517 993.717,987.59  "/>
	<polygon fill="#414141" points="1184.742,604.985 1233.786,607.091 1233.022,593.69  "/>
	<polygon fill="#656565" points="1233.022,593.69 1276.882,582.894 1203.311,508.908  "/>
	<polygon fill="#383838" points="1233.786,607.091 1276.882,582.894 1233.022,593.69  "/>
	<polygon fill="#292929" points="1045.907,962.483 1025.515,960.049 1013.858,982.517  "/>
	<polygon fill="#2A2A2A" points="1008.901,922.811 1045.907,962.483 1024.199,922.496  "/>
	<polygon fill="#343434" points="1025.515,960.049 1045.907,962.483 1008.901,922.811  "/>
	<polygon fill="#BEBEBE" points="1113.368,438.286 1132.151,517.278 1180.918,446.002  "/>
	<polygon fill="#181111" points="1216.251,416.961 1206.227,437.649 1180.918,446.002  "/>
	<polygon fill="#BBBBBB" points="1216.251,416.961 1180.918,446.002 1203.311,508.908  "/>
	<polygon fill="#DDDDDD" points="1180.918,446.002 1181.729,439.702 1179.276,290.083  "/>
	<polygon fill="#BFBFBF" points="1132.151,517.278 1203.311,508.908 1180.918,446.002  "/>
	<polygon fill="#131313" points="1206.227,437.649 1181.729,439.702 1180.918,446.002  "/>
	<polygon fill="#A0A0A0" points="1145.249,387.7 1179.276,290.083 1100.393,355.902  "/>
	<polygon fill="#B5B5B5" points="1180.918,446.002 1179.276,290.083 1145.249,387.7  "/>
	<polygon fill="#C1C1C1" points="1113.368,438.286 1180.918,446.002 1145.249,387.7  "/>
	<polygon fill="#9D9D9D" points="1113.368,438.286 1145.249,387.7 1100.393,355.902  "/>
	<polygon fill="#575757" points="1130.547,605.692 1142.936,591.411 1089.658,591.353  "/>
	<polygon fill="#4F4F4F" points="1130.547,605.692 1184.742,604.985 1142.936,591.411  "/>
	<polygon fill="#B3B3B3" points="1142.936,591.411 1203.311,508.908 1132.151,517.278  "/>
	<polygon fill="#C6C6C6" points="1233.022,593.69 1203.311,508.908 1142.936,591.411  "/>
	<polygon fill="#777777" points="1184.742,604.985 1233.022,593.69 1142.936,591.411  "/>
	<polygon fill="#989898" points="1089.658,591.353 1142.936,591.411 1132.151,517.278  "/>
	<polygon fill="#BFBFBF" points="1202.167,778.742 1149.724,766.504 1143.975,846.193  "/>
	<polygon fill="#919191" points="1078.031,842.928 1143.975,846.193 1149.724,766.504  "/>
	<polygon fill="#979797" points="1210.087,856.352 1266.885,852.989 1242.146,781.781  "/>
	<polygon fill="#959595" points="1202.167,778.742 1210.087,856.352 1242.146,781.781  "/>
	<polygon fill="#BCBCBC" points="1210.087,856.352 1202.167,778.742 1143.975,846.193  "/>
	<polygon fill="#5D5D5D" points="1037.6,1017.242 1013.858,982.517 1001.49,1023.145  "/>
	<polygon fill="#7C7C7C" points="1266.885,852.989 1210.087,856.352 1277.016,920.885  "/>
	<polygon fill="#686868" points="1330.315,922.568 1266.885,852.989 1277.016,920.885  "/>
	<polygon fill="#171717" points="1335.563,1022.322 1360.922,1003.356 1291.309,1028.792  "/>
	<polygon fill="#DD9999" points="1264.635,1030.092 1335.563,1022.322 1291.309,1028.792  "/>
	<polygon fill="#7A7A7A" points="1330.315,922.568 1277.016,920.885 1250.36,963.222  "/>
	<polygon fill="#717171" points="1250.36,963.222 1325.655,960.411 1330.315,922.568  "/>
	<polygon fill="#4F4F4F" points="1325.655,960.411 1250.36,963.222 1285.718,985.313  "/>
	<polygon fill="#7A7A7A" points="1291.309,1028.792 1360.922,1003.356 1285.718,985.313  "/>
	<polygon fill="#575757" points="1325.655,960.411 1285.718,985.313 1360.922,1003.356  "/>
	<polygon fill="#959595" points="1045.907,962.483 1136.479,961.697 1098.999,920.96  "/>
	<polygon fill="#8C8C8C" points="1024.199,922.496 1045.907,962.483 1098.999,920.96  "/>
	<polygon fill="#767676" points="1143.975,846.193 1078.031,842.928 1098.999,920.96  "/>
	<polygon fill="#717171" points="1078.031,842.928 1024.199,922.496 1098.999,920.96  "/>
	<polygon fill="#676767" points="1045.907,962.483 1013.858,982.517 1079.766,984.054  "/>
	<polygon fill="#8C8C8C" points="1013.858,982.517 1037.6,1017.242 1079.766,984.054  "/>
	<polygon fill="#5C5C5C" points="1045.907,962.483 1079.766,984.054 1136.479,961.697  "/>
	<polygon fill="#9D9D9D" points="1143.975,846.193 1206.726,922.994 1210.087,856.352  "/>
	<polygon fill="#A6A6A6" points="1143.975,846.193 1098.999,920.96 1206.726,922.994  "/>
	<polygon fill="#C7C7C7" points="1098.999,920.96 1136.479,961.697 1206.726,922.994  "/>
	<polygon fill="#B2B2B2" points="1136.479,961.697 1250.36,963.222 1206.726,922.994  "/>
	<polygon fill="#979797" points="1210.087,856.352 1206.726,922.994 1277.016,920.885  "/>
	<polygon fill="#B8B8B8" points="1206.726,922.994 1250.36,963.222 1277.016,920.885  "/>
	<polygon fill="#CC9999" points="1012.164,1028.383 1264.635,1030.092 1138.412,1029.587  "/>
	<polygon fill="#DDDDDD" points="1264.635,1030.092 1291.309,1028.792 1138.412,1029.587  "/>
	<polygon fill="#141414" points="1012.164,1028.383 1138.412,1029.587 1001.49,1023.145  "/>
	<polygon fill="#2C2C2C" points="1001.49,1023.145 1138.412,1029.587 1037.6,1017.242  "/>
	<polygon fill="#ABABAB" points="1138.412,1029.587 1079.766,984.054 1037.6,1017.242  "/>
	<polygon fill="#C3C3C3" points="1138.412,1029.587 1187.296,989.642 1079.766,984.054  "/>
	<polygon fill="#BABABA" points="1291.309,1028.792 1285.718,985.313 1187.296,989.642  "/>
	<polygon fill="#717171" points="1136.479,961.697 1187.296,989.642 1250.36,963.222  "/>
	<polygon fill="#8D8D8D" points="1250.36,963.222 1187.296,989.642 1285.718,985.313  "/>
	<polygon fill="#969696" points="1079.766,984.054 1187.296,989.642 1136.479,961.697  "/>
	<polygon fill="#A8A8A8" points="1187.296,989.642 1138.412,1029.587 1291.309,1028.792  "/>
</g>

</svg>