<svg xmlns="http://www.w3.org/2000/svg" viewBox="0 0 2674.243 1085.728"><path fill="#CB8E8E" d="M2002.911 1026.329l-4.965-38.762 124.23 7.92z"/><path fill="#C68A8A" d="M2050.39 961.82l-32.932-47.316 101.952 2.269z"/><path fill="#A17070" d="M1997.946 987.567l52.444-25.747 71.786 33.667z"/><path fill="#C98D8D" d="M2088.675 511.704l-2.929-67.012 12.644 1.83z"/><path fill="#CB8E8E" d="M2027.13 410.015l58.616 34.677 2.929 67.012z"/><path fill="#CA8D8D" d="M2085.746 444.692l-58.616-34.677 60.91-1.034z"/><path d="M2088.675 511.704l-62.859-65.951-2.554-2.959z"/><path fill="#C68B8B" d="M2027.13 410.015l61.545 101.689-65.413-68.91z"/><path fill="#CA8D8D" d="M2025.816 445.753l-35.617 66.268 6.793-65.077z"/><path fill="#C98D8D" d="M2025.816 445.753l62.859 65.951-98.476.317z"/><path fill="#382727" d="M2083.91 407.4l4.13 1.581-60.91 1.034z"/><path fill="#A77575" d="M2128.511 446.226l-39.836 65.478 9.715-65.182z"/><path fill="#2D2020" d="M2128.511 446.226l-30.121.296-12.644-1.83z"/><path fill="#3C2A2A" d="M2025.816 445.753l-28.824 1.191-15.806-2.392z"/><path fill="#9D6E6E" d="M1990.199 512.021l-9.013-67.469 15.806 2.392z"/><path fill="#AF7A7A" d="M2017.458 914.504l32.932 47.316-77.687-.078z"/><path fill="#745151" d="M1972.703 961.742l77.687.078-52.444 25.747z"/><path fill="#3C3C3C" d="M2032.744 408.55l-5.614 1.465-3.868 32.779z"/><path fill="#181010" d="M2083.91 407.4l-56.78 2.615 5.614-1.465z"/><path fill="#A97676" d="M2119.41 916.773l57.757 1.448-11.32 42.128z"/><path fill="#A97676" d="M2050.39 961.82l69.02-45.047 46.437 43.576z"/><path fill="#775353" d="M2165.847 960.349l-43.671 35.138-71.786-33.667z"/><path fill="#533A3A" d="M2088.675 511.704l-42.462 14.044-56.014-13.727z"/><path fill="#C88C8C" d="M2049.701 606.307l-3.488-80.559 49.748 2.075z"/><path fill="#473131" d="M2088.675 511.704l7.286 16.119-49.748-2.075z"/><path fill="#885F5F" d="M2165.847 960.349l42.784 23.123-86.455 12.015z"/><path fill="#996B6B" d="M2202.324 1029.452l-80.148-33.965 86.455-12.015z"/><path fill="#765252" d="M2122.176 995.487l80.148 33.965-199.413-3.123z"/><path fill="#B88080" d="M2087.367 787.19l-69.909 127.314 11.351-119.947z"/><path fill="#BA8282" d="M2087.367 787.19l32.043 129.583-101.952-2.269z"/><path fill="#CB8E8E" d="M2087.367 787.19l-37.666-180.883 46.26-78.484z"/><path fill="#CB8E8E" d="M2028.809 794.557l20.892-188.25 37.666 180.883z"/><path fill="#231818" d="M1991.921 408.16l-6.736 2.14-41.986-2.326z"/><path fill="#A97676" d="M1981.186 444.552l-37.987-36.578 41.986 2.326z"/><path fill="#A67474" d="M1981.186 444.552l9.013 67.469-47-104.047z"/><path fill="#A77474" d="M1972.703 961.742l-51.177-48.866 95.932 1.628z"/><path fill="#9A6C6C" d="M1921.526 912.876l107.283-118.319-11.351 119.947z"/><path fill="#7F5959" d="M1972.703 961.742l25.243 25.825-101.299 2.072z"/><path fill="#A47272" d="M2002.911 1026.329l-106.264-36.69 101.299-2.072z"/><path fill="#6C4C4C" d="M2113.184 408.064l17.729 28.483-2.402 9.679z"/><path fill="#684949" d="M2128.525 408.727l2.388 27.82-17.729-28.483z"/><path fill="#9E6E6E" d="M1933.471 511.551l9.728-103.577 47 104.047z"/><path fill="#835C5C" d="M2172.985 444.514l-42.072-7.967-2.388-27.82z"/><path fill="#5C4040" d="M1943.199 407.974l-9.728 103.577 1.54-65.889z"/><path fill="#B57F7F" d="M2196.894 497.535l-68.383-51.309 2.402-9.679z"/><path fill="#AD7979" d="M2128.511 446.226l68.383 51.309-108.219 14.169z"/><path fill="#825B5B" d="M2172.985 444.514l23.909 53.021-65.981-60.988z"/><path fill="#432F2F" d="M1990.199 512.021l-11.285 13.412-45.443-13.882z"/><path fill="#3F2C2C" d="M2046.213 525.748l-67.299-.315 11.285-13.412z"/><path fill="#BC8383" d="M1978.914 525.433l67.299.315 3.488 80.559z"/><path fill="#1A1212" d="M1937.495 409.814l5.227-2.659.477.819z"/><path fill="#4D3636" d="M1943.199 407.974l-8.188 37.688 2.484-35.848z"/><path d="M2159.719 407.585l-31.194 1.142-15.341-.663z"/><path fill="#7A5555" d="M2172.985 444.514l-44.46-35.787 31.194-1.142z"/><path fill="#A47272" d="M2119.41 916.773l-32.043-129.583 41.709-2.19z"/><path fill="#9D6E6E" d="M2119.41 916.773L2129.076 785l48.091 133.221z"/><path fill="#B37D7D" d="M2087.367 787.19l8.594-259.367L2129.076 785z"/><path fill="#3C3C3C" d="M2055.709 443.501l-32.447-.707 2.554 2.959z"/><path d="M2025.816 445.753l-44.63-1.201 74.523-1.051z"/><path fill="#535353" d="M2088.04 408.981l-32.331 34.52 30.037 1.191z"/><path fill="#676767" d="M2088.04 408.981l-4.13-1.581-28.201 36.101z"/><path fill="#AC7979" d="M1978.914 525.433l70.787 80.874-68.029-35.053z"/><path fill="#BD8484" d="M2028.809 794.557l-47.137-223.303 68.029 35.053z"/><path fill="#111" d="M2052.636 409.59l31.274-2.19-51.166 1.15z"/><path fill="#5F5F5F" d="M2055.709 443.501l28.201-36.101-31.274 2.19z"/><path fill="#5F5F5F" d="M2055.709 443.501l-3.073-33.911-29.374 33.204z"/><path fill="#535353" d="M2032.744 408.55l-9.482 34.244 29.374-33.204z"/><path fill="#6D6D6D" d="M1937.495 409.814l28.781-.357-23.554-2.302z"/><path fill="#171010" d="M1942.722 407.155l23.554 2.302-23.077-1.483z"/><path fill="#996B6B" d="M1972.509 799.445l56.3-4.888-107.283 118.319z"/><path fill="#AC7878" d="M1981.672 571.254l47.137 223.303-56.3 4.888z"/><path fill="#141414" d="M2159.719 407.585l-46.535.479 10.844 1.073z"/><path fill="#B6B6B6" d="M2159.719 407.585l-35.691 1.552 48.957 35.377z"/><path fill="#6D4C4C" d="M2214.955 915.204l-49.108 45.145 11.32-42.128z"/><path fill="#A07070" d="M2149.634 529.102L2129.076 785l-33.115-257.177z"/><path fill="#563C3C" d="M2196.894 497.535l-47.26 31.567-60.959-17.398z"/><path fill="#4B3434" d="M2149.634 529.102l-53.673-1.279-7.286-16.119z"/><path fill="#BCBCBC" d="M2101.47 443.363l71.515 1.151-48.957-35.377z"/><path d="M2128.511 446.226l-42.765-1.534 15.724-1.329z"/><path fill="#FAA" d="M2055.709 443.501l45.761-.138-15.724 1.329z"/><path fill="#553B3B" d="M2113.184 408.064l15.327 38.162-30.667-37.17z"/><path fill="#4D3636" d="M2101.47 443.363l-3.626-34.307 30.667 37.17z"/><path fill="#C7C7C7" d="M2101.47 443.363l22.558-34.226-26.184-.081z"/><path fill="#121212" d="M2113.184 408.064l-15.34.992 26.184.081z"/><path fill="#BEBEBE" d="M2011.849 443.659l-74.354-33.845-2.484 35.848z"/><path fill="#EAA" d="M2011.849 443.659l43.86-.158-74.523 1.051z"/><path fill="#533A3A" d="M1985.185 410.3l6.736-2.14 19.928 35.499z"/><path fill="#563C3C" d="M1985.185 410.3l26.664 33.359-30.663.893z"/><path fill="#BBB" d="M1937.495 409.814l74.354 33.845-45.573-34.202z"/><path fill="#4B3535" d="M2011.849 443.659l-19.928-35.499 19.786-.359z"/><path fill="#C1C1C1" d="M1966.276 409.457l45.573 34.202-.142-35.858z"/><path fill="#E99" d="M1943.199 407.974l68.508-.173-19.786.359z"/><path fill="#232323" d="M1943.199 407.974l23.077 1.483 45.431-1.656z"/><path fill="#845C5C" d="M2196.894 497.535l-23.909-53.021 31.609 2.053z"/><path fill="#171010" d="M1935.011 445.662l-16.63-1.865 93.468-.138z"/><path fill="#5C4040" d="M1935.011 445.662l-1.54 65.889-15.09-67.754z"/><path fill="#765252" d="M1891.594 1029.875l5.053-40.236 106.264 36.69z"/><path d="M2202.324 1029.452l-310.73.423 111.317-3.546z"/><path fill="#3E2C2C" d="M2203.059 444.894l1.535 1.673-31.609-2.053z"/><path fill="#865D5D" d="M1933.471 511.551l-18.594-64.905 3.504-2.849z"/><path fill="#6C4B4B" d="M2159.15 796.314l18.017 121.907L2129.076 785z"/><path fill="#885F5F" d="M2159.15 796.314L2129.076 785l20.558-255.898z"/><path fill="#6C4C4C" d="M2214.955 915.204l-37.788 3.017-18.017-121.907z"/><path fill="#724F4F" d="M1908.882 962.57l12.644-49.694 51.177 48.866z"/><path fill="#473232" d="M1972.703 961.742l-76.056 27.897 12.235-27.069z"/><path fill="#704E4E" d="M1916.962 411.188l-.042 28.856-10.872-23.915z"/><path fill="#845D5D" d="M2203.983 441.989l-12.395-30.549 18.098-1.666z"/><path fill="#1C1313" d="M2191.588 411.44l-59.337-2.141 77.435.475z"/><path fill="#604343" d="M1916.92 440.044l-11.354 70.749.482-94.664z"/><path fill="#513939" d="M1933.471 511.551l-27.905-.758 9.311-64.147z"/><path fill="#898989" d="M1916.92 440.044l-2.043 6.602-9.311 64.147z"/><path fill="#503838" d="M1891.585 920.739l29.941-7.863-12.644 49.694z"/><path fill="#563C3C" d="M2202.324 1029.452l6.307-45.98 35.658 10.229z"/><path fill="#201616" d="M2208.631 983.472l-42.784-23.123 78.442 33.352z"/><path fill="#BC8484" d="M2191.588 411.44l-72.603 32.371 13.266-34.512zM2191.588 411.44l12.395 30.549-84.998 1.822z"/><path fill="#C88" d="M2203.059 444.894l-30.074-.38-54-.703z"/><path fill="#DDD" d="M2101.47 443.363l17.515.448 54 .703z"/><path fill="#AC7878" d="M2118.985 443.811l84.998-1.822-.924 2.905z"/><path fill="#2A1E1E" d="M2149.634 529.102l47.26-31.567-27.731 29.02z"/><path fill="#AF7B7B" d="M2116.784 408.609l15.467.69-13.266 34.512z"/><path fill="#281C1C" d="M1978.914 525.433l-30.651 2.58-14.792-16.462z"/><path fill="#563C3C" d="M1948.263 528.013l30.651-2.58 2.758 45.821z"/><path fill="#251919" d="M1933.471 511.551l14.792 16.462-42.697-17.22z"/><path fill="#B57E7E" d="M1916.962 411.188l17.684-3.896 60.424.886z"/><path fill="#BC8383" d="M1916.962 411.188l78.108-3.01-78.15 31.866z"/><path fill="#AF7B7B" d="M1992.791 443.308l-77.914 3.338 2.043-6.602z"/><path fill="#D99" d="M2101.47 443.363l-45.761.138-62.918-.193z"/><path fill="#B98181" d="M1992.791 443.308l-75.871-3.264 78.15-31.866z"/><path fill="#EEE" d="M2118.985 443.811l-17.515-.448-108.679-.055z"/><path fill="#EAA" d="M2055.709 443.501l-43.86.158-19.058-.351z"/><path fill="#696969" d="M1992.791 443.308l-74.41.489-3.504 2.849z"/><path fill="#EAA" d="M1992.791 443.308l19.058.351-93.468.138z"/><path fill="#513838" d="M2214.955 915.204l-4.852 46.953-44.256-1.808z"/><path fill="#3E2B2B" d="M2165.847 960.349l44.256 1.808 34.186 31.544z"/><path fill="#453030" d="M1972.509 799.445l-19.669-14.351 28.832-213.84z"/><path fill="#644646" d="M1952.84 785.094l-4.577-257.081 33.409 43.241z"/><path fill="#412D2D" d="M1891.585 920.739l61.255-135.645-31.314 127.782z"/><path fill="#4F3737" d="M1921.526 912.876l31.314-127.782 19.669 14.351z"/><path d="M2132.251 409.299l-15.467-.69 18.624-.029z"/><path fill="#B3B3B3" d="M2118.985 443.811l16.423-35.231-18.624.029z"/><path d="M2135.408 408.58l74.278 1.194-77.435-.475z"/><path fill="#563C3C" d="M2149.634 529.102l19.529-2.547-7.848 255.643z"/><path fill="#2F2121" d="M2214.955 915.204l-55.805-118.89 2.165-14.116z"/><path fill="#171010" d="M2159.15 796.314l-9.516-267.212 11.681 253.096z"/><path d="M1925.795 407.442l8.851-.15-17.684 3.896z"/><path fill="#DDD" d="M1995.07 408.178l-60.424-.886-8.851.15z"/><path d="M2135.408 408.58l58.623-.377 15.655 1.571z"/><path fill="#282828" d="M1906.048 416.129l-.482 94.664 7.313-66.321z"/><path fill="#241919" d="M2210.103 962.157l4.852-46.953 9.996 2.538z"/><path fill="#1F1515" d="M2224.951 917.742l-9.996-2.538-53.64-133.006z"/><path fill="#BFBFBF" d="M2194.031 408.203l-58.623.377 66.905 37.264z"/><path fill="#B9B9B9" d="M2118.985 443.811l83.328 2.033-66.905-37.264z"/><path fill="#474747" d="M2202.313 445.844l7.373-36.07-15.655-1.571z"/><path fill="#111" d="M1906.048 416.129l9.699-2.547 1.215-2.394z"/><path fill="#101010" d="M1925.795 407.442l-8.833 3.746-1.215 2.394z"/><path fill="#BABABA" d="M1915.747 413.582l77.044 29.726 2.279-35.13z"/><path fill="#2E2E2E" d="M1906.048 416.129l6.831 28.343 2.868-30.89z"/><path fill="#939393" d="M1915.747 413.582l79.323-5.404-69.275-.736z"/><path fill="#BBB" d="M1992.791 443.308l-77.044-29.726-2.868 30.89z"/><path fill="#1B1313" d="M1912.879 444.472l-7.313 66.321 6.784-65.903z"/><path fill="#281C1C" d="M1891.594 1029.875l-13.277-43.28 18.33 3.044z"/><path fill="#251A1A" d="M1908.882 962.57l-12.235 27.069-18.33-3.044z"/><path fill="#D99" d="M2102.307 443.595l16.678.216-126.194-.503z"/><path fill="#DDD" d="M1912.879 444.472l98.219-1.169-18.307.005z"/><path fill="#1A1A1A" d="M1912.879 444.472l-.529.418 98.748-1.587z"/><path fill="#241919" d="M2209.988 503.665l-6.005-61.676 5.703-32.215z"/><path fill="#434343" d="M2202.313 445.844l7.675 57.821-.302-93.891z"/><path fill="#211717" d="M2204.594 446.567l5.394 57.098-13.094-6.13z"/><path fill="#313131" d="M2204.594 446.567l-1.535-1.673 6.929 58.771z"/><path fill="#1F1616" d="M2196.894 497.535l13.094 6.13-40.825 22.89z"/><path fill="#583D3D" d="M2209.988 503.665l-6.929-58.771.924-2.905z"/><path fill="#323232" d="M2161.315 782.198l-4.901 7.28 68.537 128.264z"/><path fill="#242424" d="M2156.414 789.478l4.901-7.28-2.988-255.537z"/><path fill="#1A1A1A" d="M2169.163 526.555l40.825-22.89-51.661 22.996z"/><path fill="#2E2E2E" d="M2169.163 526.555l-10.836.106 2.988 255.537z"/><path fill="#C08686" d="M2102.307 443.595l-1.869-35.331 52.51 1.795z"/><path fill="#D99" d="M2011.098 443.303l45.299.339-63.606-.334z"/><path fill="#DDD" d="M2056.397 443.642l45.91-.047-109.516-.287z"/><path fill="#1A1212" d="M2219.588 1027.698l-17.264 1.754 41.965-35.751z"/><path fill="#C08686" d="M2011.098 443.303l-64.927-35.637 69.214 2.08z"/><path fill="#2B2B2B" d="M2210.103 962.157l14.848-44.415-28.162 45.498z"/><path fill="#131313" d="M1891.594 1029.875l1.032-8.616-14.309-34.664z"/><path fill="#3D3D3D" d="M1952.84 785.094l14.722-258.52-19.299 1.439zM1952.84 785.094l13.939-1.114.783-257.406z"/><path fill="#DDD" d="M1919.934 444.892l91.164-1.589-98.748 1.587z"/><path fill="#C08686" d="M1926.558 409.031l19.613-1.365 64.927 35.637z"/><path fill="#363636" d="M1904.351 917.324l62.428-133.344-13.939 1.114z"/><path fill="#2A2A2A" d="M1908.882 962.57l-4.531-45.246-12.766 3.415z"/><path fill="#242424" d="M1891.585 920.739l12.766-3.415 48.489-132.23z"/><path fill="#454545" d="M2202.313 445.844l-13.661-.69 21.336 58.511z"/><path fill="#B78080" d="M2181.705 408.79l6.947 36.364-35.704-35.095z"/><path fill="#BD8484" d="M2102.307 443.595l50.641-33.536 35.704 35.095z"/><path fill="#DDD" d="M2118.985 443.811l-16.678-.216 86.345 1.559z"/><path fill="#E99" d="M2118.985 443.811l69.667 1.343 13.661.69z"/><path fill="#2E2E2E" d="M1919.934 444.892l3.624 1.262 87.54-2.851z"/><path fill="#BC8383" d="M1926.558 409.031l84.54 34.272-87.54 2.851z"/><path fill="#EEE" d="M2015.385 409.746l-69.214-2.08 53.047 1.827z"/><path fill="#252525" d="M1908.882 962.57l15.971-.863-20.502-44.383z"/><path fill="#191919" d="M1924.853 961.707l-15.971.863-30.565 24.025z"/><path fill="#333" d="M1912.35 444.89l13.09 65.947-5.506-65.945z"/><path fill="#333" d="M1912.35 444.89l-6.784 65.903 19.874.044z"/><path fill="#1B1B1B" d="M1905.566 510.793l42.697 17.22-22.823-17.176z"/><path fill="#6E6E6E" d="M1925.44 510.837l-1.882-64.683-3.624-1.262z"/><path fill="#1F1F1F" d="M1948.263 528.013l19.299-1.439-42.122-15.737z"/><path fill="#5F4242" d="M2056.397 443.642l-15.599-35.254 15.382-.062z"/><path fill="#7D7D7D" d="M1966.779 783.98l-62.428 133.344 91.84-136.188z"/><path fill="#8C8C8C" d="M1966.779 783.98l29.412-2.844-28.629-254.562z"/><path fill="#5A3F3F" d="M2073.403 407.711l-17.006 35.931-.217-35.316z"/><path fill="#E99" d="M2073.403 407.711l-17.223.615-15.382.062z"/><path fill="#979797" d="M2156.414 789.478l1.913-262.817-46.495 101.313z"/><path fill="#383838" d="M2244.289 993.701l-25.864-4.052 1.163 38.049z"/><path fill="#252525" d="M2244.289 993.701l-34.186-31.544 8.322 27.492z"/><path fill="#262626" d="M2196.789 963.24l21.636 26.409-8.322-27.492z"/><path fill="gray" d="M2111.832 627.974l1.988 172.195 42.594-10.691z"/><path fill="#A5A5A5" d="M1967.562 526.574l28.629 254.562 21.32-252.188z"/><path fill="#C9C9C9" d="M2113.82 800.169l-1.988-172.195-65.348 68.751z"/><path fill="#C2C2C2" d="M1996.191 781.136l50.293-84.411-28.973-167.777z"/><path fill="#535353" d="M2224.951 917.742l-68.537-128.264 33.33 128.199z"/><path fill="#7D7D7D" d="M2189.744 917.677l-33.33-128.199-42.594 10.691z"/><path fill="#575757" d="M2224.951 917.742l-35.207-.065 7.045 45.563z"/><path fill="#CBCBCB" d="M2046.484 696.725l45.309-168.732-74.282.955z"/><path fill="#9E9E9E" d="M2091.793 527.993l20.039 99.981 46.495-101.313z"/><path fill="#C2C2C2" d="M2111.832 627.974l-20.039-99.981-45.309 168.732z"/><path fill="#483232" d="M2040.798 408.388l15.599 35.254-25.179-35.869z"/><path d="M2031.218 407.773l42.185-.062-32.605.677z"/><path fill="#FAA" d="M2031.218 407.773l48.868-.402-6.683.34z"/><path fill="#FBB" d="M1946.171 407.666l34.458.515 18.589 1.312z"/><path fill="#B3B3B3" d="M1996.191 781.136l49.307 24.359.986-108.77z"/><path fill="#C7C7C7" d="M2113.82 800.169l-67.336-103.444-.986 108.77z"/><path d="M2181.705 408.79l-28.757 1.269 13.569-2.326z"/><path fill="#444" d="M2166.517 407.733l22.135 37.421-6.947-36.364z"/><path fill="#434343" d="M2209.988 503.665l-21.336-58.511-22.135-37.421z"/><path d="M2100.438 408.264l66.079-.531-13.569 2.326z"/><path fill="#151515" d="M2100.438 408.264l8.887 1.004 57.192-1.535z"/><path fill="#181010" d="M2109.325 409.268l18.934-1.887 38.258.352z"/><path fill="#181818" d="M2128.259 407.381l2.516.493 35.742-.141z"/><path fill="#2F2F2F" d="M2158.327 526.661l51.661-22.996-50.358 9.199z"/><path fill="#323232" d="M2158.327 526.661l1.303-13.797-67.837 15.129z"/><path fill="#787878" d="M2159.63 512.864l50.358-9.199-43.471-95.932z"/><path fill="#797979" d="M1923.558 446.154l36.378-36.511-33.378-.612z"/><path fill="#828282" d="M1923.558 446.154l1.882 64.683 34.496-101.194z"/><path fill="#161616" d="M1946.171 407.666l13.765 1.977 20.693-1.462zM1946.171 407.666l-19.613 1.365 33.378.612z"/><path fill="#585858" d="M1916.828 993.917l-38.511-7.322 14.309 34.664z"/><path fill="#4F4F4F" d="M1924.853 961.707l-46.536 24.888 38.511 7.322z"/><path fill="#2C2C2C" d="M1976.013 409.904l4.616-1.723-20.693 1.462z"/><path fill="#272727" d="M2130.775 407.874l4.204 1.618 31.538-1.759z"/><path fill="#4D4D4D" d="M2011.098 443.303l4.287-33.557-37.558 36.429z"/><path fill="#555" d="M1999.218 409.493l-21.391 36.682 37.558-36.429z"/><path fill="#9F9F9F" d="M1925.44 510.837l50.281-69.73-15.785-31.464z"/><path fill="#BCBCBC" d="M1975.721 441.107l.292-31.203-16.077-.261z"/><path fill="#666" d="M1976.013 409.904l-.292 31.203 4.908-32.926z"/><path fill="#6C6C6C" d="M1999.218 409.493l-23.497 31.614 2.106 5.068z"/><path fill="#606060" d="M1980.629 408.181l-4.908 32.926 23.497-31.614z"/><path fill="#B5B5B5" d="M1925.44 510.837l52.387-64.662-2.106-5.068z"/><path fill="#DDD" d="M2102.307 443.595l-45.91.047 80.725.118z"/><path fill="#5E5E5E" d="M2128.259 407.381l-18.934 1.887 24.619 36.607z"/><path fill="#444" d="M2128.259 407.381l5.685 38.494-3.169-38.001z"/><path fill="#4F4F4F" d="M2134.979 409.492l-4.204-1.618 3.169 38.001z"/><path fill="#C1C1C1" d="M2134.979 409.492l-1.035 36.383 32.573-38.142z"/><path fill="#1D1414" d="M1975.943 447.869l1.884-1.694-52.387 64.662z"/><path fill="#6D4C4C" d="M2109.325 409.268l27.925 37.617-3.306-1.01z"/><path fill="#4E4E4E" d="M2102.307 443.595l34.943 3.29-36.812-38.621z"/><path fill="#4E3737" d="M2102.307 443.595l34.815.165.128 3.125z"/><path fill="#B4B4B4" d="M2137.25 446.885l22.38 65.979 6.887-105.131z"/><path fill="#AAA" d="M2137.25 446.885l29.267-39.152-32.573 38.142z"/><path fill="#3A3A3A" d="M2109.325 409.268l-8.887-1.004 36.812 38.621z"/><path fill="#7D7D7D" d="M2196.789 963.24l-7.045-45.563-54.261 44.635z"/><path fill="#515151" d="M2196.789 963.24l-61.306-.928 82.942 27.337z"/><path fill="#604343" d="M2018.229 411.221l12.989-3.448 25.179 35.869z"/><path fill="#5A3F3F" d="M2094.848 410.962l-38.451 32.68 17.006-35.931z"/><path fill="#2B1E1E" d="M2094.848 410.962l-21.445-3.251 6.683-.34z"/><path fill="#282828" d="M2080.086 407.371l-48.868.402 63.63 3.189z"/><path fill="#848484" d="M1904.351 917.324l20.502 44.383 39.685-44.625z"/><path fill="#7C7C7C" d="M1904.351 917.324l60.187-.242 31.653-135.946z"/><path fill="#AFAFAF" d="M1964.538 917.082l80.96-111.587-49.307-24.359z"/><path fill="#151515" d="M2095.357 446.159l41.765-2.399-80.725-.118z"/><path fill="#583D3D" d="M2056.397 443.642l38.451-32.68.509 35.197z"/><path fill="#FFF" d="M1977.827 446.175l40.937-1.45-7.666-1.422z"/><path fill="#525252" d="M1977.827 446.175l-1.884 1.694 42.821-3.144z"/><path fill="#553B3B" d="M2018.229 411.221l38.168 32.421-37.633 1.083z"/><path fill="#FFF" d="M2056.397 443.642l-45.299-.339 7.666 1.422z"/><path fill="#747474" d="M1892.626 1021.259l74.695 5.347-50.493-32.689z"/><path fill="#1B1B1B" d="M1891.594 1029.875l75.727-3.269-74.695-5.347z"/><path fill="#9F9F9F" d="M1975.943 447.869l-50.503 62.968 77.974-3.18z"/><path fill="#4C4C4C" d="M2017.511 528.948l-14.097-21.291-35.852 18.917z"/><path fill="#484848" d="M1967.562 526.574l35.852-18.917-77.974 3.18z"/><path fill="#5E5E5E" d="M2091.793 527.993l-88.379-20.336 14.097 21.291z"/><path fill="#BEBEBE" d="M2003.414 507.657l15.35-62.932-42.821 3.144z"/><path fill="#666" d="M2166.031 1016.915l53.557 10.783-1.163-38.049z"/><path fill="#8F8F8F" d="M2020.155 962.583l-55.617-45.501-39.685 44.625z"/><path fill="#BEBEBE" d="M2095.357 446.159l-4.834 65.535 46.599-67.934z"/><path fill="#4D4D4D" d="M2091.793 527.993l-1.27-16.299-87.109-4.037z"/><path fill="#B5B5B5" d="M2090.523 511.694l69.107 1.17-22.38-65.979z"/><path fill="#ACACAC" d="M2090.523 511.694l46.727-64.809-.128-3.125z"/><path fill="#4E4E4E" d="M2159.63 512.864l-69.107-1.17 1.27 16.299z"/><path fill="#BCBCBC" d="M2054.706 412.506l40.651 33.653-.509-35.197z"/><path fill="#212121" d="M2054.706 412.506l40.142-1.544-63.63-3.189z"/><path fill="#242424" d="M2054.706 412.506l-23.488-4.733-12.989 3.448z"/><path fill="#BBB" d="M2054.706 412.506l-35.942 32.219-15.35 62.932z"/><path fill="#CBCBCB" d="M2090.523 511.694l-35.817-99.188-51.292 95.151z"/><path fill="#B9B9B9" d="M2018.764 444.725l35.942-32.219-36.477-1.285z"/><path fill="silver" d="M2054.706 412.506l35.817 99.188 4.834-65.535z"/><path fill="#959595" d="M2121.506 914.929l68.238 2.748-75.924-117.508z"/><path fill="#B9B9B9" d="M2121.506 914.929l-101.351 47.654 115.328-.271z"/><path fill="#A1A1A1" d="M2121.506 914.929l13.977 47.383 54.261-44.635z"/><path fill="#B4B4B4" d="M2113.82 800.169l-68.322 5.326 76.008 109.434z"/><path fill="#BDBDBD" d="M1964.538 917.082l55.617 45.501 18.816-44.387z"/><path fill="#B9B9B9" d="M2045.498 805.495l-6.527 112.701 82.535-3.267z"/><path fill="#B0B0B0" d="M2045.498 805.495l-80.96 111.587 74.433 1.114z"/><path fill="#BCBCBC" d="M2020.155 962.583l101.351-47.654-82.535 3.267z"/><path fill="#747474" d="M2135.483 962.312l-115.328.271 98.963 22.483z"/><path fill="#A1A1A1" d="M2119.118 985.066l46.913 31.849 52.394-27.266z"/><path fill="#7F7F7F" d="M2135.483 962.312l-16.365 22.754 99.307 4.583z"/><path fill="#BBB" d="M2074.855 1029.251l91.176-12.336-46.913-31.849z"/><path fill="#383838" d="M2219.588 1027.698l-53.557-10.783-91.176 12.336z"/><path fill="#EEE" d="M2219.588 1027.698l-144.733 1.553 127.469.201z"/><path fill="#121212" d="M1891.594 1029.875l183.261-.624-107.534-2.645z"/><path fill="#DDD" d="M2202.324 1029.452l-127.469-.201-183.261.624z"/><path fill="#6C6C6C" d="M1924.853 961.707l-8.025 32.21 84.07-5.955z"/><path fill="#939393" d="M2020.155 962.583l-19.257 25.379 118.22-2.896z"/><path fill="#A8A8A8" d="M1916.828 993.917l50.493 32.689 33.577-38.644z"/><path fill="#CBCBCB" d="M2074.855 1029.251l44.263-44.185-118.22 2.896z"/><path fill="#6A6A6A" d="M2020.155 962.583l-95.302-.876 76.045 26.255z"/><path fill="#ADADAD" d="M2000.898 987.962l-33.577 38.644 107.534 2.645z"/><g><path fill="#B67F7F" d="M1535.436 925.903l132.8 2.244-8.77 43.332z"/><path fill="#BB8383" d="M1561.669 970.623l-26.233-44.72 124.03 45.576z"/><path fill="#A77" d="M1543.052 1004.564l116.414-33.085 36.954 42.051z"/><path fill="#906464" d="M1543.052 1004.564l18.617-33.941 97.797.856z"/><path fill="#704E4E" d="M1548.054 1029.623l-5.002-25.059 153.368 8.966z"/><path fill="#916565" d="M1535.436 925.903l86.184-34.968 46.616 37.212z"/><path fill="#C08787" d="M1523.26 891.743l32.256-75.927 66.104 75.119z"/><path fill="#6B4B4B" d="M1523.26 891.743l98.36-.808-86.184 34.968z"/><path fill="#C88C8C" d="M1621.62 890.935l-66.104-75.119 95.467-118.154z"/><path fill="#C88C8C" d="M1555.516 815.816l26.799-133.536 68.668 15.382z"/><path fill="#694949" d="M1758.702 919.918l-90.466 8.229-46.616-37.212z"/><path fill="#805959" d="M1758.702 919.918l-137.082-28.983 80.751-.832z"/><path fill="#B98181" d="M1621.62 890.935l29.363-193.273 51.388 192.441z"/><path fill="#B17C7C" d="M1555.516 815.816l-32.256 75.927-38.953-48.909z"/><path fill="#A97676" d="M1499.538 717.5l55.978 98.316-71.209 27.018z"/><path fill="#4B3434" d="M1775.713 1010.642l-34.434 18.833-44.859-15.945z"/><path fill="#352525" d="M1696.42 1013.53l44.859 15.945-193.225.148z"/><path fill="#8B6161" d="M1535.436 925.903l26.233 44.72-97.907.902z"/><path fill="#6F4E4E" d="M1463.762 971.525l97.907-.902-18.617 33.941z"/><path fill="#926666" d="M1749.95 970.762l-81.714-42.615 90.466-8.229z"/><path fill="#7D5858" d="M1749.95 970.762l25.763 39.88-79.293 2.888z"/><path fill="#7A5656" d="M1659.466 971.479l90.484-.717-53.53 42.768z"/><path fill="#916666" d="M1659.466 971.479l8.77-43.332 81.714 42.615z"/><path fill="#AD7979" d="M1702.371 890.103l-51.388-192.441 64.959 66.202z"/><path fill="#8E6363" d="M1463.762 971.525l-26.975-46.76 98.649 1.138z"/><path fill="#6B4A4A" d="M1535.436 925.903l-98.649-1.138 86.473-33.022z"/><path fill="#604343" d="M1548.054 1029.623l-131.02-20.696 126.018-4.363z"/><path fill="#805A5A" d="M1463.762 971.525l79.29 33.039-126.018 4.363z"/><path fill="#936666" d="M1499.538 717.5l-24.71-168.118 80.688 266.434z"/><path fill="#C48989" d="M1555.516 815.816l-80.688-266.434 107.487 132.898z"/><path fill="#BB8383" d="M1582.315 682.28l-21.614-138.834 90.282 154.216z"/><path fill="#BF8585" d="M1582.315 682.28l-107.487-132.898 85.873-5.936z"/><path fill="#CB8E8E" d="M1560.701 543.446l-85.873 5.936 33.364-145.347z"/><path fill="#C88C8C" d="M1448.507 435.406l59.685-31.371-33.364 145.347z"/><path fill="#C48989" d="M1508.192 404.035l-59.685 31.371 59.035-92.092z"/><path fill="#CB8E8E" d="M1560.701 543.446l-52.509-139.411 236.361 34.996z"/><path fill="#473232" d="M1472.545 891.41l50.715.333-86.473 33.022z"/><path fill="#6D4C4C" d="M1472.545 891.41l11.762-48.576 38.953 48.909z"/><path fill="#CA8D8D" d="M1757.122 494.412l-76.331 17.783 63.762-73.164z"/><path fill="#B07B7B" d="M1560.701 543.446l183.852-104.415-63.762 73.164z"/><path fill="#C08787" d="M1508.192 404.035l-.65-60.721 88.891 48.714z"/><path fill="#966969" d="M1744.553 439.031l-236.361-34.996 88.241-12.007z"/><path fill="#916565" d="M1715.942 763.864l-64.959-66.202 68.443-36.783z"/><path fill="#926666" d="M1560.701 543.446l120.09-31.251-49.378 35.765z"/><path fill="#906565" d="M1719.426 660.879l-68.443 36.783-19.57-149.702z"/><path fill="#9E6E6E" d="M1650.983 697.662l-90.282-154.216 70.712 4.514z"/><path fill="#674848" d="M1448.423 831.64l51.115-114.14-15.231 125.334z"/><path fill="#5A3F3F" d="M1472.545 891.41l-24.122-59.77 35.884 11.194z"/><path fill="#8D6262" d="M1766.622 420.155l-22.069 18.876-148.12-47.003z"/><path fill="#926666" d="M1757.122 494.412l-12.569-55.381 22.069-18.876z"/><path fill="#5B3F3F" d="M1448.423 831.64l22.6-119.5 28.515 5.36z"/><path fill="#785454" d="M1763.764 790.547l-47.822-26.683 3.484-102.985z"/><path fill="#875E5E" d="M1715.942 763.864l47.822 26.683-61.393 99.556z"/><path fill="#704E4E" d="M1507.542 343.314l-59.035 92.092 21.05-70.716z"/><path fill="#624545" d="M1417.695 445.217l51.862-80.527-21.05 70.716z"/><path fill="#916565" d="M1499.538 717.5l-81.843-272.283 57.133 104.165z"/><path fill="#7F5858" d="M1417.695 445.217l30.812-9.811 26.321 113.976z"/><path fill="#563C3C" d="M1471.023 712.14l-53.328-266.923 81.843 272.283z"/><path fill="#624545" d="M1750.181 889.983l-47.81.12 61.393-99.556z"/><path fill="#362626" d="M1750.181 889.983l8.521 29.935-56.331-29.815z"/><path fill="#535353" d="M1507.542 343.314l-37.985 21.376 85.966-9.685z"/><path fill="#412D2D" d="M1555.523 355.005l40.91 37.023-88.891-48.714z"/><path fill="#C38888" d="M1559.465 312.411l-3.942 42.594-85.966 9.685z"/><path fill="#A87575" d="M1469.557 364.69l-51.862 80.527 15.049-106.967z"/><path fill="#966969" d="M1469.557 364.69l-36.813-26.44 126.721-25.839z"/><path fill="#885F5F" d="M1441.175 709.172l29.848 2.968-22.6 119.5z"/><path fill="#865E5E" d="M1417.695 445.217l53.328 266.923-29.848-2.968z"/><path fill="#291D1D" d="M1750.181 889.983l44.65 38.077-36.129-8.142z"/><path fill="#432F2F" d="M1758.702 919.918l36.129 8.142-44.881 42.702z"/><path fill="#926666" d="M1417.695 445.217l-30.571 6.807 45.62-113.774z"/><path fill="#9D6E6E" d="M1441.175 709.172l-54.051-257.148 30.571-6.807z"/><path fill="#463131" d="M1596.433 392.028l137.405 8.589 32.784 19.538z"/><path fill="#755252" d="M1419.803 819.434l21.372-110.262 7.248 122.468z"/><path fill="#2D1F1F" d="M1436.787 924.765l26.975 46.76-46.504-47.437z"/><path fill="#241919" d="M1472.545 891.41l-35.758 33.355-19.529-.677z"/><path fill="#322323" d="M1596.433 392.028l26.319-7.628 111.086 16.217z"/><path fill="#4B3535" d="M1596.433 392.028l-40.91-37.023 67.229 29.395z"/><path fill="#573D3D" d="M1736.61 528.54l-55.819-16.345 76.331-17.783z"/><path fill="#322323" d="M1749.95 970.762l57.144 39.253-31.381.627z"/><path fill="#211717" d="M1807.094 1010.015l-65.815 19.46 34.434-18.833z"/><path fill="#8B8B8B" d="M1432.872 396.157l-.128-57.907-45.62 113.774z"/><path fill="#231818" d="M1794.831 928.06l-27.202 42.329-17.679.373z"/><path fill="#201616" d="M1767.629 970.389l39.465 39.626-57.144-39.253z"/><path d="M1472.545 891.41l-55.287 32.678 51.051-33.627z"/><path fill="#241919" d="M1442.631 969.057l21.131 2.468-46.728 37.402z"/><path fill="#261A1A" d="M1417.258 924.088l46.504 47.437-21.131-2.468z"/><path fill="#2F2121" d="M1763.764 790.547l-44.338-129.668 38.49 75.136z"/><path fill="#999" d="M1441.175 709.172l-16.109-226.017-37.942-31.131z"/><path fill="#ACACAC" d="M1432.872 396.157l-45.748 55.867 37.942 31.131z"/><path fill="#7C7C7C" d="M1523.397 348.058l32.126 6.947 3.942-42.594z"/><path fill="#232323" d="M1555.523 355.005l-32.126-6.947 99.355 36.342z"/><path fill="#858585" d="M1523.397 348.058l36.068-35.647-126.721 25.839z"/><path fill="#B4B4B4" d="M1432.744 338.25l.128 57.907 90.525-48.099z"/><path d="M1680.791 512.195l55.819 16.345-51.883-11.41z"/><path fill="#868686" d="M1441.175 709.172l-21.372 110.262 50.514-103.734z"/><path fill="gray" d="M1470.317 715.7l-45.251-232.545 16.109 226.017z"/><path fill="#1A1212" d="M1680.791 512.195l3.936 4.935-55.626 34.22z"/><path d="M1631.413 547.96l49.378-35.765-51.69 39.155z"/><path fill="#251A1A" d="M1417.034 1008.927l131.02 20.696-123.017-2.351z"/><path d="M1712.786 646.346l6.64 14.533-88.013-112.919z"/><path fill="#E99" d="M1719.426 660.879l-6.64-14.533 45.13 89.669z"/><path fill="#161616" d="M1629.101 551.35l83.685 94.996-81.373-98.386z"/><path fill="#271B1B" d="M1757.122 494.412l9.5-74.257 7.629 45.049z"/><path fill="#DDD" d="M1736.61 528.54l20.512-34.128 17.129-29.208z"/><path fill="#848484" d="M1450.919 839.778l19.398-124.078-50.514 103.734z"/><path fill="#191111" d="M1419.803 819.434l28.62 12.206 2.496 8.138z"/><path fill="#E99" d="M1472.545 891.41l-21.626-51.632-2.496-8.138z"/><path d="M1468.309 890.461l-17.39-50.683 21.626 51.632z"/><path fill="#FAA" d="M1417.034 1008.927l4.949-10.499 20.648-29.371z"/><path fill="#151515" d="M1425.037 1027.272l-3.054-28.844-4.949 10.499z"/><path fill="#555" d="M1733.838 400.617L1622.752 384.4l128.282 42.667z"/><path fill="#2A2A2A" d="M1733.838 400.617l17.196 26.45 15.588-6.912z"/><path fill="#2D2D2D" d="M1774.251 465.204l-7.629-45.049-15.588 6.912z"/><path fill="#202020" d="M1750.181 889.983l13.583-99.436-13.318 23.601z"/><path fill="#242424" d="M1763.764 790.547l-5.848-54.532-7.47 78.133z"/><path fill="#595959" d="M1736.61 528.54l-7.168-24.722-44.715 13.312z"/><path fill="#515151" d="M1736.61 528.54l37.641-63.336-44.809 38.614z"/><path fill="#AEAEAE" d="M1751.034 427.067l-21.592 76.751 44.809-38.614z"/><path fill="#767676" d="M1729.442 503.818l-65.112-12.447 20.397 25.759z"/><path fill="#949494" d="M1629.101 551.35l55.626-34.22-20.397-25.759z"/><path fill="#CBCBCB" d="M1729.442 503.818l-131.553-91.337 66.441 78.89z"/><path fill="#CBCBCB" d="M1729.442 503.818l21.592-76.751-153.145-14.586z"/><path fill="#646464" d="M1622.752 384.4l-24.863 28.081 153.145 14.586z"/><path fill="#DDD" d="M1548.054 1029.623l202.331.981-325.348-3.332z"/><path d="M1741.279 1029.475l65.815-19.46-56.709 20.589z"/><path fill="#E99" d="M1741.279 1029.475l9.106 1.129-202.331-.981z"/><path fill="#616161" d="M1425.066 483.155l26.656-52.507-18.85-34.491z"/><path fill="#717171" d="M1622.752 384.4l-116.26-30.032 91.397 58.113z"/><path fill="gray" d="M1451.722 430.648l54.77-76.28-73.62 41.789z"/><path fill="#C9C9C9" d="M1664.33 491.371l-66.441-78.89-91.397-58.113z"/><path fill="#454545" d="M1622.752 384.4l-99.355-36.342-16.905 6.31z"/><path fill="#171010" d="M1432.872 396.157l73.62-41.789 16.905-6.31z"/><path fill="#CACACA" d="M1567.264 548.936l97.066-57.565-157.838-137.003z"/><path fill="#8F8F8F" d="M1567.264 548.936l61.837 2.414 35.229-59.979z"/><path fill="#CBCBCB" d="M1473.362 549.808l93.902-.872-60.772-194.568z"/><path fill="#C9C9C9" d="M1473.362 549.808l33.13-195.44-54.77 76.28z"/><path fill="#828282" d="M1473.362 549.808l-21.64-119.16-26.656 52.507z"/><path fill="#494949" d="M1711.647 890.689l38.534-.706.265-75.835z"/><path fill="#3B3B3B" d="M1417.258 924.088l36.672 1.388 14.379-35.015z"/><path fill="#4D4D4D" d="M1417.258 924.088l25.373 44.969 11.299-43.581z"/><path fill="#656565" d="M1757.916 736.015l-45.13-89.669-21.785 37.878z"/><path fill="#767676" d="M1750.446 814.148l7.47-78.133-66.915-51.791z"/><path fill="#737373" d="M1712.786 646.346l-83.685-94.996 61.9 132.874z"/><path fill="#8D8D8D" d="M1567.264 548.936l123.737 135.288-61.9-132.874z"/><path fill="#575757" d="M1425.066 483.155l45.251 232.545 32.874 1.832z"/><path fill="#585858" d="M1503.191 717.532l-32.874-1.832-19.398 124.078z"/><path fill="#8D8D8D" d="M1503.191 717.532l-29.829-167.724-48.296-66.653z"/><path fill="#686868" d="M1526.671 891.076l-75.752-51.298 17.39 50.683z"/><path fill="#464646" d="M1526.671 891.076l-58.362-.615-14.379 35.015z"/><path fill="#313131" d="M1750.181 889.983l1.529 34.454 43.121 3.623z"/><path fill="#595959" d="M1751.71 924.437l-31.958 46.76 47.877-.808z"/><path fill="#333" d="M1711.647 890.689l40.063 33.748-1.529-34.454z"/><path fill="#4C4C4C" d="M1794.831 928.06l-43.121-3.623 15.919 45.952z"/><path fill="#505050" d="M1767.629 970.389l-47.877.808 35.845 38.947z"/><path fill="#3B3B3B" d="M1750.385 1030.604l56.709-20.589-51.497.129z"/><path fill="#4C4C4C" d="M1767.629 970.389l-12.032 39.755 51.497-.129z"/><path fill="#757575" d="M1503.191 717.532l-52.272 122.246 49.997-2.167z"/><path fill="#6B6B6B" d="M1450.919 839.778l75.752 51.298-25.755-53.465z"/><path fill="#575757" d="M1442.631 969.057l-20.648 29.371 51.654 6.767z"/><path fill="#676767" d="M1421.983 998.428l3.054 28.844 48.6-22.077z"/><path fill="#646464" d="M1453.93 925.476l-11.299 43.581 82.884 3.024z"/><path fill="#565656" d="M1442.631 969.057l31.006 36.138 51.878-33.114z"/><path fill="#AEAEAE" d="M1567.264 548.936l23 131.306 100.737 3.982z"/><path fill="#BABABA" d="M1590.264 680.242l-23-131.306-93.902.872z"/><path fill="#515151" d="M1425.037 1027.272l115.822-.287-67.222-21.79z"/><path fill="#FFF" d="M1425.037 1027.272l325.348 3.332-209.526-3.619z"/><path fill="#B0B0B0" d="M1711.647 890.689l-78.069-87.06.162 90.261z"/><path fill="#BEBEBE" d="M1633.578 803.629l57.423-119.405-100.737-3.982z"/><path fill="#A6A6A6" d="M1633.578 803.629l78.069 87.06 38.799-76.541zM1633.578 803.629l116.868 10.519-59.445-129.924z"/><path fill="#ADADAD" d="M1526.671 891.076l107.069 2.814-84.194-64.435z"/><path fill="#CBCBCB" d="M1549.546 829.455l84.032-25.826-43.314-123.387z"/><path fill="silver" d="M1549.546 829.455l40.718-149.213-116.902-130.434z"/><path fill="#A7A7A7" d="M1500.916 837.611l25.755 53.465 22.875-61.621z"/><path fill="#ACACAC" d="M1503.191 717.532l-2.275 120.079 48.63-8.156z"/><path fill="#C6C6C6" d="M1633.74 893.89l-.162-90.261-84.032 25.826z"/><path fill="#969696" d="M1549.546 829.455l-76.184-279.647 29.829 167.724z"/><path fill="#757575" d="M1526.671 891.076l-72.741 34.4 89.822-.525z"/><path fill="#9D9D9D" d="M1453.93 925.476l71.585 46.605 18.237-47.13z"/><path fill="#ADADAD" d="M1525.515 972.081l114.006-.569-95.769-46.561z"/><path fill="#717171" d="M1711.647 890.689l-68.128 31.816 108.191 1.932z"/><path fill="#A8A8A8" d="M1643.519 922.505l-3.998 49.007 80.231-.315z"/><path fill="#6F6F6F" d="M1526.671 891.076l17.081 33.875 99.767-2.446z"/><path fill="#6B6B6B" d="M1633.74 893.89l9.779 28.615 68.128-31.816z"/><path fill="#777" d="M1526.671 891.076l116.848 31.429-9.779-28.615z"/><path fill="#BABABA" d="M1639.521 971.512l3.998-49.007-99.767 2.446z"/><path fill="#A8A8A8" d="M1719.752 971.197l31.958-46.76-108.191-1.932z"/><path fill="#898989" d="M1639.521 971.512l24.603 41.374 55.628-41.689z"/><path fill="#484848" d="M1755.597 1010.144l-91.473 2.742 86.261 17.718z"/><path fill="#8E8E8E" d="M1719.752 971.197l-55.628 41.689 91.473-2.742z"/><path fill="#313131" d="M1750.385 1030.604l-86.261-17.718-123.265 14.099z"/><path fill="#A2A2A2" d="M1639.521 971.512l-83.501 33.671 108.104 7.703z"/><path fill="#838383" d="M1525.515 972.081l30.505 33.102 83.501-33.671z"/><path fill="#929292" d="M1473.637 1005.195l82.383-.012-30.505-33.102z"/><path fill="#777" d="M1664.124 1012.886l-108.104-7.703-15.161 21.802z"/><path fill="#818181" d="M1540.859 1026.985l15.161-21.802-82.383.012z"/></g><g><path fill="#B78080" d="M2426.326 1030.01l53.595-38.177 38.478 33.737z"/><path fill="#C78B8B" d="M2346.422 999.52l133.499-7.687-53.595 38.177z"/><path fill="#C98C8C" d="M2476.325 970.802l-92.706-28.331 89.875-3.675z"/><path fill="#C28888" d="M2389.673 969.538l-6.054-27.067 92.706 28.331z"/><path fill="#9D6E6E" d="M2346.422 999.52l43.251-29.982 90.248 22.295z"/><path fill="#825B5B" d="M2479.921 991.833l-90.248-22.295 86.652 1.264z"/><path fill="#B37D7D" d="M2518.399 1025.57l-38.478-33.737 91.166-2.002z"/><path fill="#775353" d="M2479.921 991.833l-3.596-21.031 94.762 19.029z"/><path fill="#BC8383" d="M2473.494 938.796l64.666 1.447-61.835 30.559z"/><path fill="#6D4C4C" d="M2476.325 970.802l75.041.497 19.721 18.532z"/><path fill="#AC7878" d="M2476.325 970.802l61.835-30.559 13.206 31.056z"/><path fill="#916565" d="M2592.321 1023.064l-73.922 2.506 52.688-35.739z"/><path fill="#916666" d="M2491.146 877.24l47.014 63.003-64.666-1.447z"/><path fill="#926666" d="M2435.644 854.904l55.502 22.336-17.652 61.556z"/><path fill="#A27171" d="M2435.644 854.904l37.85 83.892-89.875 3.675z"/><path fill="#604343" d="M2389.673 969.538l-43.251 29.982-14.832-29.233z"/><path fill="#926666" d="M2331.59 970.287l52.029-27.816 6.054 27.067z"/><path fill="#8C6262" d="M2319.65 939.663l63.969 2.808-52.029 27.816z"/><path fill="#C08686" d="M2428.886 732.608l-49.549-46.668 107.602 4.558z"/><path fill="#9B6C6C" d="M2495.896 734.313l-67.01-1.705 58.053-42.11z"/><path fill="#C58A8A" d="M2435.644 854.904l-6.758-122.296 67.01 1.705z"/><path fill="#BD8484" d="M2435.644 854.904l60.252-120.591 6.923 87.671z"/><path fill="#AF7A7A" d="M2502.819 821.984l-11.673 55.256-55.502-22.336z"/><path fill="#714F4F" d="M2383.619 942.471l-63.969-2.808 56.417-62.725z"/><path fill="#735050" d="M2435.644 854.904l-52.025 87.567-7.552-65.533z"/><path fill="#513939" d="M2486.939 690.498l-107.602-4.558 82.556-9.807z"/><path fill="#C28888" d="M2423.537 638.446l80.206-3.901-41.85 41.588z"/><path fill="#AC7878" d="M2376.067 876.938l27.085-67.469 32.492 45.435z"/><path fill="#996B6B" d="M2403.152 809.469l25.734-76.861 6.758 122.296z"/><path fill="#795555" d="M2594.23 937.998l-42.864 33.301-13.206-31.056z"/><path fill="#C18787" d="M2423.537 638.446l52.989-54.197 27.217 50.296z"/><path fill="#6A4A4A" d="M2491.146 877.24l41.956-3.134 5.058 66.137z"/><path fill="#855D5D" d="M2502.819 821.984l30.283 52.122-41.956 3.134z"/><path fill="#624444" d="M2533.102 874.106l61.128 63.892-56.07 2.245z"/><path fill="#5A3F3F" d="M2331.59 970.287l14.832 29.233-57.933-8.733z"/><path fill="#624444" d="M2592.321 1023.064l-21.234-33.233 46.034 1.564z"/><path fill="#5E4242" d="M2551.366 971.299l42.864-33.301-4.432 32.651z"/><path fill="#402D2D" d="M2589.798 970.649l27.323 20.746-46.034-1.564z"/><path fill="#3F2C2C" d="M2551.366 971.299l38.432-.65-18.711 19.182z"/><path fill="#583D3D" d="M2426.326 1030.01l-137.528-1.427 57.624-29.063z"/><path fill="#624545" d="M2288.798 1028.583l-.309-37.796 57.933 8.733z"/><path fill="#9C6D6D" d="M2423.537 638.446l-3.732-51.599 56.721-2.598z"/><path fill="#805A5A" d="M2418.625 674.985l4.912-36.539 38.356 37.687z"/><path fill="#332424" d="M2379.337 685.94l39.288-10.955 43.268 1.148z"/><path fill="#785454" d="M2390.409 729.366l38.477 3.242-25.734 76.861z"/><path fill="#5E4242" d="M2390.409 729.366l-11.072-43.426 49.549 46.668z"/><path fill="#342424" d="M2461.893 676.133l32.346-1.556-7.3 15.921z"/><path fill="#694949" d="M2494.239 674.577l-32.346 1.556 41.85-41.588z"/><path fill="#573D3D" d="M2418.625 674.985l-25.176-34.555 30.088-1.984zM2419.805 586.847l3.732 51.599-30.088 1.984z"/><path fill="#372626" d="M2502.819 821.984l-6.923-87.671 12.871-1.103z"/><path fill="#2F2121" d="M2495.896 734.313l39.812-46.137-26.941 45.034z"/><path fill="#5F4242" d="M2495.896 734.313l-8.957-43.815 48.769-2.322z"/><path fill="#352525" d="M2535.708 688.176l-48.769 2.322 7.3-15.921z"/><path fill="#3F2C2C" d="M2387.509 849.819l2.9-120.453 12.743 80.103z"/><path fill="#2B1E1E" d="M2387.509 849.819l-11.442 27.119-56.417 62.725z"/><path fill="#EEE" d="M2387.509 849.819l15.643-40.35-27.085 67.469z"/><path fill="#271B1B" d="M2592.321 1023.064l24.8-31.669-11.766 38.181z"/><path d="M2518.399 1025.57l86.956 4.006-179.029.434z"/><path fill="#1B1313" d="M2592.321 1023.064l13.034 6.512-86.956-4.006z"/><path fill="#2E2020" d="M2516.803 857.43l-13.984-35.446 5.948-88.774z"/><path fill="#1F1F1F" d="M2533.102 874.106l-30.283-52.122 13.984 35.446z"/><path fill="#DDD" d="M2594.23 937.998l-61.128-63.892-16.299-16.676z"/><path fill="#1C1414" d="M2331.59 970.287l-43.101 20.5 25.135-20.091z"/><path fill="#2C1E1E" d="M2319.65 939.663l11.94 30.624-17.966.409z"/><path d="M2379.337 685.94l11.072 43.426-13.53-46.399z"/><path d="M2379.337 685.94l-2.458-2.973 41.746-7.982z"/><path fill="#101010" d="M2494.239 674.577l9.504-40.032 1.599-14.735z"/><path fill="#211717" d="M2503.743 634.545l-27.217-50.296 28.816 35.561z"/><path fill="#3B3B3B" d="M2419.805 586.847l-26.356 53.583 40.998-52.222z"/><path fill="#434343" d="M2476.526 584.249l-42.079 3.959 70.895 31.602z"/><path fill="#131313" d="M2419.805 586.847l14.642 1.361 42.079-3.959z"/><path fill="#7F7F7F" d="M2494.239 674.577l11.103-54.767-57.38 57.669z"/><path fill="#1E1E1E" d="M2418.625 674.985l-41.746 7.982 71.083-5.488z"/><path fill="#4B4B4B" d="M2418.625 674.985l29.337 2.494-54.513-37.049z"/><path fill="#848484" d="M2516.803 857.43l-8.036-124.22-27.278 1.653z"/><path fill="#767676" d="M2508.767 733.21l26.941-45.034-54.219 46.687z"/><path d="M2313.624 970.696l.572-31.825 5.454.792z"/><path d="M2387.509 849.819l-67.859 89.844-5.454-.792z"/><path fill="#949494" d="M2393.449 640.43l50.841-.031-9.843-52.191z"/><path fill="#AAA" d="M2447.962 677.479l57.38-57.669-61.052 20.589z"/><path fill="#8B8B8B" d="M2447.962 677.479l-3.672-37.08-50.841.031z"/><path fill="#B7B7B7" d="M2505.342 619.81l-70.895-31.602 9.843 52.191z"/><path fill="#636363" d="M2426.109 712.792l-35.7 16.574-2.9 120.453z"/><path fill="#6C6C6C" d="M2390.409 729.366l35.7-16.574-49.23-29.825z"/><path fill="#8D8D8D" d="M2481.591 860.329l35.212-2.899-35.314-122.567z"/><path fill="#CACACA" d="M2436.101 850.637l45.49 9.692-.102-125.466z"/><path fill="#C4C4C4" d="M2436.101 850.637l45.388-115.774-55.38-22.071z"/><path fill="#9B9B9B" d="M2387.509 849.819l48.592.818-9.992-137.845z"/><path fill="#B9B9B9" d="M2426.109 712.792l55.38 22.071 7.301-50.926z"/><path fill="#B9B9B9" d="M2376.879 682.967l49.23 29.825 62.681-28.855z"/><path fill="#252525" d="M2494.239 674.577l-46.277 2.902 40.828 6.458z"/><path fill="#272727" d="M2535.708 688.176l-41.469-13.599-5.449 9.36z"/><path fill="gray" d="M2481.489 734.863l54.219-46.687-46.918-4.239z"/><path fill="#494949" d="M2447.962 677.479l-71.083 5.488 111.911.97z"/><path fill="#272727" d="M2288.798 1028.583l13.497-38.634-13.806.838z"/><path fill="#202020" d="M2313.624 970.696l-25.135 20.091 13.806-.838z"/><path fill="#282828" d="M2516.803 857.43l60.2 84.045 17.227-3.477z"/><path fill="#2A2A2A" d="M2594.23 937.998l-17.227 3.477 12.795 29.174z"/><path fill="#717171" d="M2516.803 857.43l-35.212 2.899 95.412 81.146z"/><path fill="#393939" d="M2589.798 970.649l-12.795-29.174-13.409 27.533z"/><path fill="#272727" d="M2563.594 969.008l53.527 22.387-27.323-20.746z"/><path fill="#373737" d="M2605.355 1029.576l11.766-38.181-28.75 19.453z"/><path fill="#404040" d="M2563.594 969.008l24.777 41.84 28.75-19.453z"/><path fill="#484848" d="M2288.798 1028.583l43.213-8.424-29.716-30.21z"/><path fill="#474747" d="M2384.513 969.523l-70.889 1.173-11.329 19.253z"/><path fill="#7B7B7B" d="M2313.624 970.696l70.889-1.173-70.317-30.652z"/><path fill="#797979" d="M2577.003 941.475l-95.412-81.146 30.229 79.766z"/><path fill="#9D9D9D" d="M2577.003 941.475l-65.183-1.38 51.774 28.913z"/><path fill="#A2A2A2" d="M2511.82 940.095l-43.526 30.479 95.3-1.566z"/><path fill="#797979" d="M2387.509 849.819l-73.313 89.052 95.077-3.363z"/><path fill="#BDBDBD" d="M2468.294 970.574l-59.021-35.066-24.76 34.015z"/><path fill="#7A7A7A" d="M2436.101 850.637l-48.592-.818 21.764 85.689z"/><path fill="#9D9D9D" d="M2481.591 860.329l-72.318 75.179 102.547 4.587z"/><path fill="#A0A0A0" d="M2481.591 860.329l-45.49-9.692-26.828 84.871z"/><path fill="#CACACA" d="M2409.273 935.508l59.021 35.066 43.526-30.479z"/><path fill="#9B9B9B" d="M2314.196 938.871l70.317 30.652 24.76-34.015z"/><path fill="#5F5F5F" d="M2468.294 970.574l60.59 19.461 34.71-21.027z"/><path fill="#767676" d="M2563.594 969.008l-34.71 21.027 59.487 20.813z"/><path fill="#212121" d="M2288.798 1028.583l157.816 1.048-114.603-9.472z"/><path fill="#424242" d="M2605.355 1029.576l-16.984-18.728-141.757 18.783z"/><path fill="#A0A0A0" d="M2588.371 1010.848l-59.487-20.813-82.27 39.596z"/><path fill="#DDD" d="M2426.326 1030.01l20.288-.379-157.816-1.048z"/><path fill="#CCC" d="M2605.355 1029.576l-158.741.055-20.288.379z"/><path fill="#979797" d="M2302.295 989.949l29.716 30.21 70.976-29.162z"/><path fill="#A5A5A5" d="M2446.614 1029.631l-43.627-38.634-70.976 29.162z"/><path fill="#C8C8C8" d="M2446.614 1029.631l82.27-39.596-125.897.962z"/><path fill="#A2A2A2" d="M2468.294 970.574l-65.307 20.423 125.897-.962z"/><path fill="#7C7C7C" d="M2384.513 969.523l-82.218 20.426 100.692 1.048z"/><path fill="#6D6D6D" d="M2384.513 969.523l18.474 21.474 65.307-20.423z"/></g><g><path fill="#7F5959" d="M1147.681 996.246l116.954 33.846-184.253-7.267z"/><path fill="#C08686" d="M1147.681 996.246l126.765-8.29-9.811 42.136z"/><path fill="#A07070" d="M1147.681 996.246l65.718-35.51 61.047 27.22z"/><path fill="#C48989" d="M1130.094 962.852l-4.784-43.792 99.938 7.275z"/><path fill="#825B5B" d="M1213.399 960.736l-65.718 35.51-17.587-33.394z"/><path fill="#BB8282" d="M1213.399 960.736l-83.305 2.116 95.154-36.517z"/><path fill="#AC7878" d="M1053.118 924.195l72.192-5.135 4.784 43.792z"/><path fill="#AB7878" d="M1147.681 996.246l-67.299 26.579-55.226-38.979z"/><path fill="#8A6161" d="M1225.248 926.335l-14.982-81.097 91.798 76.864z"/><path fill="#9E6F6F" d="M1141.874 856.331l68.392-11.093-84.956 73.822z"/><path fill="#A37272" d="M1210.266 845.238l14.982 81.097-99.938-7.275z"/><path fill="#996B6B" d="M1053.118 924.195l76.976 38.657-80.13-1.637z"/><path fill="#895F5F" d="M1130.094 962.852l17.587 33.394-97.717-35.031z"/><path fill="#785454" d="M1049.964 961.215l97.717 35.031-122.525-12.4z"/><path fill="#624545" d="M1213.399 960.736l88.269 1.536-27.222 25.684z"/><path fill="#976A6A" d="M1213.399 960.736l11.849-34.401 76.42 35.937z"/><path fill="#9C6D6D" d="M1301.668 962.272l-76.42-35.937 76.816-4.233z"/><path fill="#906565" d="M1335.563 1022.322l-70.928 7.77 9.811-42.136z"/><path fill="#694949" d="M1301.668 962.272l36.764 22.592-63.986 3.092z"/><path fill="#875E5E" d="M1274.446 987.956l63.986-3.092-2.869 37.458z"/><path fill="#C88C8C" d="M1126.135 405.657l27.52-73.107 28.074 107.152z"/><path fill="#C18787" d="M1166.913 520.838l14.816-81.136 24.498-2.053z"/><path fill="#CA8D8D" d="M1166.913 520.838l-40.778-115.181 55.594 34.045z"/><path fill="#CB8E8E" d="M1201.979 769.752l-64.517 10.635 23.721-176.045z"/><path fill="#B88181" d="M1137.462 780.387l72.804 64.851-68.392 11.093z"/><path fill="#BF8686" d="M1201.979 769.752l8.287 75.486-72.804-64.851z"/><path fill="#7A5555" d="M1025.156 983.846l55.226 38.979-68.218 5.558z"/><path fill="#1E1515" d="M1264.635 1030.092l-252.471-1.709 68.218-5.558z"/><path fill="#9B6C6C" d="M1141.874 856.331l-53.518-10.25 49.106-65.694z"/><path fill="#865E5E" d="M1088.356 846.081l36.954 72.979-72.192 5.135z"/><path fill="#865E5E" d="M1141.874 856.331l-16.564 62.729-36.954-72.979z"/><path fill="#5A3F3F" d="M1149.664 591.184l63.981 13.504-52.462-.346z"/><path fill="#5F4242" d="M1149.664 591.184l83.589.857-19.608 12.647z"/><path fill="#C78B8B" d="M1201.979 769.752l-40.796-165.41 52.462.346z"/><path fill="#B98282" d="M1149.664 591.184l73.246-73.758 10.343 74.615z"/><path fill="#BF8585" d="M1222.91 517.426l-55.997 3.412 39.314-83.189z"/><path fill="#BC8484" d="M1222.91 517.426l-16.683-79.777 15.956-50.573z"/><path fill="#BA8282" d="M1149.664 591.184l17.249-70.346 55.997-3.412z"/><path fill="#AB7777" d="M1126.135 405.657l40.778 115.181-44.257-1.564z"/><path fill="#A27171" d="M1166.913 520.838l-17.249 70.346-27.008-71.91z"/><path fill="#976969" d="M1090.682 438.866l35.453-33.209-3.479 113.617z"/><path fill="#A87676" d="M1120.281 606.568l40.902-2.226-23.721 176.045z"/><path fill="#4A3434" d="M1149.664 591.184l11.519 13.158-40.902 2.226z"/><path fill="#604343" d="M1337.209 922.482l-35.541 39.79.396-40.17z"/><path fill="#916666" d="M1093.019 365.024l60.636-32.474-27.52 73.107z"/><path fill="#7E5858" d="M1090.682 438.866l2.337-73.842 33.116 40.633z"/><path fill="#8F6464" d="M1081.417 591.435l41.239-72.161 27.008 71.91z"/><path fill="#593E3E" d="M1149.664 591.184l-29.383 15.384-38.864-15.133z"/><path fill="#513939" d="M1302.064 922.102l-23.789-76.065 58.934 76.445z"/><path fill="#6E4D4D" d="M1278.275 846.037l23.789 76.065-91.798-76.864z"/><path fill="#926666" d="M1246.749 768.103l-44.77 1.649 11.666-165.064z"/><path fill="#8C6262" d="M1246.749 768.103l-36.483 77.135-8.287-75.486z"/><path fill="#8B6161" d="M1278.275 846.037l-68.009-.799 36.483-77.135z"/><path fill="#936666" d="M1182.627 272.716l-.898 166.986-28.074-107.152z"/><path fill="#5C4141" d="M1008.901 922.811l44.217 1.384-3.154 37.02z"/><path fill="#513838" d="M1088.356 846.081l-35.238 78.114-44.217-1.384z"/><path fill="#765353" d="M1242.239 605.62l4.51 162.483-33.104-163.415z"/><path fill="#3A2828" d="M1233.253 592.041l8.986 13.579-28.594-.932z"/><path fill="#8E6363" d="M1278.732 415.841l-55.822 101.585-.727-130.35z"/><path fill="#755252" d="M1100.694 768.142l19.587-161.574 17.181 173.819z"/><path fill="#765353" d="M1100.694 768.142l36.768 12.245-49.106 65.694z"/><path fill="#442F2F" d="M993.717 987.59l31.439-3.744-12.992 44.537z"/><path fill="#835B5B" d="M1261.302 336.638l-39.119 50.438-5.482-74.884z"/><path fill="#7A5555" d="M1261.302 336.638l17.43 79.203-56.549-28.765z"/><path fill="#6B4B4B" d="M1276.882 582.894l-43.629 9.147-10.343-74.615z"/><path fill="#3B2929" d="M1233.253 592.041l43.629-9.147-34.643 22.726z"/><path fill="#2E2020" d="M1025.515 960.049l24.449 1.166-24.808 22.631z"/><path fill="#382727" d="M1008.901 922.811l41.063 38.404-24.449-1.166z"/><path fill="#2C1F1F" d="M1025.156 983.846l-31.439 3.744 31.798-27.541z"/><path fill="#8B6161" d="M1182.627 272.716l-28.972 59.834-7.752-64.349z"/><path fill="#785454" d="M1145.903 268.201l7.752 64.349-60.636 32.474z"/><path fill="#3D2A2A" d="M1081.417 591.435l22.246-65.83 18.993-6.331z"/><path fill="#503838" d="M1103.663 525.605l-12.981-86.739 31.974 80.408z"/><path fill="#3D2B2B" d="M1106.703 605.166l13.578 1.402-19.587 161.574z"/><path fill="#1A1212" d="M1120.281 606.568l-13.578-1.402-25.286-13.731z"/><path fill="#402D2D" d="M1222.91 517.426l18.734-4.055 35.238 69.523z"/><path fill="#392727" d="M1278.732 415.841l-37.088 97.53-18.734 4.055z"/><path fill="#281C1C" d="M1093.019 365.024l-2.337 73.842-9.232-14.468z"/><path fill="#1D1414" d="M1090.682 438.866l12.981 86.739-22.213-101.207z"/><path fill="#2A1D1D" d="M1325.655 960.411l-23.987 1.861 35.541-39.79z"/><path fill="#231818" d="M1301.668 962.272l23.987-1.861 12.777 24.453z"/><path fill="#181818" d="M1242.239 605.62l34.643-22.726-43.096 24.197z"/><path fill="#333" d="M1100.694 768.142l9.87-6.343-3.861-156.633z"/><path fill="#332323" d="M1335.563 1022.322l2.869-37.458 22.49 18.492z"/><path d="M1325.655 960.411l35.267 42.945-22.49-18.492z"/><path fill="#272727" d="M1078.031 842.928l32.533-81.129-9.87 6.343z"/><path fill="#221717" d="M1078.031 842.928l22.663-74.786-12.338 77.939z"/><path fill="#1F1616" d="M1088.356 846.081l-79.455 76.73 69.13-79.883z"/><path fill="#1C1414" d="M1226.174 310.661l35.128 25.977-44.601-24.446z"/><path fill="#6D6D6D" d="M1263.554 412.658l-2.252-76.02-35.128-25.977z"/><path fill="#414141" d="M1263.554 412.658l15.178 3.183-17.43-79.203z"/><path fill="#454545" d="M1278.732 415.841l-15.178-3.183-21.91 100.713z"/><path fill="#1C1414" d="M993.717 987.59l18.447 40.793-10.674-5.238z"/><path fill="#2C2C2C" d="M1242.239 605.62l-8.453 1.471 8.36 174.69z"/><path fill="#1B1B1B" d="M1242.146 781.781l4.603-13.678-4.51-162.483z"/><path fill="#282828" d="M1278.275 846.037l-31.526-77.934-4.603 13.678z"/><path fill="#121212" d="M1100.393 355.902l45.51-87.701-52.884 96.823z"/><path fill="#181818" d="M1081.45 424.398l18.943-68.496-7.374 9.122z"/><path fill="#878787" d="M1145.903 268.201l-45.51 87.701 78.883-65.819z"/><path fill="#151515" d="M1181.729 439.702l.898-166.986-3.351 17.367z"/><path fill="#3D3D3D" d="M1145.903 268.201l33.373 21.882 3.351-17.367z"/><path fill="#1F1F1F" d="M1103.663 525.605l-22.246 65.83 8.241-.082z"/><path fill="#171717" d="M1106.703 605.166l-17.045-13.813-8.241.082z"/><path fill="#2F2F2F" d="M1106.703 605.166l23.844.526-40.889-14.339z"/><path fill="#6C6C6C" d="M1110.564 761.799l19.983-156.107-23.844-.526z"/><path fill="#747474" d="M1081.45 424.398l22.213 101.207 28.488-8.327z"/><path fill="#5C5C5C" d="M1089.658 591.353l42.493-74.075-28.488 8.327z"/><path fill="#292929" d="M1242.146 781.781l24.739 71.208 11.39-6.952zM1266.885 852.989l63.43 69.579-52.04-76.531z"/><path fill="#171717" d="M1278.275 846.037l52.04 76.531 6.894-.086z"/><path fill="#1A1A1A" d="M1325.655 960.411l11.554-37.929-6.894.086z"/><path fill="#262626" d="M1078.031 842.928l-69.13 79.883 15.298-.315z"/><path fill="#767676" d="M1263.554 412.658l-60.243 96.25 38.333 4.463z"/><path fill="#717171" d="M1276.882 582.894l-35.238-69.523-38.333-4.463z"/><path fill="#6F6F6F" d="M1081.45 424.398l50.701 92.88-18.783-78.992z"/><path fill="#828282" d="M1081.45 424.398l31.918 13.888-12.975-82.384z"/><path fill="#A9A9A9" d="M1184.742 604.985l57.404 176.796-8.36-174.69z"/><path fill="#9A9A9A" d="M1110.564 761.799l-32.533 81.129 71.693-76.424z"/><path fill="#9C9C9C" d="M1130.547 605.692l-19.983 156.107 39.16 4.705z"/><path fill="#C1C1C1" d="M1149.724 766.504l35.018-161.519-54.195.707z"/><path fill="#A1A1A1" d="M1202.167 778.742l39.979 3.039-57.404-176.796z"/><path fill="#CBCBCB" d="M1202.167 778.742l-17.425-173.757-35.018 161.519z"/><path fill="#232323" d="M1216.251 416.961l9.923-106.3-9.473 1.531z"/><path fill="#101010" d="M1216.251 416.961l5.932-29.885-15.956 50.573z"/><path fill="#9F9F9F" d="M1216.251 416.961l47.303-4.303-37.38-101.997z"/><path d="M1216.251 416.961l.45-104.769 5.482 74.884z"/><path fill="#9D9D9D" d="M1263.554 412.658l-47.303 4.303-12.94 91.947z"/><path fill="#212121" d="M1025.515 960.049l-31.798 27.541 20.141-5.073z"/><path fill="#373737" d="M1001.49 1023.145l12.368-40.628-20.141 5.073z"/><path fill="#414141" d="M1184.742 604.985l49.044 2.106-.764-13.401z"/><path fill="#656565" d="M1233.022 593.69l43.86-10.796-73.571-73.986z"/><path fill="#383838" d="M1233.786 607.091l43.096-24.197-43.86 10.796z"/><path fill="#292929" d="M1045.907 962.483l-20.392-2.434-11.657 22.468z"/><path fill="#2A2A2A" d="M1008.901 922.811l37.006 39.672-21.708-39.987z"/><path fill="#343434" d="M1025.515 960.049l20.392 2.434-37.006-39.672z"/><path fill="#BEBEBE" d="M1113.368 438.286l18.783 78.992 48.767-71.276z"/><path fill="#181111" d="M1216.251 416.961l-10.024 20.688-25.309 8.353z"/><path fill="#BBB" d="M1216.251 416.961l-35.333 29.041 22.393 62.906z"/><path fill="#DDD" d="M1180.918 446.002l.811-6.3-2.453-149.619z"/><path fill="#BFBFBF" d="M1132.151 517.278l71.16-8.37-22.393-62.906z"/><path fill="#131313" d="M1206.227 437.649l-24.498 2.053-.811 6.3z"/><path fill="#A0A0A0" d="M1145.249 387.7l34.027-97.617-78.883 65.819z"/><path fill="#B5B5B5" d="M1180.918 446.002l-1.642-155.919-34.027 97.617z"/><path fill="#C1C1C1" d="M1113.368 438.286l67.55 7.716-35.669-58.302z"/><path fill="#9D9D9D" d="M1113.368 438.286l31.881-50.586-44.856-31.798z"/><path fill="#575757" d="M1130.547 605.692l12.389-14.281-53.278-.058z"/><path fill="#4F4F4F" d="M1130.547 605.692l54.195-.707-41.806-13.574z"/><path fill="#B3B3B3" d="M1142.936 591.411l60.375-82.503-71.16 8.37z"/><path fill="#C6C6C6" d="M1233.022 593.69l-29.711-84.782-60.375 82.503z"/><path fill="#777" d="M1184.742 604.985l48.28-11.295-90.086-2.279z"/><path fill="#989898" d="M1089.658 591.353l53.278.058-10.785-74.133z"/><path fill="#BFBFBF" d="M1202.167 778.742l-52.443-12.238-5.749 79.689z"/><path fill="#919191" d="M1078.031 842.928l65.944 3.265 5.749-79.689z"/><path fill="#979797" d="M1210.087 856.352l56.798-3.363-24.739-71.208z"/><path fill="#959595" d="M1202.167 778.742l7.92 77.61 32.059-74.571z"/><path fill="#BCBCBC" d="M1210.087 856.352l-7.92-77.61-58.192 67.451z"/><path fill="#5D5D5D" d="M1037.6 1017.242l-23.742-34.725-12.368 40.628z"/><path fill="#7C7C7C" d="M1266.885 852.989l-56.798 3.363 66.929 64.533z"/><path fill="#686868" d="M1330.315 922.568l-63.43-69.579 10.131 67.896z"/><path fill="#171717" d="M1335.563 1022.322l25.359-18.966-69.613 25.436z"/><path fill="#D99" d="M1264.635 1030.092l70.928-7.77-44.254 6.47z"/><path fill="#7A7A7A" d="M1330.315 922.568l-53.299-1.683-26.656 42.337z"/><path fill="#717171" d="M1250.36 963.222l75.295-2.811 4.66-37.843z"/><path fill="#4F4F4F" d="M1325.655 960.411l-75.295 2.811 35.358 22.091z"/><path fill="#7A7A7A" d="M1291.309 1028.792l69.613-25.436-75.204-18.043z"/><path fill="#575757" d="M1325.655 960.411l-39.937 24.902 75.204 18.043z"/><path fill="#959595" d="M1045.907 962.483l90.572-.786-37.48-40.737z"/><path fill="#8C8C8C" d="M1024.199 922.496l21.708 39.987 53.092-41.523z"/><path fill="#767676" d="M1143.975 846.193l-65.944-3.265 20.968 78.032z"/><path fill="#717171" d="M1078.031 842.928l-53.832 79.568 74.8-1.536z"/><path fill="#676767" d="M1045.907 962.483l-32.049 20.034 65.908 1.537z"/><path fill="#8C8C8C" d="M1013.858 982.517l23.742 34.725 42.166-33.188z"/><path fill="#5C5C5C" d="M1045.907 962.483l33.859 21.571 56.713-22.357z"/><path fill="#9D9D9D" d="M1143.975 846.193l62.751 76.801 3.361-66.642z"/><path fill="#A6A6A6" d="M1143.975 846.193l-44.976 74.767 107.727 2.034z"/><path fill="#C7C7C7" d="M1098.999 920.96l37.48 40.737 70.247-38.703z"/><path fill="#B2B2B2" d="M1136.479 961.697l113.881 1.525-43.634-40.228z"/><path fill="#979797" d="M1210.087 856.352l-3.361 66.642 70.29-2.109z"/><path fill="#B8B8B8" d="M1206.726 922.994l43.634 40.228 26.656-42.337z"/><path fill="#C99" d="M1012.164 1028.383l252.471 1.709-126.223-.505z"/><path fill="#DDD" d="M1264.635 1030.092l26.674-1.3-152.897.795z"/><path fill="#141414" d="M1012.164 1028.383l126.248 1.204-136.922-6.442z"/><path fill="#2C2C2C" d="M1001.49 1023.145l136.922 6.442-100.812-12.345z"/><path fill="#ABABAB" d="M1138.412 1029.587l-58.646-45.533-42.166 33.188z"/><path fill="#C3C3C3" d="M1138.412 1029.587l48.884-39.945-107.53-5.588z"/><path fill="#BABABA" d="M1291.309 1028.792l-5.591-43.479-98.422 4.329z"/><path fill="#717171" d="M1136.479 961.697l50.817 27.945 63.064-26.42z"/><path fill="#8D8D8D" d="M1250.36 963.222l-63.064 26.42 98.422-4.329z"/><path fill="#969696" d="M1079.766 984.054l107.53 5.588-50.817-27.945z"/><path fill="#A8A8A8" d="M1187.296 989.642l-48.884 39.945 152.897-.795z"/></g><g><path fill="#C68B8B" d="M805.007 982.595l-48.597 36.01-54.453-34.954z"/><path fill="#C28787" d="M799.776 961.945l-90.442-42.401 86.45-3.059z"/><path fill="#BD8484" d="M756.41 1018.605l-112.091 7.108 57.638-42.062z"/><path fill="#BA8282" d="M705.344 961.197l3.99-41.653 90.442 42.401z"/><path fill="#7E5858" d="M799.776 961.945l5.231 20.65-99.663-21.398z"/><path fill="#7D5757" d="M701.957 983.651l3.387-22.454 99.663 21.398z"/><path fill="#AC7878" d="M709.334 919.544l-3.99 41.653-63.351-41.191z"/><path fill="#2F2121" d="M756.41 1018.605l130.942 10.414-243.033-3.306z"/><path fill="#B57F7F" d="M756.41 1018.605l48.597-36.01 82.345 46.424z"/><path fill="#B17C7C" d="M795.784 916.485l75.016 5.228-71.024 40.232z"/><path fill="#5F4242" d="M814.225 200.809l-.023 24.308-67.952-3.578z"/><path fill="#845C5C" d="M746.25 221.539l67.952 3.578-63.629 34.808z"/><path fill="#775353" d="M746.25 221.539l4.323 38.386-67.487-47.752z"/><path fill="#A77474" d="M644.319 1025.713l-49.484-47.961 107.122 5.899z"/><path fill="#725050" d="M705.344 961.197l-3.387 22.454-107.122-5.899z"/><path fill="#463131" d="M814.225 200.809l50.232 52.895-50.255-28.587z"/><path fill="#6E4D4D" d="M805.007 982.595l-5.231-20.65 113.406 19.781z"/><path fill="#A47373" d="M805.007 982.595l108.175-.869-25.83 47.293z"/><path fill="#956868" d="M799.776 961.945l71.024-40.232 1.666 41.736z"/><path fill="#614444" d="M872.466 963.449l40.716 18.277-113.406-19.781z"/><path fill="#B17C7C" d="M770.497 786.338l25.287 130.147-86.45 3.059z"/><path fill="#A47373" d="M750.573 259.925l-61.014 58.068-6.473-105.82z"/><path fill="#916666" d="M689.559 317.993l-45.222-59.638 38.749-46.182z"/><path fill="#563C3C" d="M619.383 962.9l85.961-1.703-110.509 16.555z"/><path fill="#976969" d="M641.993 920.006l63.351 41.191-85.961 1.703z"/><path fill="#B07B7B" d="M709.334 919.544l13.019-133.532 48.144.326z"/><path fill="#9F6F6F" d="M709.334 919.544l-67.341.462 80.36-133.994z"/><path fill="#815A5A" d="M826.987 305.755l-12.785-80.638 50.255 28.587z"/><path fill="#906464" d="M826.987 305.755l-76.414-45.83 63.629-34.808z"/><path fill="#6E4D4D" d="M823.042 454.489l-70.925 11.357-26.114-18.76z"/><path fill="#CB8E8E" d="M770.497 786.338l-48.144-.326 29.764-320.166z"/><path fill="#B67F7F" d="M726.003 447.086l-6.158-65.351 54.503-9.662z"/><path fill="#CA8D8D" d="M719.845 381.735l-30.286-63.742 84.789 54.08z"/><path fill="#BF8686" d="M726.003 447.086l48.345-75.013 48.694 82.416z"/><path fill="#A77" d="M774.348 372.073l-23.775-112.148 76.414 45.83z"/><path fill="#A77575" d="M750.573 259.925l23.775 112.148-84.789-54.08z"/><path fill="#262626" d="M683.086 212.173l-14.399 11.144 77.563-1.778z"/><path fill="#171010" d="M683.086 212.173l-38.749 46.182 24.35-35.038z"/><path fill="#8D6363" d="M575.481 1015.939l19.354-38.187 49.484 47.961z"/><path fill="#212121" d="M814.225 200.809l13.596 20.744 36.636 32.151z"/><path fill="#5C5C5C" d="M827.821 221.553l-13.596-20.744-67.975 20.73z"/><path fill="#453030" d="M823.042 454.489l-23.032 11.643-47.893-.286z"/><path fill="#C28888" d="M770.497 786.338l-18.38-320.492 47.893.286z"/><path fill="#A47373" d="M921.174 210.783l-56.717 42.921-36.636-32.151z"/><path fill="#A87676" d="M644.337 258.355l-61.965-43.727 86.315 8.689z"/><path fill="#9B6C6C" d="M870.8 921.713l-75.016-5.228 22.964-129.63z"/><path fill="#9D6E6E" d="M795.784 916.485l-25.287-130.147 48.251.517z"/><path fill="#B67F7F" d="M818.748 786.855l-48.251-.517 29.513-320.206z"/><path fill="#362626" d="M770.682 213.791l57.139 7.762-81.571-.014z"/><path fill="#A47272" d="M726.003 447.086l-79.93-1.757 73.772-63.594z"/><path fill="#5D4141" d="M752.117 465.846l-53.736 1.666 27.622-20.426z"/><path fill="#6D4C4C" d="M726.003 447.086l-27.622 20.426-52.308-22.183z"/><path fill="#C28787" d="M722.353 786.012l-23.972-318.5 53.736-1.666z"/><path fill="#7C5757" d="M641.993 920.006l-22.61 42.894-31.584-45.596z"/><path fill="#735050" d="M671.669 786.418l-29.676 133.588-54.194-2.702z"/><path fill="#8C6262" d="M671.669 786.418l50.684-.406-80.36 133.994z"/><path fill="#A47373" d="M671.669 786.418l26.712-318.906 23.972 318.5z"/><path fill="#996B6B" d="M822.102 378.051l-47.754-5.978 52.639-66.318z"/><path fill="#8E6363" d="M823.042 454.489l-48.694-82.416 47.754 5.978z"/><path fill="#B78080" d="M770.682 213.791l-50.927-49.651 60.89 7.471z"/><path fill="#5B4040" d="M629.828 284.246l14.509-25.891 45.222 59.638z"/><path fill="#5B4040" d="M582.372 214.628l61.965 43.727-14.509 25.891z"/><path fill="#614444" d="M925.484 922.511l-54.684-.798-52.052-134.858z"/><path fill="#6A4A4A" d="M872.466 963.449l-1.666-41.736 54.684.798z"/><path fill="#BB8383" d="M770.682 213.791l-78.8.386 27.873-50.037z"/><path fill="#261B1B" d="M746.25 221.539l-54.368-7.362 78.8-.386z"/><path fill="#7C5757" d="M674.157 378.661l15.402-60.668 30.286 63.742z"/><path fill="#7C5757" d="M674.157 378.661l-44.329-94.415 59.731 33.747z"/><path fill="#775353" d="M646.073 445.329l28.084-66.668 45.688 3.074z"/><path fill="#342424" d="M872.466 963.449l35.459-1.93 5.257 20.207z"/><path fill="#523939" d="M925.484 922.511l-17.559 39.008-35.459 1.93z"/><path fill="#735050" d="M671.669 786.418l-1.675-321.146 28.387 2.24z"/><path fill="#533A3A" d="M818.748 786.855l19.338-321.325 1.963 254.765z"/><path fill="#2C1E1E" d="M800.01 466.132l23.032-11.643 15.044 11.041z"/><path fill="#755252" d="M818.748 786.855L800.01 466.132l38.076-.602z"/><path fill="#6E4D4D" d="M818.748 786.855l21.301-66.56 16.244 87.945z"/><path fill="#483232" d="M856.293 808.24l69.191 114.271-106.736-135.656z"/><path fill="#432F2F" d="M895.235 261.962l-30.778-8.258 56.717-42.921z"/><path fill="#6C4C4C" d="M895.235 261.962l-73.133 116.089 4.885-72.296z"/><path fill="#453030" d="M864.457 253.704l30.778 8.258-68.248 43.793z"/><path fill="#6C4B4B" d="M822.102 378.051l55.103 64.692-54.163 11.746z"/><path fill="#312222" d="M823.042 454.489l54.163-11.746-39.119 22.787z"/><path fill="#503838" d="M887.352 1029.019l25.83-47.293 28.071 36.958z"/><path d="M668.687 223.317l-24.842-2.635 102.405.857z"/><path fill="#D99" d="M582.372 214.628l61.473 6.054 24.842 2.635z"/><path fill="#463131" d="M691.882 214.177l54.368 7.362-102.405-.857z"/><path fill="#372626" d="M605.819 258.565l24.009 25.681 44.329 94.415z"/><path fill="#1F1616" d="M629.828 284.246l-24.009-25.681-23.447-43.937z"/><path fill="#797979" d="M643.845 220.682l-61.473-6.054 23.447 43.937z"/><path fill="#171010" d="M827.821 221.553l-57.139-7.762 87.888 6.843z"/><path fill="#868686" d="M858.57 220.634l36.665 41.328 25.939-51.179z"/><path fill="#131313" d="M827.821 221.553l30.749-.919 62.604-9.851z"/><path fill="#704E4E" d="M719.755 164.14l34.458-26.295 26.432 33.766z"/><path fill="#372626" d="M671.669 786.418l-13.693 1.284 12.018-322.43z"/><path fill="#2E2020" d="M671.669 786.418l-83.87 130.886 70.177-129.602z"/><path fill="#221818" d="M820.357 201.118l-39.712-29.507-26.432-33.766z"/><path fill="#533A3A" d="M770.682 213.791l49.675-12.673 38.213 19.516z"/><path fill="#755252" d="M770.682 213.791l9.963-42.18 39.712 29.507z"/><path fill="#261B1B" d="M834.969 381.002l42.236 61.741-55.103-64.692z"/><path fill="#322323" d="M895.235 261.962l-60.266 119.04-12.867-2.951z"/><path fill="#EEE" d="M657.976 787.702l12.404-321.159-.386-1.271z"/><path fill="#201616" d="M674.157 378.661l-28.084 66.668 22.611-68.501z"/><path fill="#241919" d="M691.882 214.177l-5.124-7.061 32.997-42.976z"/><path fill="#202020" d="M686.758 207.116l67.455-69.271-34.458 26.295z"/><path fill="#241919" d="M643.845 220.682l42.913-13.566 5.124 7.061z"/><path fill="#171010" d="M579.676 921.32l78.3-133.618-70.177 129.602z"/><path fill="#201717" d="M619.383 962.9l-24.548 14.852-2.114-15.41z"/><path fill="#2F2121" d="M592.721 962.342l-4.922-45.038 31.584 45.596z"/><path fill="#1E1515" d="M587.799 917.304l4.922 45.038-13.045-41.022z"/><path fill="#2D1F1F" d="M941.253 1018.684l-28.071-36.958 25.302 3.652z"/><path fill="#231919" d="M907.925 961.519l30.559 23.859-25.302-3.652z"/><path fill="#1C1313" d="M632.413 455.055l36.271-78.227-22.611 68.501z"/><path fill="#735050" d="M632.413 455.055l65.968 12.457-28.387-2.24z"/><path d="M669.994 465.272l.386 1.271-37.967-11.488z"/><path fill="#261A1A" d="M646.073 445.329l52.308 22.183-65.968-12.457z"/><path fill="#2D2D2D" d="M830.256 730.066l9.793-9.771-1.963-254.765z"/><path fill="#2D1F1F" d="M575.481 1015.939l-12.428-30.055 31.782-8.132z"/><path fill="#1E1515" d="M563.053 985.884l29.668-23.542 2.114 15.41z"/><path fill="#825B5B" d="M889.761 198.731l5.474 63.231-36.665-41.328z"/><path fill="#2E2E2E" d="M605.819 258.565l68.338 120.096-42.945-96.362z"/><path fill="#1C1313" d="M674.157 378.661l-5.473-1.833-37.472-94.529z"/><path fill="#3D3D3D" d="M834.969 381.002l60.266-119.04-28.084 23.734z"/><path fill="#454545" d="M838.086 465.53l-19.697-.048 11.867 264.584z"/><path d="M887.352 1029.019l-306.719.898 63.686-4.204z"/><path fill="#D99" d="M563.053 985.884l12.428 30.055 5.152 13.978z"/><path fill="#1E1515" d="M575.481 1015.939l68.838 9.774-63.686 4.204z"/><path fill="#474747" d="M579.676 921.32l94.752-132.135-16.452-1.483z"/><path fill="#4E4E4E" d="M674.428 789.185l-4.048-322.642-12.404 321.159z"/><path fill="#727272" d="M754.213 137.845l-67.455 69.271 72.956-29.339z"/><path fill="#5C5C5C" d="M820.357 201.118l-66.144-63.273 5.501 39.932z"/><path fill="#1A1A1A" d="M907.925 961.519l-11.912-.253 42.471 24.112z"/><path fill="#252525" d="M907.925 961.519l17.559-39.008-29.471 38.755z"/><path fill="#313131" d="M830.256 730.066l9.031 77.879.762-87.65z"/><path fill="#363636" d="M839.287 807.945l17.006.295-16.244-87.945z"/><path fill="#5E5E5E" d="M877.205 442.743l-42.236-61.741-30.824-9.398z"/><path fill="#727272" d="M867.151 285.696l-63.006 85.908 30.824 9.398z"/><path fill="#848484" d="M820.357 201.118l-56.488 13.843 94.701 5.673z"/><path fill="#BBB" d="M763.869 214.961l-4.155-37.184-72.956 29.339z"/><path fill="#979797" d="M763.869 214.961l56.488-13.843-60.643-23.341z"/><path fill="#212121" d="M579.047 213.102l26.772 45.463 25.393 23.734z"/><path fill="#825B5B" d="M643.845 220.682l-38.026 37.883-26.772-45.463z"/><path fill="#1C1C1C" d="M838.086 465.53l13.641-10.65-33.338 10.602z"/><path fill="#515151" d="M851.727 454.88l25.478-12.137-73.06-71.139z"/><path fill="#121212" d="M838.086 465.53l39.119-22.787-25.478 12.137z"/><path fill="#7A7A7A" d="M674.428 789.185l28.491-323.231-32.539.589z"/><path fill="#2D2D2D" d="M670.38 466.543l32.539-.589-70.506-10.899z"/><path fill="#787878" d="M668.684 376.828l34.547-3.458-72.019-91.071z"/><path fill="#707070" d="M668.684 376.828l-36.271 78.227 70.818-81.685z"/><path fill="#181818" d="M867.151 285.696l28.084-23.734 27.963-36.348z"/><path fill="#624444" d="M923.198 225.614l-27.963 36.348-5.474-63.231z"/><path fill="#FAA" d="M579.047 213.102l97.387 9.778-32.589-2.198z"/><path fill="#323232" d="M643.845 220.682l32.589 2.198 10.324-15.764z"/><path fill="#474747" d="M686.758 207.116l-10.324 15.764 87.435-7.919z"/><path fill="#161616" d="M858.57 220.634l-94.701-5.673 70.138 7.436z"/><path fill="#8C8C8C" d="M889.761 198.731l-55.754 23.666 89.191 3.217z"/><path fill="#231818" d="M889.761 198.731l-31.191 21.903-24.563 1.763z"/><path fill="#AAA" d="M674.428 789.185l40.614-75.47-12.123-247.761z"/><path fill="#C6C6C6" d="M766.153 466.668l-63.234-.714 12.123 247.761z"/><path fill="#3D3D3D" d="M818.389 465.482l33.338-10.602-85.574 11.788z"/><path fill="#303030" d="M839.287 807.945l67.177 109.227-50.171-108.932z"/><path fill="#222" d="M856.293 808.24l50.171 108.932 19.02 5.339z"/><path fill="#2B2B2B" d="M896.013 961.266l29.471-38.755-19.02-5.339z"/><path fill="#CACACA" d="M776.557 730.106l-10.404-263.438-51.111 247.047z"/><path fill="#A2A2A2" d="M776.557 730.106l53.699-.04-11.867-264.584z"/><path fill="#AFAFAF" d="M818.389 465.482l-52.236 1.186 10.404 263.438z"/><path fill="#9D9D9D" d="M776.557 730.106l62.73 77.839-9.031-77.879z"/><path fill="#8D8D8D" d="M674.428 789.185l32.442 15.509 8.172-90.979z"/><path fill="#B0B0B0" d="M776.557 730.106l-10.511 80.431 73.241-2.592z"/><path fill="#C6C6C6" d="M766.046 810.537l10.511-80.431-61.515-16.391z"/><path fill="#C6C6C6" d="M766.046 810.537l-51.004-96.822-8.172 90.979z"/><path fill="#646464" d="M852.202 261.064l14.949 24.632 56.047-60.082z"/><path fill="#5D5D5D" d="M867.151 285.696l-14.949-24.632-48.057 110.54z"/><path fill="#A9A9A9" d="M852.202 261.064l70.996-35.45-89.191-3.217z"/><path fill="#292929" d="M763.869 214.961l-87.435 7.919 71.925-.272z"/><path fill="#323232" d="M748.359 222.608l85.648-.211-70.138-7.436z"/><path fill="#A7A7A7" d="M790.256 436.795l13.889-65.191-49.826 6.931z"/><path fill="#939393" d="M790.256 436.795l61.471 18.085-47.582-83.276z"/><path fill="#8F8F8F" d="M676.434 222.88l-97.387-9.778 74.48 41.218z"/><path fill="#6B6B6B" d="M631.212 282.299l22.315-27.979-74.48-41.218z"/><path fill="#686868" d="M703.231 373.37l-49.704-119.05-22.315 27.979z"/><path fill="#414141" d="M896.013 961.266l5.151 23.212 37.32.9z"/><path fill="#AFAFAF" d="M717.502 453.493l36.817-74.958-51.088-5.165z"/><path fill="#919191" d="M632.413 455.055l85.089-1.562-14.271-80.123z"/><path fill="#BEBEBE" d="M717.502 453.493l72.754-16.698-35.937-58.26z"/><path fill="#868686" d="M717.502 453.493l134.225 1.387-61.471-18.085z"/><path fill="#404040" d="M766.153 466.668l-48.651-13.175-14.583 12.461z"/><path fill="#838383" d="M851.727 454.88l-134.225-1.387 48.651 13.175z"/><path fill="#494949" d="M702.919 465.954l14.583-12.461-85.089 1.562z"/><path fill="#B4B4B4" d="M754.319 378.535l4.981-76.602-56.069 71.437z"/><path fill="#B4B4B4" d="M759.3 301.933L653.527 254.32l49.704 119.05z"/><path fill="#AAA" d="M754.319 378.535l49.826-6.931-44.845-69.671z"/><path fill="#ACACAC" d="M759.3 301.933l44.845 69.671 48.057-110.54z"/><path fill="#606060" d="M579.676 921.32l13.045 41.022 31.281-44.923z"/><path fill="#535353" d="M579.676 921.32l44.326-3.901 50.426-128.234z"/><path fill="#8B8B8B" d="M706.87 804.694l-32.442-15.509-50.426 128.234z"/><path fill="#DDD" d="M890.215 1028.364l-309.582 1.553 306.719-.898z"/><path fill="#4C4C4C" d="M941.253 1018.684l-2.769-33.306-48.269 42.986z"/><path fill="#CCC" d="M941.253 1018.684l-51.038 9.68-2.863.655z"/><path fill="#5D5D5D" d="M890.215 1028.364l48.269-42.986-37.32-.9z"/><path fill="#6C6C6C" d="M624.002 917.419l-31.281 44.923 64.435-1.485z"/><path fill="#484848" d="M657.156 960.857l-64.435 1.485-29.668 23.542z"/><path fill="#777" d="M835.662 961.728l60.351-.462 10.451-44.094z"/><path fill="#4D4D4D" d="M896.013 961.266l-60.351.462 65.502 22.75z"/><path fill="#5D4141" d="M694.427 198.007l53.932 24.601-71.925.272z"/><path fill="#C99" d="M676.434 222.88l-22.907 31.44 40.9-56.313z"/><path fill="#696969" d="M563.053 985.884l17.58 44.033 49.196-12.661z"/><path fill="#5E5E5E" d="M694.427 198.007l63.22 54.298-9.288-29.697z"/><path fill="#7E7E7E" d="M563.053 985.884l66.776 31.372 11.2-36.964z"/><path fill="#4C4C4C" d="M657.156 960.857l-94.103 25.027 77.976-5.592z"/><path fill="#747474" d="M657.156 960.857l-16.127 19.435 91.987-19.582z"/><path fill="#B4B4B4" d="M733.016 960.71l102.646 1.018-18.495-41.798z"/><path fill="#979797" d="M817.167 919.93l22.12-111.985-73.241 2.592z"/><path fill="#8D8D8D" d="M839.287 807.945l-22.12 111.985 89.297-2.758z"/><path fill="#9B9B9B" d="M835.662 961.728l70.802-44.556-89.297 2.758z"/><path fill="#909090" d="M852.202 261.064l-32.144-49.371-60.758 90.24z"/><path fill="#1C1C1C" d="M852.202 261.064l-18.195-38.667-13.949-10.704z"/><path fill="#251A1A" d="M820.058 211.693l13.949 10.704-85.648.211z"/><path fill="#7D7D7D" d="M820.058 211.693l-71.699 10.915 9.288 29.697z"/><path fill="#B4B4B4" d="M757.647 252.305l1.653 49.628 60.758-90.24z"/><path fill="#767676" d="M835.662 961.728l-12.787 19.597 78.289 3.153z"/><path fill="#6E6E6E" d="M733.016 960.71l89.859 20.615 12.787-19.597z"/><path fill="#A4A4A4" d="M890.215 1028.364l10.949-43.886-78.289-3.153z"/><path fill="#B2B2B2" d="M766.046 810.537l-43.655 110.106 94.776-.713z"/><path fill="#AAA" d="M722.391 920.643l43.655-110.106-59.176-5.843z"/><path fill="#AFAFAF" d="M657.156 960.857l65.235-40.214-98.389-3.224z"/><path fill="#BEBEBE" d="M733.016 960.71l84.151-40.78-94.776.713z"/><path fill="#ACACAC" d="M657.156 960.857l75.86-.147-10.625-40.067z"/><path fill="#A1A1A1" d="M706.87 804.694l-82.868 112.725 98.389 3.224z"/><path fill="#B2B2B2" d="M684.15 226.612l75.15 75.321-1.653-49.628z"/><path fill="#2E2E2E" d="M694.427 198.007l-40.9 56.313 30.623-27.708z"/><path fill="#707070" d="M759.3 301.933l-75.15-75.321-30.623 27.708z"/><path fill="#858585" d="M757.647 252.305l-63.22-54.298-10.277 28.605z"/><path fill="#313131" d="M580.633 1029.917l191.59-5.437-142.394-7.224z"/><path fill="#B2B2B2" d="M772.223 1024.48l117.992 3.884-67.34-47.039z"/><path fill="#161616" d="M890.215 1028.364l-117.992-3.884-191.59 5.437z"/><path fill="#C8C8C8" d="M724.896 992.917l47.327 31.563 50.652-43.155z"/><path fill="#A6A6A6" d="M772.223 1024.48l-47.327-31.563-95.067 24.339z"/><path fill="#868686" d="M724.896 992.917l8.12-32.207-91.987 19.582z"/><path fill="#8F8F8F" d="M733.016 960.71l-8.12 32.207 97.979-11.592z"/><path fill="#B7B7B7" d="M629.829 1017.256l95.067-24.339-83.867-12.625z"/></g><g><path fill="#C48989" d="M228.019 985.505l137.368 1.397-62.83 30.075z"/><path fill="#BA8282" d="M180.722 1025.527l47.297-40.022 74.538 31.472z"/><path fill="#C18787" d="M228.785 911.023l93.695 7.712-86.248 42.134z"/><path fill="#775353" d="M228.019 985.505l8.213-24.636 109.004-3.163z"/><path fill="#B07B7B" d="M236.232 960.869l86.248-42.134 22.756 38.971z"/><path fill="#8A6161" d="M228.019 985.505l117.217-27.799 20.151 29.196z"/><path fill="#B98181" d="M228.019 985.505l-47.297 40.022-55.57-35.687z"/><path fill="#A37272" d="M302.557 1016.977l62.83-30.075 30.507 43.106z"/><path fill="#3C2A2A" d="M302.557 1016.977l93.337 13.031-215.172-4.481z"/><path fill="#C38888" d="M196.431 97.763l92.405 21.701-54.534 31.83z"/><path fill="#B07B7B" d="M139.828 918.861l88.957-7.838 7.447 49.846z"/><path fill="#A87676" d="M288.836 119.464l-92.405-21.701 89.38-18.952z"/><path fill="#A57373" d="M288.836 119.464l-3.025-40.653 79.483 32.992z"/><path fill="#A77" d="M322.48 918.735l85.879-7.156-63.123 46.127z"/><path fill="#A07070" d="M140.768 957.914l-.94-39.053 96.404 42.008z"/><path fill="#6D4C4C" d="M140.768 957.914l95.464 2.955-8.213 24.636z"/><path fill="#755252" d="M125.152 989.84l15.616-31.926 87.251 27.591z"/><path fill="#B27D7D" d="M234.302 151.294l-83.06-18.99 45.189-34.541z"/><path fill="#AE7A7A" d="M267.397 795.235l55.083 123.5-93.695-7.712z"/><path fill="#966969" d="M395.894 1030.008l-30.507-43.106 92.087-.075z"/><path fill="#654747" d="M345.236 957.706l112.238 29.121-92.087.075z"/><path fill="#875E5E" d="M98.6 1028.475l26.552-38.635 55.57 35.687z"/><path d="M180.722 1025.527l215.172 4.481-297.294-1.533z"/><path fill="#C88C8C" d="M267.397 795.235L247.42 674.482l39.256 7.618z"/><path fill="#AD7979" d="M279.72 251.32l-45.418-100.026 54.534-31.83z"/><path fill="#A57373" d="M288.836 119.464l76.458-7.661L279.72 251.32z"/><path fill="#B17C7C" d="M256.947 337.86l-75.241-9.746 98.014-76.794z"/><path fill="#BE8585" d="M279.72 251.32l60.743 75.913-83.516 10.627z"/><path fill="#CB8E8E" d="M286.676 682.1l-39.256-7.618 44.505-330.557z"/><path fill="#CB8E8E" d="M247.42 674.482l-.458-329.298 44.963-1.259z"/><path fill="#382727" d="M256.947 337.86l-9.985 7.324-65.256-17.07z"/><path fill="#2E2020" d="M256.947 337.86l34.978 6.065-44.963 1.259z"/><path fill="#845C5C" d="M429.149 960.247l-83.913-2.541 63.123-46.127z"/><path fill="#543A3A" d="M345.236 957.706l83.913 2.541 28.325 26.58z"/><path fill="#9A6C6C" d="M350.349 789.053l58.01 122.526-85.879 7.156z"/><path fill="#9E6E6E" d="M322.48 918.735l-55.083-123.5 82.952-6.182z"/><path fill="#BB8383" d="M267.397 795.235L286.676 682.1l63.673 106.953z"/><path fill="#986A6A" d="M183.913 791.88l44.872 119.143-88.957 7.838z"/><path fill="#9A6B6B" d="M228.785 911.023L183.913 791.88l83.484 3.355z"/><path fill="#B98181" d="M267.397 795.235l-83.484-3.355 63.507-117.398z"/><path fill="#725050" d="M140.768 957.914l-54.384-41.598 53.444 2.545z"/><path fill="#6C4C4C" d="M183.913 791.88l-44.085 126.981-53.444-2.545z"/><path fill="#9B6C6C" d="M151.242 132.304l83.06 18.99-7.329 104.214z"/><path fill="#B37D7D" d="M226.973 255.508l52.747-4.188-98.014 76.794z"/><path fill="#A47373" d="M226.973 255.508l7.329-104.214L279.72 251.32z"/><path fill="#B67F7F" d="M183.913 791.88l18.715-113.855 44.792-3.543z"/><path fill="#745151" d="M64.072 987.573l61.08 2.267-26.552 38.635z"/><path fill="#583D3D" d="M140.768 957.914l-15.616 31.926-61.08-2.267z"/><path fill="#BC8484" d="M350.349 789.053L286.676 682.1l49.779-31.228z"/><path fill="#BA8282" d="M286.676 682.1l5.249-338.175 44.53 306.947z"/><path fill="#8D6363" d="M111.054 99.814l85.377-2.051-45.189 34.541z"/><path fill="#B47E7E" d="M209.438 360.924l37.524-15.74.458 329.298z"/><path fill="#B78080" d="M209.438 360.924l37.982 313.558-44.792 3.543z"/><path fill="#6B4B4B" d="M412.852 85.637l2.873 33.653-50.431-7.487z"/><path fill="#5B3F3F" d="M365.294 111.803l-79.483-32.992 127.041 6.826z"/><path fill="#9C6D6D" d="M279.72 251.32l59.95 1.289.793 74.624z"/><path fill="#815A5A" d="M339.67 252.609l25.624-140.806 50.431 7.487z"/><path fill="#976A6A" d="M279.72 251.32l85.574-139.517-25.624 140.806z"/><path fill="#493333" d="M256.947 337.86l83.516-10.627-2.443 17.879z"/><path fill="#AB7878" d="M336.455 650.872l-44.53-306.947 46.095 1.187z"/><path fill="#463131" d="M256.947 337.86l81.073 7.252-46.095-1.187z"/><path fill="#694949" d="M429.149 960.247l-20.79-48.668 51.923 2.35z"/><path fill="#593E3E" d="M460.282 913.929l-51.923-2.35-58.01-122.526z"/><path fill="#432F2F" d="M196.431 97.763l5.183-36.202 84.197 17.25z"/><path fill="#412D2D" d="M201.614 61.561l-5.183 36.202-85.377 2.051z"/><path fill="#5E4242" d="M111.054 99.814l40.188 32.49-36.626 16.658z"/><path fill="#583D3D" d="M339.67 252.609l76.055-133.319 6.103 35.623z"/><path fill="#352525" d="M95.253 959.922l45.515-2.008-76.696 29.659z"/><path fill="#563C3C" d="M95.253 959.922l-8.869-43.606 54.384 41.598z"/><path fill="#795454" d="M186.904 254.743l40.069.765-45.267 72.606z"/><path fill="#735151" d="M151.242 132.304l75.731 123.204-40.069-.765z"/><path fill="#5D4141" d="M114.616 148.962l36.626-16.658 35.662 122.439z"/><path fill="#352525" d="M246.962 345.184l-60.829-1.229-4.427-15.841z"/><path fill="#835C5C" d="M246.962 345.184l-37.524 15.74-23.305-16.969z"/><path fill="#5F4242" d="M457.474 986.827l19.934 38.867-81.514 4.314z"/><path fill="#725050" d="M174.361 670.455l28.267 7.57-18.715 113.855z"/><path fill="#765353" d="M186.133 343.955l23.305 16.969-35.077 309.531z"/><path fill="#704E4E" d="M174.361 670.455l35.077-309.531-6.81 317.101z"/><path fill="#634545" d="M153.947 301.698l32.957-46.955-5.198 73.371z"/><path fill="#684949" d="M336.455 650.872l1.565-305.76 28.543 332.155z"/><path fill="#614444" d="M366.563 677.267l-16.214 111.786-13.894-138.181z"/><path fill="#483232" d="M421.828 154.913l-66.661 100.346-15.497-2.65z"/><path fill="#2E2020" d="M285.811 78.811l-84.197-17.25 107.592-6.437z"/><path fill="#342424" d="M285.811 78.811l23.395-23.687 103.646 30.513z"/><path fill="#442F2F" d="M340.463 327.233l57.162 7.26-59.605 10.619z"/><path fill="#644646" d="M397.625 334.493l-57.162-7.26-.793-74.624z"/><path fill="#432F2F" d="M355.167 255.259l42.458 79.234-57.955-81.884z"/><path fill="#5B4040" d="M385.603 792.478l-35.254-3.425 16.214-111.786z"/><path fill="#4A3333" d="M460.282 913.929L350.349 789.053l35.254 3.425z"/><path fill="#1C1414" d="M338.02 345.112l59.605-10.619-40.699 10.579z"/><path fill="#4B3535" d="M366.563 677.267L338.02 345.112l18.906-.04z"/><path fill="#302121" d="M71.564 918.359l14.82-2.043 8.869 43.606z"/><path fill="#402D2D" d="M58.06 1020.808l6.012-33.235 34.528 40.902z"/><path fill="#3A2828" d="M415.725 119.29l27.987-11.364-21.884 46.987z"/><path fill="#442F2F" d="M443.712 107.926l-27.987 11.364-2.873-33.653z"/><path fill="#261A1A" d="M429.149 960.247l19.317-.147 9.008 26.727z"/><path fill="#312222" d="M448.466 960.1l-19.317.147 31.133-46.318z"/><path fill="#281C1C" d="M71.564 918.359l81.288-124.649-66.468 122.606z"/><path fill="#3F2C2C" d="M152.852 793.71l31.061-1.83-97.529 124.436z"/><path fill="#4D3636" d="M183.913 791.88l-31.061 1.83 21.509-123.255z"/><path d="M186.133 343.955l-11.772 326.5-1.225-6.151zM173.136 664.304l11.809-320.011 1.188-.338zM152.852 793.71l20.284-129.406 1.225 6.151zM460.282 913.929l-74.679-121.451 79.572 126.2z"/><path fill="#1C1414" d="M465.175 918.678L448.466 960.1l11.816-46.171z"/><path fill="#3F2C2C" d="M147.185 333.999l6.762-32.301 27.759 26.416z"/><path fill="#2D1F1F" d="M181.706 328.114l4.427 15.841-38.948-9.956z"/><path fill="#FAA" d="M186.133 343.955l-1.188.338-37.76-10.294z"/><path fill="#1B1B1B" d="M385.603 792.478l-19.04-115.211-1.752 13.405z"/><path fill="#141414" d="M366.563 677.267l-9.637-332.195 7.885 345.6z"/><path d="M186.904 254.743l-32.957 46.955 31.727-49.096z"/><path fill="#DDD" d="M186.904 254.743l-1.23-2.141-71.058-103.64z"/><path fill="#352525" d="M477.408 1025.694l-19.934-38.867 32.214 4.006z"/><path fill="#241919" d="M457.474 986.827l-9.008-26.727 41.222 30.733z"/><path fill="#201616" d="M118.233 85.456l83.381-23.895-90.56 38.253z"/><path fill="#D99" d="M118.233 85.456l-7.179 14.358-12.009 20.266z"/><path fill="#261B1B" d="M114.616 148.962L99.045 120.08l12.009-20.266z"/><path fill="#131313" d="M99.045 120.08l15.571 28.882 71.058 103.64z"/><path fill="#111" d="M420.815 153.079l1.013 1.834 21.884-46.987z"/><path fill="#111" d="M355.167 255.259l66.661-100.346-1.013-1.834z"/><path fill="#181010" d="M58.06 1020.808l-.938-35.383 6.95 2.148z"/><path d="M95.253 959.922l-31.181 27.651-6.95-2.148zM309.206 55.124l-107.592 6.437 46.325-4.722z"/><path fill="#181818" d="M247.939 56.839l-46.325 4.722-83.381 23.895z"/><path fill="#141414" d="M355.167 255.259l26.531 54.858 15.927 24.376z"/><path fill="#212121" d="M184.945 344.293l19.921.656-57.681-10.95z"/><path fill="#505050" d="M364.811 690.672l-7.885-345.6-23.37-1.244z"/><path fill="#232323" d="M356.926 345.072l40.699-10.579-64.069 9.335z"/><path fill="#373737" d="M355.167 255.259l65.648-102.18-87.995 102.023z"/><path fill="#363636" d="M355.167 255.259l-22.347-.157 48.878 55.015z"/><path fill="#414141" d="M365.907 794.259l19.696-1.781-20.792-101.806z"/><path fill="#656565" d="M195.122 700.966l9.744-356.017-19.921-.656z"/><path fill="#636363" d="M184.945 344.293l-11.809 320.011 21.986 36.662z"/><path fill="#686868" d="M195.122 700.966l-21.986-36.662-20.284 129.406z"/><path fill="#121212" d="M102.396 959.553l-7.143.369-38.131 25.503z"/><path fill="#181818" d="M95.253 959.922l7.143-.369-30.832-41.194z"/><path fill="#727272" d="M338.02 685.716l26.791 4.956-31.255-346.844z"/><path fill="#6E6E6E" d="M365.907 794.259l-1.096-103.587-26.791-4.956z"/><path fill="#3E3E3E" d="M182.679 301.526l2.995-48.924-31.727 49.096z"/><path fill="#797979" d="M185.674 252.602l-2.995 48.924L229.22 254.1z"/><path fill="#383838" d="M182.679 301.526l-28.732.172-6.762 32.301z"/><path fill="#585858" d="M152.852 793.71l34.662 2.19 7.608-94.934z"/><path fill="#FFF" d="M412.852 85.637L309.206 55.124l83.525 26.604z"/><path fill="#292929" d="M309.206 55.124l-61.267 1.715 144.792 24.889z"/><path fill="#151515" d="M392.731 81.728l50.981 26.198-30.86-22.289z"/><path fill="#AEAEAE" d="M240.136 704.707l-35.27-359.758-9.744 356.017z"/><path fill="#AFAFAF" d="M240.136 704.707l6.115-359.298-41.385-.46z"/><path fill="#ACACAC" d="M187.514 795.9l52.622-91.193-45.014-3.741z"/><path fill="#3B3B3B" d="M448.466 960.1l16.709-41.422-43.513 41.951z"/><path fill="#2A2A2A" d="M421.662 960.629l68.026 30.204-41.222-30.733z"/><path fill="#B5B5B5" d="M289.679 680.625l43.877-336.797-42.916 2.242z"/><path fill="#CBCBCB" d="M240.136 704.707l49.543-24.082-43.428-335.216z"/><path fill="#CBCBCB" d="M289.679 680.625l.961-334.555-44.389-.661z"/><path fill="#B7B7B7" d="M289.679 680.625l48.341 5.091-4.464-341.888z"/><path fill="#3C3C3C" d="M71.564 918.359l30.832 41.194-5.403-44.036z"/><path fill="#4C4C4C" d="M152.852 793.71L96.993 915.517 187.514 795.9z"/><path fill="#323232" d="M152.852 793.71L71.564 918.359l25.429-2.842z"/><path fill="#999" d="M326.005 792.904l39.902 1.355-27.887-108.543z"/><path fill="#B3B3B3" d="M326.005 792.904l12.015-107.188-48.341-5.091z"/><path fill="#3C3C3C" d="M465.175 918.678l-79.572-126.2 52.259 122.308z"/><path fill="#4A4A4A" d="M465.175 918.678l-27.313-3.892-16.2 45.843z"/><path fill="#3B3B3B" d="M365.907 794.259l71.955 120.527-52.259-122.308z"/><path fill="#343434" d="M333.556 343.828l64.069-9.335-73.133.257z"/><path fill="#A4A4A4" d="M277.32 253.18l47.172 81.57 8.328-79.648z"/><path fill="#5F5F5F" d="M397.625 334.493l-15.927-24.376-57.206 24.633z"/><path fill="#303030" d="M333.556 343.828l-9.064-9.078-33.852 11.32z"/><path fill="#919191" d="M324.492 334.75l57.206-24.633-48.878-55.015z"/><path fill="#BBB" d="M264.311 799.952l-24.175-95.245-52.622 91.193z"/><path fill="#C2C2C2" d="M264.311 799.952l61.694-7.048-36.326-112.279z"/><path fill="#C6C6C6" d="M289.679 680.625l-49.543 24.082 24.175 95.245z"/><path fill="#767676" d="M185.674 252.602l43.546 1.498-88.467-134.226z"/><path fill="#585858" d="M185.674 252.602l-44.921-132.728-41.708.206z"/><path fill="#5B5B5B" d="M118.233 85.456L99.045 120.08l41.708-.206z"/><path fill="#8C8C8C" d="M147.185 333.999l83.599-2.83-48.105-29.643z"/><path fill="#434343" d="M246.251 345.409l-15.467-14.24-25.918 13.78z"/><path fill="#BFBFBF" d="M230.784 331.169l93.708 3.581-47.172-81.57z"/><path fill="#AFAFAF" d="M229.22 254.1l1.564 77.069 46.536-77.989z"/><path fill="#505050" d="M290.64 346.07l33.852-11.32-93.708-3.581z"/><path fill="#A4A4A4" d="M229.22 254.1l-46.541 47.426 48.105 29.643z"/><path fill="#515151" d="M290.64 346.07l-59.856-14.901 15.467 14.24z"/><path fill="#4C4C4C" d="M204.866 344.949l25.918-13.78-83.599 2.83z"/><path fill="#505050" d="M443.712 107.926l-48.173 3.65 25.276 41.503z"/><path fill="#4D4D4D" d="M443.712 107.926l-50.981-26.198 2.808 29.848z"/><path fill="#656565" d="M395.539 111.576L332.82 255.102l87.995-102.023z"/><path fill="#2E2E2E" d="M247.939 56.839L118.233 85.456l67.965.887z"/><path fill="#616161" d="M186.198 86.343l-67.965-.887 22.52 34.418z"/><path fill="#3D3D3D" d="M489.688 990.833l-68.026-30.204 11.87 21.351z"/><path fill="#D99" d="M395.894 1030.008l-284.259-.89-13.035-.643z"/><path fill="#484848" d="M111.635 1029.118l-54.513-43.693.938 35.383z"/><path fill="#DDD" d="M98.6 1028.475l13.035.643-53.575-8.31z"/><path fill="#7A7A7A" d="M102.396 959.553l70.015.098-75.418-44.134z"/><path fill="#545454" d="M421.662 960.629l-72.654-1.565 84.524 22.916z"/><path fill="#484848" d="M102.396 959.553l21.798 24.046 48.217-23.948z"/><path fill="#6A6A6A" d="M57.122 985.425l54.513 43.693 12.559-45.519z"/><path fill="#4C4C4C" d="M102.396 959.553l-45.274 25.872 67.072-1.826z"/><path fill="#818181" d="M392.731 81.728l-125.19 9.937 127.998 19.911z"/><path fill="#414141" d="M247.939 56.839l19.602 34.826 125.19-9.937z"/><path fill="#454545" d="M247.939 56.839l-61.741 29.504 81.343 5.322z"/><path fill="#EEE" d="M395.894 1030.008l8.929-2.175-293.188 1.285z"/><path fill="#6B6B6B" d="M489.688 990.833l-56.156-8.853-28.709 45.853z"/><path fill="#DDD" d="M404.823 1027.833l-8.929 2.175 81.514-4.314z"/><path fill="#3C3C3C" d="M477.408 1025.694l12.28-34.861-84.865 37z"/><path fill="#7D7D7D" d="M187.514 795.9L96.993 915.517l64.839-.844z"/><path fill="#898989" d="M161.832 914.673l-64.839.844 75.418 44.134z"/><path fill="#A7A7A7" d="M277.32 253.18l-62.428-131.356L229.22 254.1z"/><path fill="#A1A1A1" d="M267.541 91.665l-81.343-5.322 28.694 35.481z"/><path fill="#A1A1A1" d="M186.198 86.343l-45.445 33.531 74.139 1.95z"/><path fill="#959595" d="M214.892 121.824l-74.139-1.95L229.22 254.1z"/><path fill="#CBCBCB" d="M309.558 126.88l-42.017-35.215-52.649 30.159z"/><path fill="#A9A9A9" d="M309.558 126.88l85.981-15.304-127.998-19.911z"/><path fill="#AFAFAF" d="M277.32 253.18l32.238-126.3-94.666-5.056z"/><path fill="#9D9D9D" d="M309.558 126.88l-32.238 126.3 55.5 1.922z"/><path fill="#989898" d="M332.82 255.102l62.719-143.526-85.981 15.304z"/><path fill="gray" d="M370.025 916.037l-4.118-121.778-39.902-1.355z"/><path fill="#8D8D8D" d="M349.008 959.064l72.654 1.565-51.637-44.592z"/><path fill="#7E7E7E" d="M437.862 914.786l-71.955-120.527 4.118 121.778z"/><path fill="#8B8B8B" d="M370.025 916.037l51.637 44.592 16.2-45.843z"/><path fill="#626262" d="M349.008 959.064l14.87 25.922 69.654-3.006z"/><path fill="#9C9C9C" d="M363.878 984.986l40.945 42.847 28.709-45.853z"/><path fill="#767676" d="M349.008 959.064l-89.994-.909 104.864 26.831z"/><path fill="#B9B9B9" d="M349.008 959.064l21.017-43.027-109.971-.707z"/><path fill="#A0A0A0" d="M260.054 915.33l4.257-115.378-76.797-4.052z"/><path fill="#B1B1B1" d="M259.014 958.155l1.04-42.825-87.643 44.321z"/><path fill="#B4B4B4" d="M259.014 958.155l89.994.909-88.954-43.734z"/><path fill="#A0A0A0" d="M187.514 795.9l-25.682 118.773 98.222.657z"/><path fill="#B4B4B4" d="M172.411 959.651l87.643-44.321-98.222-.657z"/><path fill="#A6A6A6" d="M264.311 799.952l-4.257 115.378 65.951-122.426z"/><path fill="#A7A7A7" d="M260.054 915.33l109.971.707-44.02-123.133z"/><path fill="#6F6F6F" d="M259.014 958.155l-86.603 1.496 79.013 19.259z"/><path fill="#7B7B7B" d="M259.014 958.155l-7.59 20.755 112.454 6.076z"/><path fill="#7C7C7C" d="M124.194 983.599l127.23-4.689-79.013-19.259z"/><path fill="#B0B0B0" d="M111.635 1029.118l133.724-15.601-121.165-29.918z"/><path fill="#C6C6C6" d="M245.359 1013.517l118.519-28.531-112.454-6.076z"/><path fill="#B5B5B5" d="M245.359 1013.517l159.464 14.316-40.945-42.847z"/><path fill="#B8B8B8" d="M124.194 983.599l121.165 29.918 6.065-34.607z"/><path fill="#373737" d="M111.635 1029.118l293.188-1.285-159.464-14.316z"/></g></svg>