<svg xmlns="http://www.w3.org/2000/svg" xmlns:xlink="http://www.w3.org/1999/xlink" version="1.1" id="Layer_1" x="0px" y="0px" viewBox="0 0 2674.243 1085.728" enable-background="new 0 0 2674.243 1085.728" xml:space="preserve">

<g id="SKing">
	<polygon fill="#C48989" points="228.019,985.505 365.387,986.902 302.557,1016.977  "/>
	<polygon fill="#BA8282" points="180.722,1025.527 228.019,985.505 302.557,1016.977  "/>
	<polygon fill="#C18787" points="228.785,911.023 322.48,918.735 236.232,960.869  "/>
	<polygon fill="#775353" points="228.019,985.505 236.232,960.869 345.236,957.706  "/>
	<polygon fill="#B07B7B" points="236.232,960.869 322.48,918.735 345.236,957.706  "/>
	<polygon fill="#8A6161" points="228.019,985.505 345.236,957.706 365.387,986.902  "/>
	<polygon fill="#B98181" points="228.019,985.505 180.722,1025.527 125.152,989.84  "/>
	<polygon fill="#A37272" points="302.557,1016.977 365.387,986.902 395.894,1030.008  "/>
	<polygon fill="#3C2A2A" points="302.557,1016.977 395.894,1030.008 180.722,1025.527  "/>
	<polygon fill="#C38888" points="196.431,97.763 288.836,119.464 234.302,151.294  "/>
	<polygon fill="#B07B7B" points="139.828,918.861 228.785,911.023 236.232,960.869  "/>
	<polygon fill="#A87676" points="288.836,119.464 196.431,97.763 285.811,78.811  "/>
	<polygon fill="#A57373" points="288.836,119.464 285.811,78.811 365.294,111.803  "/>
	<polygon fill="#AA7777" points="322.48,918.735 408.359,911.579 345.236,957.706  "/>
	<polygon fill="#A07070" points="140.768,957.914 139.828,918.861 236.232,960.869  "/>
	<polygon fill="#6D4C4C" points="140.768,957.914 236.232,960.869 228.019,985.505  "/>
	<polygon fill="#755252" points="125.152,989.84 140.768,957.914 228.019,985.505  "/>
	<polygon fill="#B27D7D" points="234.302,151.294 151.242,132.304 196.431,97.763  "/>
	<polygon fill="#AE7A7A" points="267.397,795.235 322.48,918.735 228.785,911.023  "/>
	<polygon fill="#966969" points="395.894,1030.008 365.387,986.902 457.474,986.827  "/>
	<polygon fill="#654747" points="345.236,957.706 457.474,986.827 365.387,986.902  "/>
	<polygon fill="#875E5E" points="98.6,1028.475 125.152,989.84 180.722,1025.527  "/>
	<polygon points="180.722,1025.527 395.894,1030.008 98.6,1028.475  "/>
	<polygon fill="#C88C8C" points="267.397,795.235 247.42,674.482 286.676,682.1  "/>
	<polygon fill="#AD7979" points="279.72,251.32 234.302,151.294 288.836,119.464  "/>
	<polygon fill="#A57373" points="288.836,119.464 365.294,111.803 279.72,251.32  "/>
	<polygon fill="#B17C7C" points="256.947,337.86 181.706,328.114 279.72,251.32  "/>
	<polygon fill="#BE8585" points="279.72,251.32 340.463,327.233 256.947,337.86  "/>
	<polygon fill="#CB8E8E" points="286.676,682.1 247.42,674.482 291.925,343.925  "/>
	<polygon fill="#CB8E8E" points="247.42,674.482 246.962,345.184 291.925,343.925  "/>
	<polygon fill="#382727" points="256.947,337.86 246.962,345.184 181.706,328.114  "/>
	<polygon fill="#2E2020" points="256.947,337.86 291.925,343.925 246.962,345.184  "/>
	<polygon fill="#845C5C" points="429.149,960.247 345.236,957.706 408.359,911.579  "/>
	<polygon fill="#543A3A" points="345.236,957.706 429.149,960.247 457.474,986.827  "/>
	<polygon fill="#9A6C6C" points="350.349,789.053 408.359,911.579 322.48,918.735  "/>
	<polygon fill="#9E6E6E" points="322.48,918.735 267.397,795.235 350.349,789.053  "/>
	<polygon fill="#BB8383" points="267.397,795.235 286.676,682.1 350.349,789.053  "/>
	<polygon fill="#986A6A" points="183.913,791.88 228.785,911.023 139.828,918.861  "/>
	<polygon fill="#9A6B6B" points="228.785,911.023 183.913,791.88 267.397,795.235  "/>
	<polygon fill="#B98181" points="267.397,795.235 183.913,791.88 247.42,674.482  "/>
	<polygon fill="#725050" points="140.768,957.914 86.384,916.316 139.828,918.861  "/>
	<polygon fill="#6C4C4C" points="183.913,791.88 139.828,918.861 86.384,916.316  "/>
	<polygon fill="#9B6C6C" points="151.242,132.304 234.302,151.294 226.973,255.508  "/>
	<polygon fill="#B37D7D" points="226.973,255.508 279.72,251.32 181.706,328.114  "/>
	<polygon fill="#A47373" points="226.973,255.508 234.302,151.294 279.72,251.32  "/>
	<polygon fill="#B67F7F" points="183.913,791.88 202.628,678.025 247.42,674.482  "/>
	<polygon fill="#745151" points="64.072,987.573 125.152,989.84 98.6,1028.475  "/>
	<polygon fill="#583D3D" points="140.768,957.914 125.152,989.84 64.072,987.573  "/>
	<polygon fill="#BC8484" points="350.349,789.053 286.676,682.1 336.455,650.872  "/>
	<polygon fill="#BA8282" points="286.676,682.1 291.925,343.925 336.455,650.872  "/>
	<polygon fill="#8D6363" points="111.054,99.814 196.431,97.763 151.242,132.304  "/>
	<polygon fill="#B47E7E" points="209.438,360.924 246.962,345.184 247.42,674.482  "/>
	<polygon fill="#B78080" points="209.438,360.924 247.42,674.482 202.628,678.025  "/>
	<polygon fill="#6B4B4B" points="412.852,85.637 415.725,119.29 365.294,111.803  "/>
	<polygon fill="#5B3F3F" points="365.294,111.803 285.811,78.811 412.852,85.637  "/>
	<polygon fill="#9C6D6D" points="279.72,251.32 339.67,252.609 340.463,327.233  "/>
	<polygon fill="#815A5A" points="339.67,252.609 365.294,111.803 415.725,119.29  "/>
	<polygon fill="#976A6A" points="279.72,251.32 365.294,111.803 339.67,252.609  "/>
	<polygon fill="#493333" points="256.947,337.86 340.463,327.233 338.02,345.112  "/>
	<polygon fill="#AB7878" points="336.455,650.872 291.925,343.925 338.02,345.112  "/>
	<polygon fill="#463131" points="256.947,337.86 338.02,345.112 291.925,343.925  "/>
	<polygon fill="#694949" points="429.149,960.247 408.359,911.579 460.282,913.929  "/>
	<polygon fill="#593E3E" points="460.282,913.929 408.359,911.579 350.349,789.053  "/>
	<polygon fill="#432F2F" points="196.431,97.763 201.614,61.561 285.811,78.811  "/>
	<polygon fill="#412D2D" points="201.614,61.561 196.431,97.763 111.054,99.814  "/>
	<polygon fill="#5E4242" points="111.054,99.814 151.242,132.304 114.616,148.962  "/>
	<polygon fill="#583D3D" points="339.67,252.609 415.725,119.29 421.828,154.913  "/>
	<polygon fill="#352525" points="95.253,959.922 140.768,957.914 64.072,987.573  "/>
	<polygon fill="#563C3C" points="95.253,959.922 86.384,916.316 140.768,957.914  "/>
	<polygon fill="#795454" points="186.904,254.743 226.973,255.508 181.706,328.114  "/>
	<polygon fill="#735151" points="151.242,132.304 226.973,255.508 186.904,254.743  "/>
	<polygon fill="#5D4141" points="114.616,148.962 151.242,132.304 186.904,254.743  "/>
	<polygon fill="#352525" points="246.962,345.184 186.133,343.955 181.706,328.114  "/>
	<polygon fill="#835C5C" points="246.962,345.184 209.438,360.924 186.133,343.955  "/>
	<polygon fill="#5F4242" points="457.474,986.827 477.408,1025.694 395.894,1030.008  "/>
	<polygon fill="#725050" points="174.361,670.455 202.628,678.025 183.913,791.88  "/>
	<polygon fill="#765353" points="186.133,343.955 209.438,360.924 174.361,670.455  "/>
	<polygon fill="#704E4E" points="174.361,670.455 209.438,360.924 202.628,678.025  "/>
	<polygon fill="#634545" points="153.947,301.698 186.904,254.743 181.706,328.114  "/>
	<polygon fill="#684949" points="336.455,650.872 338.02,345.112 366.563,677.267  "/>
	<polygon fill="#614444" points="366.563,677.267 350.349,789.053 336.455,650.872  "/>
	<polygon fill="#483232" points="421.828,154.913 355.167,255.259 339.67,252.609  "/>
	<polygon fill="#2E2020" points="285.811,78.811 201.614,61.561 309.206,55.124  "/>
	<polygon fill="#342424" points="285.811,78.811 309.206,55.124 412.852,85.637  "/>
	<polygon fill="#442F2F" points="340.463,327.233 397.625,334.493 338.02,345.112  "/>
	<polygon fill="#644646" points="397.625,334.493 340.463,327.233 339.67,252.609  "/>
	<polygon fill="#432F2F" points="355.167,255.259 397.625,334.493 339.67,252.609  "/>
	<polygon fill="#5B4040" points="385.603,792.478 350.349,789.053 366.563,677.267  "/>
	<polygon fill="#4A3333" points="460.282,913.929 350.349,789.053 385.603,792.478  "/>
	<polygon fill="#1C1414" points="338.02,345.112 397.625,334.493 356.926,345.072  "/>
	<polygon fill="#4B3535" points="366.563,677.267 338.02,345.112 356.926,345.072  "/>
	<polygon fill="#302121" points="71.564,918.359 86.384,916.316 95.253,959.922  "/>
	<polygon fill="#402D2D" points="58.06,1020.808 64.072,987.573 98.6,1028.475  "/>
	<polygon fill="#3A2828" points="415.725,119.29 443.712,107.926 421.828,154.913  "/>
	<polygon fill="#442F2F" points="443.712,107.926 415.725,119.29 412.852,85.637  "/>
	<polygon fill="#261A1A" points="429.149,960.247 448.466,960.1 457.474,986.827  "/>
	<polygon fill="#312222" points="448.466,960.1 429.149,960.247 460.282,913.929  "/>
	<polygon fill="#281C1C" points="71.564,918.359 152.852,793.71 86.384,916.316  "/>
	<polygon fill="#3F2C2C" points="152.852,793.71 183.913,791.88 86.384,916.316  "/>
	<polygon fill="#4D3636" points="183.913,791.88 152.852,793.71 174.361,670.455  "/>
	<polygon points="186.133,343.955 174.361,670.455 173.136,664.304  "/>
	<polygon points="173.136,664.304 184.945,344.293 186.133,343.955  "/>
	<polygon points="152.852,793.71 173.136,664.304 174.361,670.455  "/>
	<polygon points="460.282,913.929 385.603,792.478 465.175,918.678  "/>
	<polygon fill="#1C1414" points="465.175,918.678 448.466,960.1 460.282,913.929  "/>
	<polygon fill="#3F2C2C" points="147.185,333.999 153.947,301.698 181.706,328.114  "/>
	<polygon fill="#2D1F1F" points="181.706,328.114 186.133,343.955 147.185,333.999  "/>
	<polygon fill="#FFAAAA" points="186.133,343.955 184.945,344.293 147.185,333.999  "/>
	<polygon fill="#1B1B1B" points="385.603,792.478 366.563,677.267 364.811,690.672  "/>
	<polygon fill="#141414" points="366.563,677.267 356.926,345.072 364.811,690.672  "/>
	<polygon points="186.904,254.743 153.947,301.698 185.674,252.602  "/>
	<polygon fill="#DDDDDD" points="186.904,254.743 185.674,252.602 114.616,148.962  "/>
	<polygon fill="#352525" points="477.408,1025.694 457.474,986.827 489.688,990.833  "/>
	<polygon fill="#241919" points="457.474,986.827 448.466,960.1 489.688,990.833  "/>
	<polygon fill="#201616" points="118.233,85.456 201.614,61.561 111.054,99.814  "/>
	<polygon fill="#DD9999" points="118.233,85.456 111.054,99.814 99.045,120.08  "/>
	<polygon fill="#261B1B" points="114.616,148.962 99.045,120.08 111.054,99.814  "/>
	<polygon fill="#131313" points="99.045,120.08 114.616,148.962 185.674,252.602  "/>
	<polygon fill="#111111" points="420.815,153.079 421.828,154.913 443.712,107.926  "/>
	<polygon fill="#111111" points="355.167,255.259 421.828,154.913 420.815,153.079  "/>
	<polygon fill="#181010" points="58.06,1020.808 57.122,985.425 64.072,987.573  "/>
	<polygon points="95.253,959.922 64.072,987.573 57.122,985.425  "/>
	<polygon points="309.206,55.124 201.614,61.561 247.939,56.839  "/>
	<polygon fill="#181818" points="247.939,56.839 201.614,61.561 118.233,85.456  "/>
	<polygon fill="#141414" points="355.167,255.259 381.698,310.117 397.625,334.493  "/>
	<polygon fill="#212121" points="184.945,344.293 204.866,344.949 147.185,333.999  "/>
	<polygon fill="#505050" points="364.811,690.672 356.926,345.072 333.556,343.828  "/>
	<polygon fill="#232323" points="356.926,345.072 397.625,334.493 333.556,343.828  "/>
	<polygon fill="#373737" points="355.167,255.259 420.815,153.079 332.82,255.102  "/>
	<polygon fill="#363636" points="355.167,255.259 332.82,255.102 381.698,310.117  "/>
	<polygon fill="#414141" points="365.907,794.259 385.603,792.478 364.811,690.672  "/>
	<polygon fill="#656565" points="195.122,700.966 204.866,344.949 184.945,344.293  "/>
	<polygon fill="#636363" points="184.945,344.293 173.136,664.304 195.122,700.966  "/>
	<polygon fill="#686868" points="195.122,700.966 173.136,664.304 152.852,793.71  "/>
	<polygon fill="#121212" points="102.396,959.553 95.253,959.922 57.122,985.425  "/>
	<polygon fill="#181818" points="95.253,959.922 102.396,959.553 71.564,918.359  "/>
	<polygon fill="#727272" points="338.02,685.716 364.811,690.672 333.556,343.828  "/>
	<polygon fill="#6E6E6E" points="365.907,794.259 364.811,690.672 338.02,685.716  "/>
	<polygon fill="#3E3E3E" points="182.679,301.526 185.674,252.602 153.947,301.698  "/>
	<polygon fill="#797979" points="185.674,252.602 182.679,301.526 229.22,254.1  "/>
	<polygon fill="#383838" points="182.679,301.526 153.947,301.698 147.185,333.999  "/>
	<polygon fill="#585858" points="152.852,793.71 187.514,795.9 195.122,700.966  "/>
	<polygon fill="#FFFFFF" points="412.852,85.637 309.206,55.124 392.731,81.728  "/>
	<polygon fill="#292929" points="309.206,55.124 247.939,56.839 392.731,81.728  "/>
	<polygon fill="#151515" points="392.731,81.728 443.712,107.926 412.852,85.637  "/>
	<polygon fill="#AEAEAE" points="240.136,704.707 204.866,344.949 195.122,700.966  "/>
	<polygon fill="#AFAFAF" points="240.136,704.707 246.251,345.409 204.866,344.949  "/>
	<polygon fill="#ACACAC" points="187.514,795.9 240.136,704.707 195.122,700.966  "/>
	<polygon fill="#3B3B3B" points="448.466,960.1 465.175,918.678 421.662,960.629  "/>
	<polygon fill="#2A2A2A" points="421.662,960.629 489.688,990.833 448.466,960.1  "/>
	<polygon fill="#B5B5B5" points="289.679,680.625 333.556,343.828 290.64,346.07  "/>
	<polygon fill="#CBCBCB" points="240.136,704.707 289.679,680.625 246.251,345.409  "/>
	<polygon fill="#CBCBCB" points="289.679,680.625 290.64,346.07 246.251,345.409  "/>
	<polygon fill="#B7B7B7" points="289.679,680.625 338.02,685.716 333.556,343.828  "/>
	<polygon fill="#3C3C3C" points="71.564,918.359 102.396,959.553 96.993,915.517  "/>
	<polygon fill="#4C4C4C" points="152.852,793.71 96.993,915.517 187.514,795.9  "/>
	<polygon fill="#323232" points="152.852,793.71 71.564,918.359 96.993,915.517  "/>
	<polygon fill="#999999" points="326.005,792.904 365.907,794.259 338.02,685.716  "/>
	<polygon fill="#B3B3B3" points="326.005,792.904 338.02,685.716 289.679,680.625  "/>
	<polygon fill="#3C3C3C" points="465.175,918.678 385.603,792.478 437.862,914.786  "/>
	<polygon fill="#4A4A4A" points="465.175,918.678 437.862,914.786 421.662,960.629  "/>
	<polygon fill="#3B3B3B" points="365.907,794.259 437.862,914.786 385.603,792.478  "/>
	<polygon fill="#343434" points="333.556,343.828 397.625,334.493 324.492,334.75  "/>
	<polygon fill="#A4A4A4" points="277.32,253.18 324.492,334.75 332.82,255.102  "/>
	<polygon fill="#5F5F5F" points="397.625,334.493 381.698,310.117 324.492,334.75  "/>
	<polygon fill="#303030" points="333.556,343.828 324.492,334.75 290.64,346.07  "/>
	<polygon fill="#919191" points="324.492,334.75 381.698,310.117 332.82,255.102  "/>
	<polygon fill="#BBBBBB" points="264.311,799.952 240.136,704.707 187.514,795.9  "/>
	<polygon fill="#C2C2C2" points="264.311,799.952 326.005,792.904 289.679,680.625  "/>
	<polygon fill="#C6C6C6" points="289.679,680.625 240.136,704.707 264.311,799.952  "/>
	<polygon fill="#767676" points="185.674,252.602 229.22,254.1 140.753,119.874  "/>
	<polygon fill="#585858" points="185.674,252.602 140.753,119.874 99.045,120.08  "/>
	<polygon fill="#5B5B5B" points="118.233,85.456 99.045,120.08 140.753,119.874  "/>
	<polygon fill="#8C8C8C" points="147.185,333.999 230.784,331.169 182.679,301.526  "/>
	<polygon fill="#434343" points="246.251,345.409 230.784,331.169 204.866,344.949  "/>
	<polygon fill="#BFBFBF" points="230.784,331.169 324.492,334.75 277.32,253.18  "/>
	<polygon fill="#AFAFAF" points="229.22,254.1 230.784,331.169 277.32,253.18  "/>
	<polygon fill="#505050" points="290.64,346.07 324.492,334.75 230.784,331.169  "/>
	<polygon fill="#A4A4A4" points="229.22,254.1 182.679,301.526 230.784,331.169  "/>
	<polygon fill="#515151" points="290.64,346.07 230.784,331.169 246.251,345.409  "/>
	<polygon fill="#4C4C4C" points="204.866,344.949 230.784,331.169 147.185,333.999  "/>
	<polygon fill="#505050" points="443.712,107.926 395.539,111.576 420.815,153.079  "/>
	<polygon fill="#4D4D4D" points="443.712,107.926 392.731,81.728 395.539,111.576  "/>
	<polygon fill="#656565" points="395.539,111.576 332.82,255.102 420.815,153.079  "/>
	<polygon fill="#2E2E2E" points="247.939,56.839 118.233,85.456 186.198,86.343  "/>
	<polygon fill="#616161" points="186.198,86.343 118.233,85.456 140.753,119.874  "/>
	<polygon fill="#3D3D3D" points="489.688,990.833 421.662,960.629 433.532,981.98  "/>
	<polygon fill="#DD9999" points="395.894,1030.008 111.635,1029.118 98.6,1028.475  "/>
	<polygon fill="#484848" points="111.635,1029.118 57.122,985.425 58.06,1020.808  "/>
	<polygon fill="#DDDDDD" points="98.6,1028.475 111.635,1029.118 58.06,1020.808  "/>
	<polygon fill="#7A7A7A" points="102.396,959.553 172.411,959.651 96.993,915.517  "/>
	<polygon fill="#545454" points="421.662,960.629 349.008,959.064 433.532,981.98  "/>
	<polygon fill="#484848" points="102.396,959.553 124.194,983.599 172.411,959.651  "/>
	<polygon fill="#6A6A6A" points="57.122,985.425 111.635,1029.118 124.194,983.599  "/>
	<polygon fill="#4C4C4C" points="102.396,959.553 57.122,985.425 124.194,983.599  "/>
	<polygon fill="#818181" points="392.731,81.728 267.541,91.665 395.539,111.576  "/>
	<polygon fill="#414141" points="247.939,56.839 267.541,91.665 392.731,81.728  "/>
	<polygon fill="#454545" points="247.939,56.839 186.198,86.343 267.541,91.665  "/>
	<polygon fill="#EEEEEE" points="395.894,1030.008 404.823,1027.833 111.635,1029.118  "/>
	<polygon fill="#6B6B6B" points="489.688,990.833 433.532,981.98 404.823,1027.833  "/>
	<polygon fill="#DDDDDD" points="404.823,1027.833 395.894,1030.008 477.408,1025.694  "/>
	<polygon fill="#3C3C3C" points="477.408,1025.694 489.688,990.833 404.823,1027.833  "/>
	<polygon fill="#7D7D7D" points="187.514,795.9 96.993,915.517 161.832,914.673  "/>
	<polygon fill="#898989" points="161.832,914.673 96.993,915.517 172.411,959.651  "/>
	<polygon fill="#A7A7A7" points="277.32,253.18 214.892,121.824 229.22,254.1  "/>
	<polygon fill="#A1A1A1" points="267.541,91.665 186.198,86.343 214.892,121.824  "/>
	<polygon fill="#A1A1A1" points="186.198,86.343 140.753,119.874 214.892,121.824  "/>
	<polygon fill="#959595" points="214.892,121.824 140.753,119.874 229.22,254.1  "/>
	<polygon fill="#CBCBCB" points="309.558,126.88 267.541,91.665 214.892,121.824  "/>
	<polygon fill="#A9A9A9" points="309.558,126.88 395.539,111.576 267.541,91.665  "/>
	<polygon fill="#AFAFAF" points="277.32,253.18 309.558,126.88 214.892,121.824  "/>
	<polygon fill="#9D9D9D" points="309.558,126.88 277.32,253.18 332.82,255.102  "/>
	<polygon fill="#989898" points="332.82,255.102 395.539,111.576 309.558,126.88  "/>
	<polygon fill="#808080" points="370.025,916.037 365.907,794.259 326.005,792.904  "/>
	<polygon fill="#8D8D8D" points="349.008,959.064 421.662,960.629 370.025,916.037  "/>
	<polygon fill="#7E7E7E" points="437.862,914.786 365.907,794.259 370.025,916.037  "/>
	<polygon fill="#8B8B8B" points="370.025,916.037 421.662,960.629 437.862,914.786  "/>
	<polygon fill="#626262" points="349.008,959.064 363.878,984.986 433.532,981.98  "/>
	<polygon fill="#9C9C9C" points="363.878,984.986 404.823,1027.833 433.532,981.98  "/>
	<polygon fill="#767676" points="349.008,959.064 259.014,958.155 363.878,984.986  "/>
	<polygon fill="#B9B9B9" points="349.008,959.064 370.025,916.037 260.054,915.33  "/>
	<polygon fill="#A0A0A0" points="260.054,915.33 264.311,799.952 187.514,795.9  "/>
	<polygon fill="#B1B1B1" points="259.014,958.155 260.054,915.33 172.411,959.651  "/>
	<polygon fill="#B4B4B4" points="259.014,958.155 349.008,959.064 260.054,915.33  "/>
	<polygon fill="#A0A0A0" points="187.514,795.9 161.832,914.673 260.054,915.33  "/>
	<polygon fill="#B4B4B4" points="172.411,959.651 260.054,915.33 161.832,914.673  "/>
	<polygon fill="#A6A6A6" points="264.311,799.952 260.054,915.33 326.005,792.904  "/>
	<polygon fill="#A7A7A7" points="260.054,915.33 370.025,916.037 326.005,792.904  "/>
	<polygon fill="#6F6F6F" points="259.014,958.155 172.411,959.651 251.424,978.91  "/>
	<polygon fill="#7B7B7B" points="259.014,958.155 251.424,978.91 363.878,984.986  "/>
	<polygon fill="#7C7C7C" points="124.194,983.599 251.424,978.91 172.411,959.651  "/>
	<polygon fill="#B0B0B0" points="111.635,1029.118 245.359,1013.517 124.194,983.599  "/>
	<polygon fill="#C6C6C6" points="245.359,1013.517 363.878,984.986 251.424,978.91  "/>
	<polygon fill="#B5B5B5" points="245.359,1013.517 404.823,1027.833 363.878,984.986  "/>
	<polygon fill="#B8B8B8" points="124.194,983.599 245.359,1013.517 251.424,978.91  "/>
	<polygon fill="#373737" points="111.635,1029.118 404.823,1027.833 245.359,1013.517  "/>
</g>

</svg>