<svg xmlns="http://www.w3.org/2000/svg" xmlns:xlink="http://www.w3.org/1999/xlink" version="1.1" id="Layer_1" x="0px" y="0px" viewBox="0 0 2674.243 1085.728" enable-background="new 0 0 2674.243 1085.728" xml:space="preserve">

<g id="sKnight">
	<polygon fill="#B67F7F" points="1535.436,925.903 1668.236,928.147 1659.466,971.479  "/>
	<polygon fill="#BB8383" points="1561.669,970.623 1535.436,925.903 1659.466,971.479  "/>
	<polygon fill="#AA7777" points="1543.052,1004.564 1659.466,971.479 1696.42,1013.53  "/>
	<polygon fill="#906464" points="1543.052,1004.564 1561.669,970.623 1659.466,971.479  "/>
	<polygon fill="#704E4E" points="1548.054,1029.623 1543.052,1004.564 1696.42,1013.53  "/>
	<polygon fill="#916565" points="1535.436,925.903 1621.62,890.935 1668.236,928.147  "/>
	<polygon fill="#C08787" points="1523.26,891.743 1555.516,815.816 1621.62,890.935  "/>
	<polygon fill="#6B4B4B" points="1523.26,891.743 1621.62,890.935 1535.436,925.903  "/>
	<polygon fill="#C88C8C" points="1621.62,890.935 1555.516,815.816 1650.983,697.662  "/>
	<polygon fill="#C88C8C" points="1555.516,815.816 1582.315,682.28 1650.983,697.662  "/>
	<polygon fill="#694949" points="1758.702,919.918 1668.236,928.147 1621.62,890.935  "/>
	<polygon fill="#805959" points="1758.702,919.918 1621.62,890.935 1702.371,890.103  "/>
	<polygon fill="#B98181" points="1621.62,890.935 1650.983,697.662 1702.371,890.103  "/>
	<polygon fill="#B17C7C" points="1555.516,815.816 1523.26,891.743 1484.307,842.834  "/>
	<polygon fill="#A97676" points="1499.538,717.5 1555.516,815.816 1484.307,842.834  "/>
	<polygon fill="#4B3434" points="1775.713,1010.642 1741.279,1029.475 1696.42,1013.53  "/>
	<polygon fill="#352525" points="1696.42,1013.53 1741.279,1029.475 1548.054,1029.623  "/>
	<polygon fill="#8B6161" points="1535.436,925.903 1561.669,970.623 1463.762,971.525  "/>
	<polygon fill="#6F4E4E" points="1463.762,971.525 1561.669,970.623 1543.052,1004.564  "/>
	<polygon fill="#926666" points="1749.95,970.762 1668.236,928.147 1758.702,919.918  "/>
	<polygon fill="#7D5858" points="1749.95,970.762 1775.713,1010.642 1696.42,1013.53  "/>
	<polygon fill="#7A5656" points="1659.466,971.479 1749.95,970.762 1696.42,1013.53  "/>
	<polygon fill="#916666" points="1659.466,971.479 1668.236,928.147 1749.95,970.762  "/>
	<polygon fill="#AD7979" points="1702.371,890.103 1650.983,697.662 1715.942,763.864  "/>
	<polygon fill="#8E6363" points="1463.762,971.525 1436.787,924.765 1535.436,925.903  "/>
	<polygon fill="#6B4A4A" points="1535.436,925.903 1436.787,924.765 1523.26,891.743  "/>
	<polygon fill="#604343" points="1548.054,1029.623 1417.034,1008.927 1543.052,1004.564  "/>
	<polygon fill="#805A5A" points="1463.762,971.525 1543.052,1004.564 1417.034,1008.927  "/>
	<polygon fill="#936666" points="1499.538,717.5 1474.828,549.382 1555.516,815.816  "/>
	<polygon fill="#C48989" points="1555.516,815.816 1474.828,549.382 1582.315,682.28  "/>
	<polygon fill="#BB8383" points="1582.315,682.28 1560.701,543.446 1650.983,697.662  "/>
	<polygon fill="#BF8585" points="1582.315,682.28 1474.828,549.382 1560.701,543.446  "/>
	<polygon fill="#CB8E8E" points="1560.701,543.446 1474.828,549.382 1508.192,404.035  "/>
	<polygon fill="#C88C8C" points="1448.507,435.406 1508.192,404.035 1474.828,549.382  "/>
	<polygon fill="#C48989" points="1508.192,404.035 1448.507,435.406 1507.542,343.314  "/>
	<polygon fill="#CB8E8E" points="1560.701,543.446 1508.192,404.035 1744.553,439.031  "/>
	<polygon fill="#473232" points="1472.545,891.41 1523.26,891.743 1436.787,924.765  "/>
	<polygon fill="#6D4C4C" points="1472.545,891.41 1484.307,842.834 1523.26,891.743  "/>
	<polygon fill="#CA8D8D" points="1757.122,494.412 1680.791,512.195 1744.553,439.031  "/>
	<polygon fill="#B07B7B" points="1560.701,543.446 1744.553,439.031 1680.791,512.195  "/>
	<polygon fill="#C08787" points="1508.192,404.035 1507.542,343.314 1596.433,392.028  "/>
	<polygon fill="#966969" points="1744.553,439.031 1508.192,404.035 1596.433,392.028  "/>
	<polygon fill="#916565" points="1715.942,763.864 1650.983,697.662 1719.426,660.879  "/>
	<polygon fill="#926666" points="1560.701,543.446 1680.791,512.195 1631.413,547.96  "/>
	<polygon fill="#906565" points="1719.426,660.879 1650.983,697.662 1631.413,547.96  "/>
	<polygon fill="#9E6E6E" points="1650.983,697.662 1560.701,543.446 1631.413,547.96  "/>
	<polygon fill="#674848" points="1448.423,831.64 1499.538,717.5 1484.307,842.834  "/>
	<polygon fill="#5A3F3F" points="1472.545,891.41 1448.423,831.64 1484.307,842.834  "/>
	<polygon fill="#8D6262" points="1766.622,420.155 1744.553,439.031 1596.433,392.028  "/>
	<polygon fill="#926666" points="1757.122,494.412 1744.553,439.031 1766.622,420.155  "/>
	<polygon fill="#5B3F3F" points="1448.423,831.64 1471.023,712.14 1499.538,717.5  "/>
	<polygon fill="#785454" points="1763.764,790.547 1715.942,763.864 1719.426,660.879  "/>
	<polygon fill="#875E5E" points="1715.942,763.864 1763.764,790.547 1702.371,890.103  "/>
	<polygon fill="#704E4E" points="1507.542,343.314 1448.507,435.406 1469.557,364.69  "/>
	<polygon fill="#624545" points="1417.695,445.217 1469.557,364.69 1448.507,435.406  "/>
	<polygon fill="#916565" points="1499.538,717.5 1417.695,445.217 1474.828,549.382  "/>
	<polygon fill="#7F5858" points="1417.695,445.217 1448.507,435.406 1474.828,549.382  "/>
	<polygon fill="#563C3C" points="1471.023,712.14 1417.695,445.217 1499.538,717.5  "/>
	<polygon fill="#624545" points="1750.181,889.983 1702.371,890.103 1763.764,790.547  "/>
	<polygon fill="#362626" points="1750.181,889.983 1758.702,919.918 1702.371,890.103  "/>
	<polygon fill="#535353" points="1507.542,343.314 1469.557,364.69 1555.523,355.005  "/>
	<polygon fill="#412D2D" points="1555.523,355.005 1596.433,392.028 1507.542,343.314  "/>
	<polygon fill="#C38888" points="1559.465,312.411 1555.523,355.005 1469.557,364.69  "/>
	<polygon fill="#A87575" points="1469.557,364.69 1417.695,445.217 1432.744,338.25  "/>
	<polygon fill="#966969" points="1469.557,364.69 1432.744,338.25 1559.465,312.411  "/>
	<polygon fill="#885F5F" points="1441.175,709.172 1471.023,712.14 1448.423,831.64  "/>
	<polygon fill="#865E5E" points="1417.695,445.217 1471.023,712.14 1441.175,709.172  "/>
	<polygon fill="#291D1D" points="1750.181,889.983 1794.831,928.06 1758.702,919.918  "/>
	<polygon fill="#432F2F" points="1758.702,919.918 1794.831,928.06 1749.95,970.762  "/>
	<polygon fill="#926666" points="1417.695,445.217 1387.124,452.024 1432.744,338.25  "/>
	<polygon fill="#9D6E6E" points="1441.175,709.172 1387.124,452.024 1417.695,445.217  "/>
	<polygon fill="#463131" points="1596.433,392.028 1733.838,400.617 1766.622,420.155  "/>
	<polygon fill="#755252" points="1419.803,819.434 1441.175,709.172 1448.423,831.64  "/>
	<polygon fill="#2D1F1F" points="1436.787,924.765 1463.762,971.525 1417.258,924.088  "/>
	<polygon fill="#241919" points="1472.545,891.41 1436.787,924.765 1417.258,924.088  "/>
	<polygon fill="#322323" points="1596.433,392.028 1622.752,384.4 1733.838,400.617  "/>
	<polygon fill="#4B3535" points="1596.433,392.028 1555.523,355.005 1622.752,384.4  "/>
	<polygon fill="#573D3D" points="1736.61,528.54 1680.791,512.195 1757.122,494.412  "/>
	<polygon fill="#322323" points="1749.95,970.762 1807.094,1010.015 1775.713,1010.642  "/>
	<polygon fill="#211717" points="1807.094,1010.015 1741.279,1029.475 1775.713,1010.642  "/>
	<polygon fill="#8B8B8B" points="1432.872,396.157 1432.744,338.25 1387.124,452.024  "/>
	<polygon fill="#231818" points="1794.831,928.06 1767.629,970.389 1749.95,970.762  "/>
	<polygon fill="#201616" points="1767.629,970.389 1807.094,1010.015 1749.95,970.762  "/>
	<polygon points="1472.545,891.41 1417.258,924.088 1468.309,890.461  "/>
	<polygon fill="#241919" points="1442.631,969.057 1463.762,971.525 1417.034,1008.927  "/>
	<polygon fill="#261A1A" points="1417.258,924.088 1463.762,971.525 1442.631,969.057  "/>
	<polygon fill="#2F2121" points="1763.764,790.547 1719.426,660.879 1757.916,736.015  "/>
	<polygon fill="#999999" points="1441.175,709.172 1425.066,483.155 1387.124,452.024  "/>
	<polygon fill="#ACACAC" points="1432.872,396.157 1387.124,452.024 1425.066,483.155  "/>
	<polygon fill="#7C7C7C" points="1523.397,348.058 1555.523,355.005 1559.465,312.411  "/>
	<polygon fill="#232323" points="1555.523,355.005 1523.397,348.058 1622.752,384.4  "/>
	<polygon fill="#858585" points="1523.397,348.058 1559.465,312.411 1432.744,338.25  "/>
	<polygon fill="#B4B4B4" points="1432.744,338.25 1432.872,396.157 1523.397,348.058  "/>
	<polygon points="1680.791,512.195 1736.61,528.54 1684.727,517.13  "/>
	<polygon fill="#868686" points="1441.175,709.172 1419.803,819.434 1470.317,715.7  "/>
	<polygon fill="#808080" points="1470.317,715.7 1425.066,483.155 1441.175,709.172  "/>
	<polygon fill="#1A1212" points="1680.791,512.195 1684.727,517.13 1629.101,551.35  "/>
	<polygon points="1631.413,547.96 1680.791,512.195 1629.101,551.35  "/>
	<polygon fill="#251A1A" points="1417.034,1008.927 1548.054,1029.623 1425.037,1027.272  "/>
	<polygon points="1712.786,646.346 1719.426,660.879 1631.413,547.96  "/>
	<polygon fill="#EE9999" points="1719.426,660.879 1712.786,646.346 1757.916,736.015  "/>
	<polygon fill="#161616" points="1629.101,551.35 1712.786,646.346 1631.413,547.96  "/>
	<polygon fill="#271B1B" points="1757.122,494.412 1766.622,420.155 1774.251,465.204  "/>
	<polygon fill="#DDDDDD" points="1736.61,528.54 1757.122,494.412 1774.251,465.204  "/>
	<polygon fill="#848484" points="1450.919,839.778 1470.317,715.7 1419.803,819.434  "/>
	<polygon fill="#191111" points="1419.803,819.434 1448.423,831.64 1450.919,839.778  "/>
	<polygon fill="#EE9999" points="1472.545,891.41 1450.919,839.778 1448.423,831.64  "/>
	<polygon points="1468.309,890.461 1450.919,839.778 1472.545,891.41  "/>
	<polygon fill="#FFAAAA" points="1417.034,1008.927 1421.983,998.428 1442.631,969.057  "/>
	<polygon fill="#151515" points="1425.037,1027.272 1421.983,998.428 1417.034,1008.927  "/>
	<polygon fill="#555555" points="1733.838,400.617 1622.752,384.4 1751.034,427.067  "/>
	<polygon fill="#2A2A2A" points="1733.838,400.617 1751.034,427.067 1766.622,420.155  "/>
	<polygon fill="#2D2D2D" points="1774.251,465.204 1766.622,420.155 1751.034,427.067  "/>
	<polygon fill="#202020" points="1750.181,889.983 1763.764,790.547 1750.446,814.148  "/>
	<polygon fill="#242424" points="1763.764,790.547 1757.916,736.015 1750.446,814.148  "/>
	<polygon fill="#595959" points="1736.61,528.54 1729.442,503.818 1684.727,517.13  "/>
	<polygon fill="#515151" points="1736.61,528.54 1774.251,465.204 1729.442,503.818  "/>
	<polygon fill="#AEAEAE" points="1751.034,427.067 1729.442,503.818 1774.251,465.204  "/>
	<polygon fill="#767676" points="1729.442,503.818 1664.33,491.371 1684.727,517.13  "/>
	<polygon fill="#949494" points="1629.101,551.35 1684.727,517.13 1664.33,491.371  "/>
	<polygon fill="#CBCBCB" points="1729.442,503.818 1597.889,412.481 1664.33,491.371  "/>
	<polygon fill="#CBCBCB" points="1729.442,503.818 1751.034,427.067 1597.889,412.481  "/>
	<polygon fill="#646464" points="1622.752,384.4 1597.889,412.481 1751.034,427.067  "/>
	<polygon fill="#DDDDDD" points="1548.054,1029.623 1750.385,1030.604 1425.037,1027.272  "/>
	<polygon points="1741.279,1029.475 1807.094,1010.015 1750.385,1030.604  "/>
	<polygon fill="#EE9999" points="1741.279,1029.475 1750.385,1030.604 1548.054,1029.623  "/>
	<polygon fill="#616161" points="1425.066,483.155 1451.722,430.648 1432.872,396.157  "/>
	<polygon fill="#717171" points="1622.752,384.4 1506.492,354.368 1597.889,412.481  "/>
	<polygon fill="#808080" points="1451.722,430.648 1506.492,354.368 1432.872,396.157  "/>
	<polygon fill="#C9C9C9" points="1664.33,491.371 1597.889,412.481 1506.492,354.368  "/>
	<polygon fill="#454545" points="1622.752,384.4 1523.397,348.058 1506.492,354.368  "/>
	<polygon fill="#171010" points="1432.872,396.157 1506.492,354.368 1523.397,348.058  "/>
	<polygon fill="#CACACA" points="1567.264,548.936 1664.33,491.371 1506.492,354.368  "/>
	<polygon fill="#8F8F8F" points="1567.264,548.936 1629.101,551.35 1664.33,491.371  "/>
	<polygon fill="#CBCBCB" points="1473.362,549.808 1567.264,548.936 1506.492,354.368  "/>
	<polygon fill="#C9C9C9" points="1473.362,549.808 1506.492,354.368 1451.722,430.648  "/>
	<polygon fill="#828282" points="1473.362,549.808 1451.722,430.648 1425.066,483.155  "/>
	<polygon fill="#494949" points="1711.647,890.689 1750.181,889.983 1750.446,814.148  "/>
	<polygon fill="#3B3B3B" points="1417.258,924.088 1453.93,925.476 1468.309,890.461  "/>
	<polygon fill="#4D4D4D" points="1417.258,924.088 1442.631,969.057 1453.93,925.476  "/>
	<polygon fill="#656565" points="1757.916,736.015 1712.786,646.346 1691.001,684.224  "/>
	<polygon fill="#767676" points="1750.446,814.148 1757.916,736.015 1691.001,684.224  "/>
	<polygon fill="#737373" points="1712.786,646.346 1629.101,551.35 1691.001,684.224  "/>
	<polygon fill="#8D8D8D" points="1567.264,548.936 1691.001,684.224 1629.101,551.35  "/>
	<polygon fill="#575757" points="1425.066,483.155 1470.317,715.7 1503.191,717.532  "/>
	<polygon fill="#585858" points="1503.191,717.532 1470.317,715.7 1450.919,839.778  "/>
	<polygon fill="#8D8D8D" points="1503.191,717.532 1473.362,549.808 1425.066,483.155  "/>
	<polygon fill="#686868" points="1526.671,891.076 1450.919,839.778 1468.309,890.461  "/>
	<polygon fill="#464646" points="1526.671,891.076 1468.309,890.461 1453.93,925.476  "/>
	<polygon fill="#313131" points="1750.181,889.983 1751.71,924.437 1794.831,928.06  "/>
	<polygon fill="#595959" points="1751.71,924.437 1719.752,971.197 1767.629,970.389  "/>
	<polygon fill="#333333" points="1711.647,890.689 1751.71,924.437 1750.181,889.983  "/>
	<polygon fill="#4C4C4C" points="1794.831,928.06 1751.71,924.437 1767.629,970.389  "/>
	<polygon fill="#505050" points="1767.629,970.389 1719.752,971.197 1755.597,1010.144  "/>
	<polygon fill="#3B3B3B" points="1750.385,1030.604 1807.094,1010.015 1755.597,1010.144  "/>
	<polygon fill="#4C4C4C" points="1767.629,970.389 1755.597,1010.144 1807.094,1010.015  "/>
	<polygon fill="#757575" points="1503.191,717.532 1450.919,839.778 1500.916,837.611  "/>
	<polygon fill="#6B6B6B" points="1450.919,839.778 1526.671,891.076 1500.916,837.611  "/>
	<polygon fill="#575757" points="1442.631,969.057 1421.983,998.428 1473.637,1005.195  "/>
	<polygon fill="#676767" points="1421.983,998.428 1425.037,1027.272 1473.637,1005.195  "/>
	<polygon fill="#646464" points="1453.93,925.476 1442.631,969.057 1525.515,972.081  "/>
	<polygon fill="#565656" points="1442.631,969.057 1473.637,1005.195 1525.515,972.081  "/>
	<polygon fill="#AEAEAE" points="1567.264,548.936 1590.264,680.242 1691.001,684.224  "/>
	<polygon fill="#BABABA" points="1590.264,680.242 1567.264,548.936 1473.362,549.808  "/>
	<polygon fill="#515151" points="1425.037,1027.272 1540.859,1026.985 1473.637,1005.195  "/>
	<polygon fill="#FFFFFF" points="1425.037,1027.272 1750.385,1030.604 1540.859,1026.985  "/>
	<polygon fill="#B0B0B0" points="1711.647,890.689 1633.578,803.629 1633.74,893.89  "/>
	<polygon fill="#BEBEBE" points="1633.578,803.629 1691.001,684.224 1590.264,680.242  "/>
	<polygon fill="#A6A6A6" points="1633.578,803.629 1711.647,890.689 1750.446,814.148  "/>
	<polygon fill="#A6A6A6" points="1633.578,803.629 1750.446,814.148 1691.001,684.224  "/>
	<polygon fill="#ADADAD" points="1526.671,891.076 1633.74,893.89 1549.546,829.455  "/>
	<polygon fill="#CBCBCB" points="1549.546,829.455 1633.578,803.629 1590.264,680.242  "/>
	<polygon fill="#C0C0C0" points="1549.546,829.455 1590.264,680.242 1473.362,549.808  "/>
	<polygon fill="#A7A7A7" points="1500.916,837.611 1526.671,891.076 1549.546,829.455  "/>
	<polygon fill="#ACACAC" points="1503.191,717.532 1500.916,837.611 1549.546,829.455  "/>
	<polygon fill="#C6C6C6" points="1633.74,893.89 1633.578,803.629 1549.546,829.455  "/>
	<polygon fill="#969696" points="1549.546,829.455 1473.362,549.808 1503.191,717.532  "/>
	<polygon fill="#757575" points="1526.671,891.076 1453.93,925.476 1543.752,924.951  "/>
	<polygon fill="#9D9D9D" points="1453.93,925.476 1525.515,972.081 1543.752,924.951  "/>
	<polygon fill="#ADADAD" points="1525.515,972.081 1639.521,971.512 1543.752,924.951  "/>
	<polygon fill="#717171" points="1711.647,890.689 1643.519,922.505 1751.71,924.437  "/>
	<polygon fill="#A8A8A8" points="1643.519,922.505 1639.521,971.512 1719.752,971.197  "/>
	<polygon fill="#6F6F6F" points="1526.671,891.076 1543.752,924.951 1643.519,922.505  "/>
	<polygon fill="#6B6B6B" points="1633.74,893.89 1643.519,922.505 1711.647,890.689  "/>
	<polygon fill="#777777" points="1526.671,891.076 1643.519,922.505 1633.74,893.89  "/>
	<polygon fill="#BABABA" points="1639.521,971.512 1643.519,922.505 1543.752,924.951  "/>
	<polygon fill="#A8A8A8" points="1719.752,971.197 1751.71,924.437 1643.519,922.505  "/>
	<polygon fill="#898989" points="1639.521,971.512 1664.124,1012.886 1719.752,971.197  "/>
	<polygon fill="#484848" points="1755.597,1010.144 1664.124,1012.886 1750.385,1030.604  "/>
	<polygon fill="#8E8E8E" points="1719.752,971.197 1664.124,1012.886 1755.597,1010.144  "/>
	<polygon fill="#313131" points="1750.385,1030.604 1664.124,1012.886 1540.859,1026.985  "/>
	<polygon fill="#A2A2A2" points="1639.521,971.512 1556.02,1005.183 1664.124,1012.886  "/>
	<polygon fill="#838383" points="1525.515,972.081 1556.02,1005.183 1639.521,971.512  "/>
	<polygon fill="#929292" points="1473.637,1005.195 1556.02,1005.183 1525.515,972.081  "/>
	<polygon fill="#777777" points="1664.124,1012.886 1556.02,1005.183 1540.859,1026.985  "/>
	<polygon fill="#818181" points="1540.859,1026.985 1556.02,1005.183 1473.637,1005.195  "/>
</g>

</svg>