<svg xmlns="http://www.w3.org/2000/svg" xmlns:xlink="http://www.w3.org/1999/xlink" version="1.1" id="Layer_1" x="0px" y="0px" viewBox="0 0 2674.243 1085.728" enable-background="new 0 0 2674.243 1085.728" xml:space="preserve">

<g id="sPiece">
	<polygon fill="#B78080" points="2426.326,1030.01 2479.921,991.833 2518.399,1025.57  "/>
	<polygon fill="#C78B8B" points="2346.422,999.52 2479.921,991.833 2426.326,1030.01  "/>
	<polygon fill="#C98C8C" points="2476.325,970.802 2383.619,942.471 2473.494,938.796  "/>
	<polygon fill="#C28888" points="2389.673,969.538 2383.619,942.471 2476.325,970.802  "/>
	<polygon fill="#9D6E6E" points="2346.422,999.52 2389.673,969.538 2479.921,991.833  "/>
	<polygon fill="#825B5B" points="2479.921,991.833 2389.673,969.538 2476.325,970.802  "/>
	<polygon fill="#B37D7D" points="2518.399,1025.57 2479.921,991.833 2571.087,989.831  "/>
	<polygon fill="#775353" points="2479.921,991.833 2476.325,970.802 2571.087,989.831  "/>
	<polygon fill="#BC8383" points="2473.494,938.796 2538.16,940.243 2476.325,970.802  "/>
	<polygon fill="#6D4C4C" points="2476.325,970.802 2551.366,971.299 2571.087,989.831  "/>
	<polygon fill="#AC7878" points="2476.325,970.802 2538.16,940.243 2551.366,971.299  "/>
	<polygon fill="#916565" points="2592.321,1023.064 2518.399,1025.57 2571.087,989.831  "/>
	<polygon fill="#916666" points="2491.146,877.24 2538.16,940.243 2473.494,938.796  "/>
	<polygon fill="#926666" points="2435.644,854.904 2491.146,877.24 2473.494,938.796  "/>
	<polygon fill="#A27171" points="2435.644,854.904 2473.494,938.796 2383.619,942.471  "/>
	<polygon fill="#604343" points="2389.673,969.538 2346.422,999.52 2331.59,970.287  "/>
	<polygon fill="#926666" points="2331.59,970.287 2383.619,942.471 2389.673,969.538  "/>
	<polygon fill="#8C6262" points="2319.65,939.663 2383.619,942.471 2331.59,970.287  "/>
	<polygon fill="#C08686" points="2428.886,732.608 2379.337,685.94 2486.939,690.498  "/>
	<polygon fill="#9B6C6C" points="2495.896,734.313 2428.886,732.608 2486.939,690.498  "/>
	<polygon fill="#C58A8A" points="2435.644,854.904 2428.886,732.608 2495.896,734.313  "/>
	<polygon fill="#BD8484" points="2435.644,854.904 2495.896,734.313 2502.819,821.984  "/>
	<polygon fill="#AF7A7A" points="2502.819,821.984 2491.146,877.24 2435.644,854.904  "/>
	<polygon fill="#714F4F" points="2383.619,942.471 2319.65,939.663 2376.067,876.938  "/>
	<polygon fill="#735050" points="2435.644,854.904 2383.619,942.471 2376.067,876.938  "/>
	<polygon fill="#513939" points="2486.939,690.498 2379.337,685.94 2461.893,676.133  "/>
	<polygon fill="#C28888" points="2423.537,638.446 2503.743,634.545 2461.893,676.133  "/>
	<polygon fill="#AC7878" points="2376.067,876.938 2403.152,809.469 2435.644,854.904  "/>
	<polygon fill="#996B6B" points="2403.152,809.469 2428.886,732.608 2435.644,854.904  "/>
	<polygon fill="#795555" points="2594.23,937.998 2551.366,971.299 2538.16,940.243  "/>
	<polygon fill="#C18787" points="2423.537,638.446 2476.526,584.249 2503.743,634.545  "/>
	<polygon fill="#6A4A4A" points="2491.146,877.24 2533.102,874.106 2538.16,940.243  "/>
	<polygon fill="#855D5D" points="2502.819,821.984 2533.102,874.106 2491.146,877.24  "/>
	<polygon fill="#624444" points="2533.102,874.106 2594.23,937.998 2538.16,940.243  "/>
	<polygon fill="#5A3F3F" points="2331.59,970.287 2346.422,999.52 2288.489,990.787  "/>
	<polygon fill="#624444" points="2592.321,1023.064 2571.087,989.831 2617.121,991.395  "/>
	<polygon fill="#5E4242" points="2551.366,971.299 2594.23,937.998 2589.798,970.649  "/>
	<polygon fill="#402D2D" points="2589.798,970.649 2617.121,991.395 2571.087,989.831  "/>
	<polygon fill="#3F2C2C" points="2551.366,971.299 2589.798,970.649 2571.087,989.831  "/>
	<polygon fill="#583D3D" points="2426.326,1030.01 2288.798,1028.583 2346.422,999.52  "/>
	<polygon fill="#624545" points="2288.798,1028.583 2288.489,990.787 2346.422,999.52  "/>
	<polygon fill="#9C6D6D" points="2423.537,638.446 2419.805,586.847 2476.526,584.249  "/>
	<polygon fill="#805A5A" points="2418.625,674.985 2423.537,638.446 2461.893,676.133  "/>
	<polygon fill="#332424" points="2379.337,685.94 2418.625,674.985 2461.893,676.133  "/>
	<polygon fill="#785454" points="2390.409,729.366 2428.886,732.608 2403.152,809.469  "/>
	<polygon fill="#5E4242" points="2390.409,729.366 2379.337,685.94 2428.886,732.608  "/>
	<polygon fill="#342424" points="2461.893,676.133 2494.239,674.577 2486.939,690.498  "/>
	<polygon fill="#694949" points="2494.239,674.577 2461.893,676.133 2503.743,634.545  "/>
	<polygon fill="#573D3D" points="2418.625,674.985 2393.449,640.43 2423.537,638.446  "/>
	<polygon fill="#573D3D" points="2419.805,586.847 2423.537,638.446 2393.449,640.43  "/>
	<polygon fill="#372626" points="2502.819,821.984 2495.896,734.313 2508.767,733.21  "/>
	<polygon fill="#2F2121" points="2495.896,734.313 2535.708,688.176 2508.767,733.21  "/>
	<polygon fill="#5F4242" points="2495.896,734.313 2486.939,690.498 2535.708,688.176  "/>
	<polygon fill="#352525" points="2535.708,688.176 2486.939,690.498 2494.239,674.577  "/>
	<polygon fill="#3F2C2C" points="2387.509,849.819 2390.409,729.366 2403.152,809.469  "/>
	<polygon fill="#2B1E1E" points="2387.509,849.819 2376.067,876.938 2319.65,939.663  "/>
	<polygon fill="#EEEEEE" points="2387.509,849.819 2403.152,809.469 2376.067,876.938  "/>
	<polygon fill="#271B1B" points="2592.321,1023.064 2617.121,991.395 2605.355,1029.576  "/>
	<polygon points="2518.399,1025.57 2605.355,1029.576 2426.326,1030.01  "/>
	<polygon fill="#1B1313" points="2592.321,1023.064 2605.355,1029.576 2518.399,1025.57  "/>
	<polygon fill="#2E2020" points="2516.803,857.43 2502.819,821.984 2508.767,733.21  "/>
	<polygon fill="#1F1F1F" points="2533.102,874.106 2502.819,821.984 2516.803,857.43  "/>
	<polygon fill="#DDDDDD" points="2594.23,937.998 2533.102,874.106 2516.803,857.43  "/>
	<polygon fill="#1C1414" points="2331.59,970.287 2288.489,990.787 2313.624,970.696  "/>
	<polygon fill="#2C1E1E" points="2319.65,939.663 2331.59,970.287 2313.624,970.696  "/>
	<polygon points="2379.337,685.94 2390.409,729.366 2376.879,682.967  "/>
	<polygon points="2379.337,685.94 2376.879,682.967 2418.625,674.985  "/>
	<polygon fill="#101010" points="2494.239,674.577 2503.743,634.545 2505.342,619.81  "/>
	<polygon fill="#211717" points="2503.743,634.545 2476.526,584.249 2505.342,619.81  "/>
	<polygon fill="#3B3B3B" points="2419.805,586.847 2393.449,640.43 2434.447,588.208  "/>
	<polygon fill="#434343" points="2476.526,584.249 2434.447,588.208 2505.342,619.81  "/>
	<polygon fill="#131313" points="2419.805,586.847 2434.447,588.208 2476.526,584.249  "/>
	<polygon fill="#7F7F7F" points="2494.239,674.577 2505.342,619.81 2447.962,677.479  "/>
	<polygon fill="#1E1E1E" points="2418.625,674.985 2376.879,682.967 2447.962,677.479  "/>
	<polygon fill="#4B4B4B" points="2418.625,674.985 2447.962,677.479 2393.449,640.43  "/>
	<polygon fill="#848484" points="2516.803,857.43 2508.767,733.21 2481.489,734.863  "/>
	<polygon fill="#767676" points="2508.767,733.21 2535.708,688.176 2481.489,734.863  "/>
	<polygon points="2313.624,970.696 2314.196,938.871 2319.65,939.663  "/>
	<polygon points="2387.509,849.819 2319.65,939.663 2314.196,938.871  "/>
	<polygon fill="#949494" points="2393.449,640.43 2444.29,640.399 2434.447,588.208  "/>
	<polygon fill="#AAAAAA" points="2447.962,677.479 2505.342,619.81 2444.29,640.399  "/>
	<polygon fill="#8B8B8B" points="2447.962,677.479 2444.29,640.399 2393.449,640.43  "/>
	<polygon fill="#B7B7B7" points="2505.342,619.81 2434.447,588.208 2444.29,640.399  "/>
	<polygon fill="#636363" points="2426.109,712.792 2390.409,729.366 2387.509,849.819  "/>
	<polygon fill="#6C6C6C" points="2390.409,729.366 2426.109,712.792 2376.879,682.967  "/>
	<polygon fill="#8D8D8D" points="2481.591,860.329 2516.803,857.43 2481.489,734.863  "/>
	<polygon fill="#CACACA" points="2436.101,850.637 2481.591,860.329 2481.489,734.863  "/>
	<polygon fill="#C4C4C4" points="2436.101,850.637 2481.489,734.863 2426.109,712.792  "/>
	<polygon fill="#9B9B9B" points="2387.509,849.819 2436.101,850.637 2426.109,712.792  "/>
	<polygon fill="#B9B9B9" points="2426.109,712.792 2481.489,734.863 2488.79,683.937  "/>
	<polygon fill="#B9B9B9" points="2376.879,682.967 2426.109,712.792 2488.79,683.937  "/>
	<polygon fill="#252525" points="2494.239,674.577 2447.962,677.479 2488.79,683.937  "/>
	<polygon fill="#272727" points="2535.708,688.176 2494.239,674.577 2488.79,683.937  "/>
	<polygon fill="#808080" points="2481.489,734.863 2535.708,688.176 2488.79,683.937  "/>
	<polygon fill="#494949" points="2447.962,677.479 2376.879,682.967 2488.79,683.937  "/>
	<polygon fill="#272727" points="2288.798,1028.583 2302.295,989.949 2288.489,990.787  "/>
	<polygon fill="#202020" points="2313.624,970.696 2288.489,990.787 2302.295,989.949  "/>
	<polygon fill="#282828" points="2516.803,857.43 2577.003,941.475 2594.23,937.998  "/>
	<polygon fill="#2A2A2A" points="2594.23,937.998 2577.003,941.475 2589.798,970.649  "/>
	<polygon fill="#717171" points="2516.803,857.43 2481.591,860.329 2577.003,941.475  "/>
	<polygon fill="#393939" points="2589.798,970.649 2577.003,941.475 2563.594,969.008  "/>
	<polygon fill="#272727" points="2563.594,969.008 2617.121,991.395 2589.798,970.649  "/>
	<polygon fill="#373737" points="2605.355,1029.576 2617.121,991.395 2588.371,1010.848  "/>
	<polygon fill="#404040" points="2563.594,969.008 2588.371,1010.848 2617.121,991.395  "/>
	<polygon fill="#484848" points="2288.798,1028.583 2332.011,1020.159 2302.295,989.949  "/>
	<polygon fill="#474747" points="2384.513,969.523 2313.624,970.696 2302.295,989.949  "/>
	<polygon fill="#7B7B7B" points="2313.624,970.696 2384.513,969.523 2314.196,938.871  "/>
	<polygon fill="#797979" points="2577.003,941.475 2481.591,860.329 2511.82,940.095  "/>
	<polygon fill="#9D9D9D" points="2577.003,941.475 2511.82,940.095 2563.594,969.008  "/>
	<polygon fill="#A2A2A2" points="2511.82,940.095 2468.294,970.574 2563.594,969.008  "/>
	<polygon fill="#797979" points="2387.509,849.819 2314.196,938.871 2409.273,935.508  "/>
	<polygon fill="#BDBDBD" points="2468.294,970.574 2409.273,935.508 2384.513,969.523  "/>
	<polygon fill="#7A7A7A" points="2436.101,850.637 2387.509,849.819 2409.273,935.508  "/>
	<polygon fill="#9D9D9D" points="2481.591,860.329 2409.273,935.508 2511.82,940.095  "/>
	<polygon fill="#A0A0A0" points="2481.591,860.329 2436.101,850.637 2409.273,935.508  "/>
	<polygon fill="#CACACA" points="2409.273,935.508 2468.294,970.574 2511.82,940.095  "/>
	<polygon fill="#9B9B9B" points="2314.196,938.871 2384.513,969.523 2409.273,935.508  "/>
	<polygon fill="#5F5F5F" points="2468.294,970.574 2528.884,990.035 2563.594,969.008  "/>
	<polygon fill="#767676" points="2563.594,969.008 2528.884,990.035 2588.371,1010.848  "/>
	<polygon fill="#212121" points="2288.798,1028.583 2446.614,1029.631 2332.011,1020.159  "/>
	<polygon fill="#424242" points="2605.355,1029.576 2588.371,1010.848 2446.614,1029.631  "/>
	<polygon fill="#A0A0A0" points="2588.371,1010.848 2528.884,990.035 2446.614,1029.631  "/>
	<polygon fill="#DDDDDD" points="2426.326,1030.01 2446.614,1029.631 2288.798,1028.583  "/>
	<polygon fill="#CCCCCC" points="2605.355,1029.576 2446.614,1029.631 2426.326,1030.01  "/>
	<polygon fill="#979797" points="2302.295,989.949 2332.011,1020.159 2402.987,990.997  "/>
	<polygon fill="#A5A5A5" points="2446.614,1029.631 2402.987,990.997 2332.011,1020.159  "/>
	<polygon fill="#C8C8C8" points="2446.614,1029.631 2528.884,990.035 2402.987,990.997  "/>
	<polygon fill="#A2A2A2" points="2468.294,970.574 2402.987,990.997 2528.884,990.035  "/>
	<polygon fill="#7C7C7C" points="2384.513,969.523 2302.295,989.949 2402.987,990.997  "/>
	<polygon fill="#6D6D6D" points="2384.513,969.523 2402.987,990.997 2468.294,970.574  "/>
</g>

</svg>