<svg xmlns="http://www.w3.org/2000/svg" xmlns:xlink="http://www.w3.org/1999/xlink" version="1.1" id="Layer_1" x="0px" y="0px" viewBox="0 0 2674.243 1085.728" enable-background="new 0 0 2674.243 1085.728" xml:space="preserve">

<g id="sQueen">
	<polygon fill="#C68B8B" points="805.007,982.595 756.41,1018.605 701.957,983.651  "/>
	<polygon fill="#C28787" points="799.776,961.945 709.334,919.544 795.784,916.485  "/>
	<polygon fill="#BD8484" points="756.41,1018.605 644.319,1025.713 701.957,983.651  "/>
	<polygon fill="#BA8282" points="705.344,961.197 709.334,919.544 799.776,961.945  "/>
	<polygon fill="#7E5858" points="799.776,961.945 805.007,982.595 705.344,961.197  "/>
	<polygon fill="#7D5757" points="701.957,983.651 705.344,961.197 805.007,982.595  "/>
	<polygon fill="#AC7878" points="709.334,919.544 705.344,961.197 641.993,920.006  "/>
	<polygon fill="#2F2121" points="756.41,1018.605 887.352,1029.019 644.319,1025.713  "/>
	<polygon fill="#B57F7F" points="756.41,1018.605 805.007,982.595 887.352,1029.019  "/>
	<polygon fill="#B17C7C" points="795.784,916.485 870.8,921.713 799.776,961.945  "/>
	<polygon fill="#5F4242" points="814.225,200.809 814.202,225.117 746.25,221.539  "/>
	<polygon fill="#845C5C" points="746.25,221.539 814.202,225.117 750.573,259.925  "/>
	<polygon fill="#775353" points="746.25,221.539 750.573,259.925 683.086,212.173  "/>
	<polygon fill="#A77474" points="644.319,1025.713 594.835,977.752 701.957,983.651  "/>
	<polygon fill="#725050" points="705.344,961.197 701.957,983.651 594.835,977.752  "/>
	<polygon fill="#463131" points="814.225,200.809 864.457,253.704 814.202,225.117  "/>
	<polygon fill="#6E4D4D" points="805.007,982.595 799.776,961.945 913.182,981.726  "/>
	<polygon fill="#A47373" points="805.007,982.595 913.182,981.726 887.352,1029.019  "/>
	<polygon fill="#956868" points="799.776,961.945 870.8,921.713 872.466,963.449  "/>
	<polygon fill="#614444" points="872.466,963.449 913.182,981.726 799.776,961.945  "/>
	<polygon fill="#B17C7C" points="770.497,786.338 795.784,916.485 709.334,919.544  "/>
	<polygon fill="#A47373" points="750.573,259.925 689.559,317.993 683.086,212.173  "/>
	<polygon fill="#916666" points="689.559,317.993 644.337,258.355 683.086,212.173  "/>
	<polygon fill="#563C3C" points="619.383,962.9 705.344,961.197 594.835,977.752  "/>
	<polygon fill="#976969" points="641.993,920.006 705.344,961.197 619.383,962.9  "/>
	<polygon fill="#B07B7B" points="709.334,919.544 722.353,786.012 770.497,786.338  "/>
	<polygon fill="#9F6F6F" points="709.334,919.544 641.993,920.006 722.353,786.012  "/>
	<polygon fill="#815A5A" points="826.987,305.755 814.202,225.117 864.457,253.704  "/>
	<polygon fill="#906464" points="826.987,305.755 750.573,259.925 814.202,225.117  "/>
	<polygon fill="#6E4D4D" points="823.042,454.489 752.117,465.846 726.003,447.086  "/>
	<polygon fill="#CB8E8E" points="770.497,786.338 722.353,786.012 752.117,465.846  "/>
	<polygon fill="#B67F7F" points="726.003,447.086 719.845,381.735 774.348,372.073  "/>
	<polygon fill="#CA8D8D" points="719.845,381.735 689.559,317.993 774.348,372.073  "/>
	<polygon fill="#BF8686" points="726.003,447.086 774.348,372.073 823.042,454.489  "/>
	<polygon fill="#AA7777" points="774.348,372.073 750.573,259.925 826.987,305.755  "/>
	<polygon fill="#A77575" points="750.573,259.925 774.348,372.073 689.559,317.993  "/>
	<polygon fill="#262626" points="683.086,212.173 668.687,223.317 746.25,221.539  "/>
	<polygon fill="#171010" points="683.086,212.173 644.337,258.355 668.687,223.317  "/>
	<polygon fill="#8D6363" points="575.481,1015.939 594.835,977.752 644.319,1025.713  "/>
	<polygon fill="#212121" points="814.225,200.809 827.821,221.553 864.457,253.704  "/>
	<polygon fill="#5C5C5C" points="827.821,221.553 814.225,200.809 746.25,221.539  "/>
	<polygon fill="#453030" points="823.042,454.489 800.01,466.132 752.117,465.846  "/>
	<polygon fill="#C28888" points="770.497,786.338 752.117,465.846 800.01,466.132  "/>
	<polygon fill="#A47373" points="921.174,210.783 864.457,253.704 827.821,221.553  "/>
	<polygon fill="#A87676" points="644.337,258.355 582.372,214.628 668.687,223.317  "/>
	<polygon fill="#9B6C6C" points="870.8,921.713 795.784,916.485 818.748,786.855  "/>
	<polygon fill="#9D6E6E" points="795.784,916.485 770.497,786.338 818.748,786.855  "/>
	<polygon fill="#B67F7F" points="818.748,786.855 770.497,786.338 800.01,466.132  "/>
	<polygon fill="#362626" points="770.682,213.791 827.821,221.553 746.25,221.539  "/>
	<polygon fill="#A47272" points="726.003,447.086 646.073,445.329 719.845,381.735  "/>
	<polygon fill="#5D4141" points="752.117,465.846 698.381,467.512 726.003,447.086  "/>
	<polygon fill="#6D4C4C" points="726.003,447.086 698.381,467.512 646.073,445.329  "/>
	<polygon fill="#C28787" points="722.353,786.012 698.381,467.512 752.117,465.846  "/>
	<polygon fill="#7C5757" points="641.993,920.006 619.383,962.9 587.799,917.304  "/>
	<polygon fill="#735050" points="671.669,786.418 641.993,920.006 587.799,917.304  "/>
	<polygon fill="#8C6262" points="671.669,786.418 722.353,786.012 641.993,920.006  "/>
	<polygon fill="#A47373" points="671.669,786.418 698.381,467.512 722.353,786.012  "/>
	<polygon fill="#996B6B" points="822.102,378.051 774.348,372.073 826.987,305.755  "/>
	<polygon fill="#8E6363" points="823.042,454.489 774.348,372.073 822.102,378.051  "/>
	<polygon fill="#B78080" points="770.682,213.791 719.755,164.14 780.645,171.611  "/>
	<polygon fill="#5B4040" points="629.828,284.246 644.337,258.355 689.559,317.993  "/>
	<polygon fill="#5B4040" points="582.372,214.628 644.337,258.355 629.828,284.246  "/>
	<polygon fill="#614444" points="925.484,922.511 870.8,921.713 818.748,786.855  "/>
	<polygon fill="#6A4A4A" points="872.466,963.449 870.8,921.713 925.484,922.511  "/>
	<polygon fill="#BB8383" points="770.682,213.791 691.882,214.177 719.755,164.14  "/>
	<polygon fill="#261B1B" points="746.25,221.539 691.882,214.177 770.682,213.791  "/>
	<polygon fill="#7C5757" points="674.157,378.661 689.559,317.993 719.845,381.735  "/>
	<polygon fill="#7C5757" points="674.157,378.661 629.828,284.246 689.559,317.993  "/>
	<polygon fill="#775353" points="646.073,445.329 674.157,378.661 719.845,381.735  "/>
	<polygon fill="#342424" points="872.466,963.449 907.925,961.519 913.182,981.726  "/>
	<polygon fill="#523939" points="925.484,922.511 907.925,961.519 872.466,963.449  "/>
	<polygon fill="#735050" points="671.669,786.418 669.994,465.272 698.381,467.512  "/>
	<polygon fill="#533A3A" points="818.748,786.855 838.086,465.53 840.049,720.295  "/>
	<polygon fill="#2C1E1E" points="800.01,466.132 823.042,454.489 838.086,465.53  "/>
	<polygon fill="#755252" points="818.748,786.855 800.01,466.132 838.086,465.53  "/>
	<polygon fill="#6E4D4D" points="818.748,786.855 840.049,720.295 856.293,808.24  "/>
	<polygon fill="#483232" points="856.293,808.24 925.484,922.511 818.748,786.855  "/>
	<polygon fill="#432F2F" points="895.235,261.962 864.457,253.704 921.174,210.783  "/>
	<polygon fill="#6C4C4C" points="895.235,261.962 822.102,378.051 826.987,305.755  "/>
	<polygon fill="#453030" points="864.457,253.704 895.235,261.962 826.987,305.755  "/>
	<polygon fill="#6C4B4B" points="822.102,378.051 877.205,442.743 823.042,454.489  "/>
	<polygon fill="#312222" points="823.042,454.489 877.205,442.743 838.086,465.53  "/>
	<polygon fill="#503838" points="887.352,1029.019 913.182,981.726 941.253,1018.684  "/>
	<polygon points="668.687,223.317 643.845,220.682 746.25,221.539  "/>
	<polygon fill="#DD9999" points="582.372,214.628 643.845,220.682 668.687,223.317  "/>
	<polygon fill="#463131" points="691.882,214.177 746.25,221.539 643.845,220.682  "/>
	<polygon fill="#372626" points="605.819,258.565 629.828,284.246 674.157,378.661  "/>
	<polygon fill="#1F1616" points="629.828,284.246 605.819,258.565 582.372,214.628  "/>
	<polygon fill="#797979" points="643.845,220.682 582.372,214.628 605.819,258.565  "/>
	<polygon fill="#171010" points="827.821,221.553 770.682,213.791 858.57,220.634  "/>
	<polygon fill="#868686" points="858.57,220.634 895.235,261.962 921.174,210.783  "/>
	<polygon fill="#131313" points="827.821,221.553 858.57,220.634 921.174,210.783  "/>
	<polygon fill="#704E4E" points="719.755,164.14 754.213,137.845 780.645,171.611  "/>
	<polygon fill="#372626" points="671.669,786.418 657.976,787.702 669.994,465.272  "/>
	<polygon fill="#2E2020" points="671.669,786.418 587.799,917.304 657.976,787.702  "/>
	<polygon fill="#221818" points="820.357,201.118 780.645,171.611 754.213,137.845  "/>
	<polygon fill="#533A3A" points="770.682,213.791 820.357,201.118 858.57,220.634  "/>
	<polygon fill="#755252" points="770.682,213.791 780.645,171.611 820.357,201.118  "/>
	<polygon fill="#261B1B" points="834.969,381.002 877.205,442.743 822.102,378.051  "/>
	<polygon fill="#322323" points="895.235,261.962 834.969,381.002 822.102,378.051  "/>
	<polygon fill="#EEEEEE" points="657.976,787.702 670.38,466.543 669.994,465.272  "/>
	<polygon fill="#201616" points="674.157,378.661 646.073,445.329 668.684,376.828  "/>
	<polygon fill="#241919" points="691.882,214.177 686.758,207.116 719.755,164.14  "/>
	<polygon fill="#202020" points="686.758,207.116 754.213,137.845 719.755,164.14  "/>
	<polygon fill="#241919" points="643.845,220.682 686.758,207.116 691.882,214.177  "/>
	<polygon fill="#171010" points="579.676,921.32 657.976,787.702 587.799,917.304  "/>
	<polygon fill="#201717" points="619.383,962.9 594.835,977.752 592.721,962.342  "/>
	<polygon fill="#2F2121" points="592.721,962.342 587.799,917.304 619.383,962.9  "/>
	<polygon fill="#1E1515" points="587.799,917.304 592.721,962.342 579.676,921.32  "/>
	<polygon fill="#2D1F1F" points="941.253,1018.684 913.182,981.726 938.484,985.378  "/>
	<polygon fill="#231919" points="907.925,961.519 938.484,985.378 913.182,981.726  "/>
	<polygon fill="#1C1313" points="632.413,455.055 668.684,376.828 646.073,445.329  "/>
	<polygon fill="#735050" points="632.413,455.055 698.381,467.512 669.994,465.272  "/>
	<polygon points="669.994,465.272 670.38,466.543 632.413,455.055  "/>
	<polygon fill="#261A1A" points="646.073,445.329 698.381,467.512 632.413,455.055  "/>
	<polygon fill="#2D2D2D" points="830.256,730.066 840.049,720.295 838.086,465.53  "/>
	<polygon fill="#2D1F1F" points="575.481,1015.939 563.053,985.884 594.835,977.752  "/>
	<polygon fill="#1E1515" points="563.053,985.884 592.721,962.342 594.835,977.752  "/>
	<polygon fill="#825B5B" points="889.761,198.731 895.235,261.962 858.57,220.634  "/>
	<polygon fill="#2E2E2E" points="605.819,258.565 674.157,378.661 631.212,282.299  "/>
	<polygon fill="#1C1313" points="674.157,378.661 668.684,376.828 631.212,282.299  "/>
	<polygon fill="#3D3D3D" points="834.969,381.002 895.235,261.962 867.151,285.696  "/>
	<polygon fill="#454545" points="838.086,465.53 818.389,465.482 830.256,730.066  "/>
	<polygon points="887.352,1029.019 580.633,1029.917 644.319,1025.713  "/>
	<polygon fill="#DD9999" points="563.053,985.884 575.481,1015.939 580.633,1029.917  "/>
	<polygon fill="#1E1515" points="575.481,1015.939 644.319,1025.713 580.633,1029.917  "/>
	<polygon fill="#474747" points="579.676,921.32 674.428,789.185 657.976,787.702  "/>
	<polygon fill="#4E4E4E" points="674.428,789.185 670.38,466.543 657.976,787.702  "/>
	<polygon fill="#727272" points="754.213,137.845 686.758,207.116 759.714,177.777  "/>
	<polygon fill="#5C5C5C" points="820.357,201.118 754.213,137.845 759.714,177.777  "/>
	<polygon fill="#1A1A1A" points="907.925,961.519 896.013,961.266 938.484,985.378  "/>
	<polygon fill="#252525" points="907.925,961.519 925.484,922.511 896.013,961.266  "/>
	<polygon fill="#313131" points="830.256,730.066 839.287,807.945 840.049,720.295  "/>
	<polygon fill="#363636" points="839.287,807.945 856.293,808.24 840.049,720.295  "/>
	<polygon fill="#5E5E5E" points="877.205,442.743 834.969,381.002 804.145,371.604  "/>
	<polygon fill="#727272" points="867.151,285.696 804.145,371.604 834.969,381.002  "/>
	<polygon fill="#848484" points="820.357,201.118 763.869,214.961 858.57,220.634  "/>
	<polygon fill="#BBBBBB" points="763.869,214.961 759.714,177.777 686.758,207.116  "/>
	<polygon fill="#979797" points="763.869,214.961 820.357,201.118 759.714,177.777  "/>
	<polygon fill="#212121" points="579.047,213.102 605.819,258.565 631.212,282.299  "/>
	<polygon fill="#825B5B" points="643.845,220.682 605.819,258.565 579.047,213.102  "/>
	<polygon fill="#1C1C1C" points="838.086,465.53 851.727,454.88 818.389,465.482  "/>
	<polygon fill="#515151" points="851.727,454.88 877.205,442.743 804.145,371.604  "/>
	<polygon fill="#121212" points="838.086,465.53 877.205,442.743 851.727,454.88  "/>
	<polygon fill="#7A7A7A" points="674.428,789.185 702.919,465.954 670.38,466.543  "/>
	<polygon fill="#2D2D2D" points="670.38,466.543 702.919,465.954 632.413,455.055  "/>
	<polygon fill="#787878" points="668.684,376.828 703.231,373.37 631.212,282.299  "/>
	<polygon fill="#707070" points="668.684,376.828 632.413,455.055 703.231,373.37  "/>
	<polygon fill="#181818" points="867.151,285.696 895.235,261.962 923.198,225.614  "/>
	<polygon fill="#624444" points="923.198,225.614 895.235,261.962 889.761,198.731  "/>
	<polygon fill="#FFAAAA" points="579.047,213.102 676.434,222.88 643.845,220.682  "/>
	<polygon fill="#323232" points="643.845,220.682 676.434,222.88 686.758,207.116  "/>
	<polygon fill="#474747" points="686.758,207.116 676.434,222.88 763.869,214.961  "/>
	<polygon fill="#161616" points="858.57,220.634 763.869,214.961 834.007,222.397  "/>
	<polygon fill="#8C8C8C" points="889.761,198.731 834.007,222.397 923.198,225.614  "/>
	<polygon fill="#231818" points="889.761,198.731 858.57,220.634 834.007,222.397  "/>
	<polygon fill="#AAAAAA" points="674.428,789.185 715.042,713.715 702.919,465.954  "/>
	<polygon fill="#C6C6C6" points="766.153,466.668 702.919,465.954 715.042,713.715  "/>
	<polygon fill="#3D3D3D" points="818.389,465.482 851.727,454.88 766.153,466.668  "/>
	<polygon fill="#303030" points="839.287,807.945 906.464,917.172 856.293,808.24  "/>
	<polygon fill="#222222" points="856.293,808.24 906.464,917.172 925.484,922.511  "/>
	<polygon fill="#2B2B2B" points="896.013,961.266 925.484,922.511 906.464,917.172  "/>
	<polygon fill="#CACACA" points="776.557,730.106 766.153,466.668 715.042,713.715  "/>
	<polygon fill="#A2A2A2" points="776.557,730.106 830.256,730.066 818.389,465.482  "/>
	<polygon fill="#AFAFAF" points="818.389,465.482 766.153,466.668 776.557,730.106  "/>
	<polygon fill="#9D9D9D" points="776.557,730.106 839.287,807.945 830.256,730.066  "/>
	<polygon fill="#8D8D8D" points="674.428,789.185 706.87,804.694 715.042,713.715  "/>
	<polygon fill="#B0B0B0" points="776.557,730.106 766.046,810.537 839.287,807.945  "/>
	<polygon fill="#C6C6C6" points="766.046,810.537 776.557,730.106 715.042,713.715  "/>
	<polygon fill="#C6C6C6" points="766.046,810.537 715.042,713.715 706.87,804.694  "/>
	<polygon fill="#646464" points="852.202,261.064 867.151,285.696 923.198,225.614  "/>
	<polygon fill="#5D5D5D" points="867.151,285.696 852.202,261.064 804.145,371.604  "/>
	<polygon fill="#A9A9A9" points="852.202,261.064 923.198,225.614 834.007,222.397  "/>
	<polygon fill="#292929" points="763.869,214.961 676.434,222.88 748.359,222.608  "/>
	<polygon fill="#323232" points="748.359,222.608 834.007,222.397 763.869,214.961  "/>
	<polygon fill="#A7A7A7" points="790.256,436.795 804.145,371.604 754.319,378.535  "/>
	<polygon fill="#939393" points="790.256,436.795 851.727,454.88 804.145,371.604  "/>
	<polygon fill="#8F8F8F" points="676.434,222.88 579.047,213.102 653.527,254.32  "/>
	<polygon fill="#6B6B6B" points="631.212,282.299 653.527,254.32 579.047,213.102  "/>
	<polygon fill="#686868" points="703.231,373.37 653.527,254.32 631.212,282.299  "/>
	<polygon fill="#414141" points="896.013,961.266 901.164,984.478 938.484,985.378  "/>
	<polygon fill="#AFAFAF" points="717.502,453.493 754.319,378.535 703.231,373.37  "/>
	<polygon fill="#919191" points="632.413,455.055 717.502,453.493 703.231,373.37  "/>
	<polygon fill="#BEBEBE" points="717.502,453.493 790.256,436.795 754.319,378.535  "/>
	<polygon fill="#868686" points="717.502,453.493 851.727,454.88 790.256,436.795  "/>
	<polygon fill="#404040" points="766.153,466.668 717.502,453.493 702.919,465.954  "/>
	<polygon fill="#838383" points="851.727,454.88 717.502,453.493 766.153,466.668  "/>
	<polygon fill="#494949" points="702.919,465.954 717.502,453.493 632.413,455.055  "/>
	<polygon fill="#B4B4B4" points="754.319,378.535 759.3,301.933 703.231,373.37  "/>
	<polygon fill="#B4B4B4" points="759.3,301.933 653.527,254.32 703.231,373.37  "/>
	<polygon fill="#AAAAAA" points="754.319,378.535 804.145,371.604 759.3,301.933  "/>
	<polygon fill="#ACACAC" points="759.3,301.933 804.145,371.604 852.202,261.064  "/>
	<polygon fill="#606060" points="579.676,921.32 592.721,962.342 624.002,917.419  "/>
	<polygon fill="#535353" points="579.676,921.32 624.002,917.419 674.428,789.185  "/>
	<polygon fill="#8B8B8B" points="706.87,804.694 674.428,789.185 624.002,917.419  "/>
	<polygon fill="#DDDDDD" points="890.215,1028.364 580.633,1029.917 887.352,1029.019  "/>
	<polygon fill="#4C4C4C" points="941.253,1018.684 938.484,985.378 890.215,1028.364  "/>
	<polygon fill="#CCCCCC" points="941.253,1018.684 890.215,1028.364 887.352,1029.019  "/>
	<polygon fill="#5D5D5D" points="890.215,1028.364 938.484,985.378 901.164,984.478  "/>
	<polygon fill="#6C6C6C" points="624.002,917.419 592.721,962.342 657.156,960.857  "/>
	<polygon fill="#484848" points="657.156,960.857 592.721,962.342 563.053,985.884  "/>
	<polygon fill="#777777" points="835.662,961.728 896.013,961.266 906.464,917.172  "/>
	<polygon fill="#4D4D4D" points="896.013,961.266 835.662,961.728 901.164,984.478  "/>
	<polygon fill="#5D4141" points="694.427,198.007 748.359,222.608 676.434,222.88  "/>
	<polygon fill="#CC9999" points="676.434,222.88 653.527,254.32 694.427,198.007  "/>
	<polygon fill="#696969" points="563.053,985.884 580.633,1029.917 629.829,1017.256  "/>
	<polygon fill="#5E5E5E" points="694.427,198.007 757.647,252.305 748.359,222.608  "/>
	<polygon fill="#7E7E7E" points="563.053,985.884 629.829,1017.256 641.029,980.292  "/>
	<polygon fill="#4C4C4C" points="657.156,960.857 563.053,985.884 641.029,980.292  "/>
	<polygon fill="#747474" points="657.156,960.857 641.029,980.292 733.016,960.71  "/>
	<polygon fill="#B4B4B4" points="733.016,960.71 835.662,961.728 817.167,919.93  "/>
	<polygon fill="#979797" points="817.167,919.93 839.287,807.945 766.046,810.537  "/>
	<polygon fill="#8D8D8D" points="839.287,807.945 817.167,919.93 906.464,917.172  "/>
	<polygon fill="#9B9B9B" points="835.662,961.728 906.464,917.172 817.167,919.93  "/>
	<polygon fill="#909090" points="852.202,261.064 820.058,211.693 759.3,301.933  "/>
	<polygon fill="#1C1C1C" points="852.202,261.064 834.007,222.397 820.058,211.693  "/>
	<polygon fill="#251A1A" points="820.058,211.693 834.007,222.397 748.359,222.608  "/>
	<polygon fill="#7D7D7D" points="820.058,211.693 748.359,222.608 757.647,252.305  "/>
	<polygon fill="#B4B4B4" points="757.647,252.305 759.3,301.933 820.058,211.693  "/>
	<polygon fill="#767676" points="835.662,961.728 822.875,981.325 901.164,984.478  "/>
	<polygon fill="#6E6E6E" points="733.016,960.71 822.875,981.325 835.662,961.728  "/>
	<polygon fill="#A4A4A4" points="890.215,1028.364 901.164,984.478 822.875,981.325  "/>
	<polygon fill="#B2B2B2" points="766.046,810.537 722.391,920.643 817.167,919.93  "/>
	<polygon fill="#AAAAAA" points="722.391,920.643 766.046,810.537 706.87,804.694  "/>
	<polygon fill="#AFAFAF" points="657.156,960.857 722.391,920.643 624.002,917.419  "/>
	<polygon fill="#BEBEBE" points="733.016,960.71 817.167,919.93 722.391,920.643  "/>
	<polygon fill="#ACACAC" points="657.156,960.857 733.016,960.71 722.391,920.643  "/>
	<polygon fill="#A1A1A1" points="706.87,804.694 624.002,917.419 722.391,920.643  "/>
	<polygon fill="#B2B2B2" points="684.15,226.612 759.3,301.933 757.647,252.305  "/>
	<polygon fill="#2E2E2E" points="694.427,198.007 653.527,254.32 684.15,226.612  "/>
	<polygon fill="#707070" points="759.3,301.933 684.15,226.612 653.527,254.32  "/>
	<polygon fill="#858585" points="757.647,252.305 694.427,198.007 684.15,226.612  "/>
	<polygon fill="#313131" points="580.633,1029.917 772.223,1024.48 629.829,1017.256  "/>
	<polygon fill="#B2B2B2" points="772.223,1024.48 890.215,1028.364 822.875,981.325  "/>
	<polygon fill="#161616" points="890.215,1028.364 772.223,1024.48 580.633,1029.917  "/>
	<polygon fill="#C8C8C8" points="724.896,992.917 772.223,1024.48 822.875,981.325  "/>
	<polygon fill="#A6A6A6" points="772.223,1024.48 724.896,992.917 629.829,1017.256  "/>
	<polygon fill="#868686" points="724.896,992.917 733.016,960.71 641.029,980.292  "/>
	<polygon fill="#8F8F8F" points="733.016,960.71 724.896,992.917 822.875,981.325  "/>
	<polygon fill="#B7B7B7" points="629.829,1017.256 724.896,992.917 641.029,980.292  "/>
</g>

</svg>