<svg xmlns="http://www.w3.org/2000/svg" xmlns:xlink="http://www.w3.org/1999/xlink" version="1.1" id="Layer_1" x="0px" y="0px" viewBox="0 0 2674.243 1085.728" enable-background="new 0 0 2674.243 1085.728" xml:space="preserve">

<g id="sRook">
	<polygon fill="#CB8E8E" points="2002.911,1026.329 1997.946,987.567 2122.176,995.487  "/>
	<polygon fill="#C68A8A" points="2050.39,961.82 2017.458,914.504 2119.41,916.773  "/>
	<polygon fill="#A17070" points="1997.946,987.567 2050.39,961.82 2122.176,995.487  "/>
	<polygon fill="#C98D8D" points="2088.675,511.704 2085.746,444.692 2098.39,446.522  "/>
	<polygon fill="#CB8E8E" points="2027.13,410.015 2085.746,444.692 2088.675,511.704  "/>
	<polygon fill="#CA8D8D" points="2085.746,444.692 2027.13,410.015 2088.04,408.981  "/>
	<polygon points="2088.675,511.704 2025.816,445.753 2023.262,442.794  "/>
	<polygon fill="#C68B8B" points="2027.13,410.015 2088.675,511.704 2023.262,442.794  "/>
	<polygon fill="#CA8D8D" points="2025.816,445.753 1990.199,512.021 1996.992,446.944  "/>
	<polygon fill="#C98D8D" points="2025.816,445.753 2088.675,511.704 1990.199,512.021  "/>
	<polygon fill="#382727" points="2083.91,407.4 2088.04,408.981 2027.13,410.015  "/>
	<polygon fill="#A77575" points="2128.511,446.226 2088.675,511.704 2098.39,446.522  "/>
	<polygon fill="#2D2020" points="2128.511,446.226 2098.39,446.522 2085.746,444.692  "/>
	<polygon fill="#3C2A2A" points="2025.816,445.753 1996.992,446.944 1981.186,444.552  "/>
	<polygon fill="#9D6E6E" points="1990.199,512.021 1981.186,444.552 1996.992,446.944  "/>
	<polygon fill="#AF7A7A" points="2017.458,914.504 2050.39,961.82 1972.703,961.742  "/>
	<polygon fill="#745151" points="1972.703,961.742 2050.39,961.82 1997.946,987.567  "/>
	<polygon fill="#3C3C3C" points="2032.744,408.55 2027.13,410.015 2023.262,442.794  "/>
	<polygon fill="#181010" points="2083.91,407.4 2027.13,410.015 2032.744,408.55  "/>
	<polygon fill="#A97676" points="2119.41,916.773 2177.167,918.221 2165.847,960.349  "/>
	<polygon fill="#A97676" points="2050.39,961.82 2119.41,916.773 2165.847,960.349  "/>
	<polygon fill="#775353" points="2165.847,960.349 2122.176,995.487 2050.39,961.82  "/>
	<polygon fill="#533A3A" points="2088.675,511.704 2046.213,525.748 1990.199,512.021  "/>
	<polygon fill="#C88C8C" points="2049.701,606.307 2046.213,525.748 2095.961,527.823  "/>
	<polygon fill="#473131" points="2088.675,511.704 2095.961,527.823 2046.213,525.748  "/>
	<polygon fill="#885F5F" points="2165.847,960.349 2208.631,983.472 2122.176,995.487  "/>
	<polygon fill="#996B6B" points="2202.324,1029.452 2122.176,995.487 2208.631,983.472  "/>
	<polygon fill="#765252" points="2122.176,995.487 2202.324,1029.452 2002.911,1026.329  "/>
	<polygon fill="#B88080" points="2087.367,787.19 2017.458,914.504 2028.809,794.557  "/>
	<polygon fill="#BA8282" points="2087.367,787.19 2119.41,916.773 2017.458,914.504  "/>
	<polygon fill="#CB8E8E" points="2087.367,787.19 2049.701,606.307 2095.961,527.823  "/>
	<polygon fill="#CB8E8E" points="2028.809,794.557 2049.701,606.307 2087.367,787.19  "/>
	<polygon fill="#231818" points="1991.921,408.16 1985.185,410.3 1943.199,407.974  "/>
	<polygon fill="#A97676" points="1981.186,444.552 1943.199,407.974 1985.185,410.3  "/>
	<polygon fill="#A67474" points="1981.186,444.552 1990.199,512.021 1943.199,407.974  "/>
	<polygon fill="#A77474" points="1972.703,961.742 1921.526,912.876 2017.458,914.504  "/>
	<polygon fill="#9A6C6C" points="1921.526,912.876 2028.809,794.557 2017.458,914.504  "/>
	<polygon fill="#7F5959" points="1972.703,961.742 1997.946,987.567 1896.647,989.639  "/>
	<polygon fill="#A47272" points="2002.911,1026.329 1896.647,989.639 1997.946,987.567  "/>
	<polygon fill="#6C4C4C" points="2113.184,408.064 2130.913,436.547 2128.511,446.226  "/>
	<polygon fill="#684949" points="2128.525,408.727 2130.913,436.547 2113.184,408.064  "/>
	<polygon fill="#9E6E6E" points="1933.471,511.551 1943.199,407.974 1990.199,512.021  "/>
	<polygon fill="#835C5C" points="2172.985,444.514 2130.913,436.547 2128.525,408.727  "/>
	<polygon fill="#5C4040" points="1943.199,407.974 1933.471,511.551 1935.011,445.662  "/>
	<polygon fill="#B57F7F" points="2196.894,497.535 2128.511,446.226 2130.913,436.547  "/>
	<polygon fill="#AD7979" points="2128.511,446.226 2196.894,497.535 2088.675,511.704  "/>
	<polygon fill="#825B5B" points="2172.985,444.514 2196.894,497.535 2130.913,436.547  "/>
	<polygon fill="#432F2F" points="1990.199,512.021 1978.914,525.433 1933.471,511.551  "/>
	<polygon fill="#3F2C2C" points="2046.213,525.748 1978.914,525.433 1990.199,512.021  "/>
	<polygon fill="#BC8383" points="1978.914,525.433 2046.213,525.748 2049.701,606.307  "/>
	<polygon fill="#1A1212" points="1937.495,409.814 1942.722,407.155 1943.199,407.974  "/>
	<polygon fill="#4D3636" points="1943.199,407.974 1935.011,445.662 1937.495,409.814  "/>
	<polygon points="2159.719,407.585 2128.525,408.727 2113.184,408.064  "/>
	<polygon fill="#7A5555" points="2172.985,444.514 2128.525,408.727 2159.719,407.585  "/>
	<polygon fill="#A47272" points="2119.41,916.773 2087.367,787.19 2129.076,785  "/>
	<polygon fill="#9D6E6E" points="2119.41,916.773 2129.076,785 2177.167,918.221  "/>
	<polygon fill="#B37D7D" points="2087.367,787.19 2095.961,527.823 2129.076,785  "/>
	<polygon fill="#3C3C3C" points="2055.709,443.501 2023.262,442.794 2025.816,445.753  "/>
	<polygon points="2025.816,445.753 1981.186,444.552 2055.709,443.501  "/>
	<polygon fill="#535353" points="2088.04,408.981 2055.709,443.501 2085.746,444.692  "/>
	<polygon fill="#676767" points="2088.04,408.981 2083.91,407.4 2055.709,443.501  "/>
	<polygon fill="#AC7979" points="1978.914,525.433 2049.701,606.307 1981.672,571.254  "/>
	<polygon fill="#BD8484" points="2028.809,794.557 1981.672,571.254 2049.701,606.307  "/>
	<polygon fill="#111111" points="2052.636,409.59 2083.91,407.4 2032.744,408.55  "/>
	<polygon fill="#5F5F5F" points="2055.709,443.501 2083.91,407.4 2052.636,409.59  "/>
	<polygon fill="#5F5F5F" points="2055.709,443.501 2052.636,409.59 2023.262,442.794  "/>
	<polygon fill="#535353" points="2032.744,408.55 2023.262,442.794 2052.636,409.59  "/>
	<polygon fill="#6D6D6D" points="1937.495,409.814 1966.276,409.457 1942.722,407.155  "/>
	<polygon fill="#171010" points="1942.722,407.155 1966.276,409.457 1943.199,407.974  "/>
	<polygon fill="#996B6B" points="1972.509,799.445 2028.809,794.557 1921.526,912.876  "/>
	<polygon fill="#AC7878" points="1981.672,571.254 2028.809,794.557 1972.509,799.445  "/>
	<polygon fill="#141414" points="2159.719,407.585 2113.184,408.064 2124.028,409.137  "/>
	<polygon fill="#B6B6B6" points="2159.719,407.585 2124.028,409.137 2172.985,444.514  "/>
	<polygon fill="#6D4C4C" points="2214.955,915.204 2165.847,960.349 2177.167,918.221  "/>
	<polygon fill="#A07070" points="2149.634,529.102 2129.076,785 2095.961,527.823  "/>
	<polygon fill="#563C3C" points="2196.894,497.535 2149.634,529.102 2088.675,511.704  "/>
	<polygon fill="#4B3434" points="2149.634,529.102 2095.961,527.823 2088.675,511.704  "/>
	<polygon fill="#BCBCBC" points="2101.47,443.363 2172.985,444.514 2124.028,409.137  "/>
	<polygon points="2128.511,446.226 2085.746,444.692 2101.47,443.363  "/>
	<polygon fill="#FFAAAA" points="2055.709,443.501 2101.47,443.363 2085.746,444.692  "/>
	<polygon fill="#553B3B" points="2113.184,408.064 2128.511,446.226 2097.844,409.056  "/>
	<polygon fill="#4D3636" points="2101.47,443.363 2097.844,409.056 2128.511,446.226  "/>
	<polygon fill="#C7C7C7" points="2101.47,443.363 2124.028,409.137 2097.844,409.056  "/>
	<polygon fill="#121212" points="2113.184,408.064 2097.844,409.056 2124.028,409.137  "/>
	<polygon fill="#BEBEBE" points="2011.849,443.659 1937.495,409.814 1935.011,445.662  "/>
	<polygon fill="#EEAAAA" points="2011.849,443.659 2055.709,443.501 1981.186,444.552  "/>
	<polygon fill="#533A3A" points="1985.185,410.3 1991.921,408.16 2011.849,443.659  "/>
	<polygon fill="#563C3C" points="1985.185,410.3 2011.849,443.659 1981.186,444.552  "/>
	<polygon fill="#BBBBBB" points="1937.495,409.814 2011.849,443.659 1966.276,409.457  "/>
	<polygon fill="#4B3535" points="2011.849,443.659 1991.921,408.16 2011.707,407.801  "/>
	<polygon fill="#C1C1C1" points="1966.276,409.457 2011.849,443.659 2011.707,407.801  "/>
	<polygon fill="#EE9999" points="1943.199,407.974 2011.707,407.801 1991.921,408.16  "/>
	<polygon fill="#232323" points="1943.199,407.974 1966.276,409.457 2011.707,407.801  "/>
	<polygon fill="#845C5C" points="2196.894,497.535 2172.985,444.514 2204.594,446.567  "/>
	<polygon fill="#171010" points="1935.011,445.662 1918.381,443.797 2011.849,443.659  "/>
	<polygon fill="#5C4040" points="1935.011,445.662 1933.471,511.551 1918.381,443.797  "/>
	<polygon fill="#765252" points="1891.594,1029.875 1896.647,989.639 2002.911,1026.329  "/>
	<polygon points="2202.324,1029.452 1891.594,1029.875 2002.911,1026.329  "/>
	<polygon fill="#3E2C2C" points="2203.059,444.894 2204.594,446.567 2172.985,444.514  "/>
	<polygon fill="#865D5D" points="1933.471,511.551 1914.877,446.646 1918.381,443.797  "/>
	<polygon fill="#6C4B4B" points="2159.15,796.314 2177.167,918.221 2129.076,785  "/>
	<polygon fill="#885F5F" points="2159.15,796.314 2129.076,785 2149.634,529.102  "/>
	<polygon fill="#6C4C4C" points="2214.955,915.204 2177.167,918.221 2159.15,796.314  "/>
	<polygon fill="#724F4F" points="1908.882,962.57 1921.526,912.876 1972.703,961.742  "/>
	<polygon fill="#473232" points="1972.703,961.742 1896.647,989.639 1908.882,962.57  "/>
	<polygon fill="#704E4E" points="1916.962,411.188 1916.92,440.044 1906.048,416.129  "/>
	<polygon fill="#845D5D" points="2203.983,441.989 2191.588,411.44 2209.686,409.774  "/>
	<polygon fill="#1C1313" points="2191.588,411.44 2132.251,409.299 2209.686,409.774  "/>
	<polygon fill="#604343" points="1916.92,440.044 1905.566,510.793 1906.048,416.129  "/>
	<polygon fill="#513939" points="1933.471,511.551 1905.566,510.793 1914.877,446.646  "/>
	<polygon fill="#898989" points="1916.92,440.044 1914.877,446.646 1905.566,510.793  "/>
	<polygon fill="#503838" points="1891.585,920.739 1921.526,912.876 1908.882,962.57  "/>
	<polygon fill="#563C3C" points="2202.324,1029.452 2208.631,983.472 2244.289,993.701  "/>
	<polygon fill="#201616" points="2208.631,983.472 2165.847,960.349 2244.289,993.701  "/>
	<polygon fill="#BC8484" points="2191.588,411.44 2118.985,443.811 2132.251,409.299  "/>
	<polygon fill="#BC8484" points="2191.588,411.44 2203.983,441.989 2118.985,443.811  "/>
	<polygon fill="#CC8888" points="2203.059,444.894 2172.985,444.514 2118.985,443.811  "/>
	<polygon fill="#DDDDDD" points="2101.47,443.363 2118.985,443.811 2172.985,444.514  "/>
	<polygon fill="#AC7878" points="2118.985,443.811 2203.983,441.989 2203.059,444.894  "/>
	<polygon fill="#2A1E1E" points="2149.634,529.102 2196.894,497.535 2169.163,526.555  "/>
	<polygon fill="#AF7B7B" points="2116.784,408.609 2132.251,409.299 2118.985,443.811  "/>
	<polygon fill="#281C1C" points="1978.914,525.433 1948.263,528.013 1933.471,511.551  "/>
	<polygon fill="#563C3C" points="1948.263,528.013 1978.914,525.433 1981.672,571.254  "/>
	<polygon fill="#251919" points="1933.471,511.551 1948.263,528.013 1905.566,510.793  "/>
	<polygon fill="#B57E7E" points="1916.962,411.188 1934.646,407.292 1995.07,408.178  "/>
	<polygon fill="#BC8383" points="1916.962,411.188 1995.07,408.178 1916.92,440.044  "/>
	<polygon fill="#AF7B7B" points="1992.791,443.308 1914.877,446.646 1916.92,440.044  "/>
	<polygon fill="#DD9999" points="2101.47,443.363 2055.709,443.501 1992.791,443.308  "/>
	<polygon fill="#B98181" points="1992.791,443.308 1916.92,440.044 1995.07,408.178  "/>
	<polygon fill="#EEEEEE" points="2118.985,443.811 2101.47,443.363 1992.791,443.308  "/>
	<polygon fill="#EEAAAA" points="2055.709,443.501 2011.849,443.659 1992.791,443.308  "/>
	<polygon fill="#696969" points="1992.791,443.308 1918.381,443.797 1914.877,446.646  "/>
	<polygon fill="#EEAAAA" points="1992.791,443.308 2011.849,443.659 1918.381,443.797  "/>
	<polygon fill="#513838" points="2214.955,915.204 2210.103,962.157 2165.847,960.349  "/>
	<polygon fill="#3E2B2B" points="2165.847,960.349 2210.103,962.157 2244.289,993.701  "/>
	<polygon fill="#453030" points="1972.509,799.445 1952.84,785.094 1981.672,571.254  "/>
	<polygon fill="#644646" points="1952.84,785.094 1948.263,528.013 1981.672,571.254  "/>
	<polygon fill="#412D2D" points="1891.585,920.739 1952.84,785.094 1921.526,912.876  "/>
	<polygon fill="#4F3737" points="1921.526,912.876 1952.84,785.094 1972.509,799.445  "/>
	<polygon points="2132.251,409.299 2116.784,408.609 2135.408,408.58  "/>
	<polygon fill="#B3B3B3" points="2118.985,443.811 2135.408,408.58 2116.784,408.609  "/>
	<polygon points="2135.408,408.58 2209.686,409.774 2132.251,409.299  "/>
	<polygon fill="#563C3C" points="2149.634,529.102 2169.163,526.555 2161.315,782.198  "/>
	<polygon fill="#2F2121" points="2214.955,915.204 2159.15,796.314 2161.315,782.198  "/>
	<polygon fill="#171010" points="2159.15,796.314 2149.634,529.102 2161.315,782.198  "/>
	<polygon points="1925.795,407.442 1934.646,407.292 1916.962,411.188  "/>
	<polygon fill="#DDDDDD" points="1995.07,408.178 1934.646,407.292 1925.795,407.442  "/>
	<polygon points="2135.408,408.58 2194.031,408.203 2209.686,409.774  "/>
	<polygon fill="#282828" points="1906.048,416.129 1905.566,510.793 1912.879,444.472  "/>
	<polygon fill="#241919" points="2210.103,962.157 2214.955,915.204 2224.951,917.742  "/>
	<polygon fill="#1F1515" points="2224.951,917.742 2214.955,915.204 2161.315,782.198  "/>
	<polygon fill="#BFBFBF" points="2194.031,408.203 2135.408,408.58 2202.313,445.844  "/>
	<polygon fill="#B9B9B9" points="2118.985,443.811 2202.313,445.844 2135.408,408.58  "/>
	<polygon fill="#474747" points="2202.313,445.844 2209.686,409.774 2194.031,408.203  "/>
	<polygon fill="#111111" points="1906.048,416.129 1915.747,413.582 1916.962,411.188  "/>
	<polygon fill="#101010" points="1925.795,407.442 1916.962,411.188 1915.747,413.582  "/>
	<polygon fill="#BABABA" points="1915.747,413.582 1992.791,443.308 1995.07,408.178  "/>
	<polygon fill="#2E2E2E" points="1906.048,416.129 1912.879,444.472 1915.747,413.582  "/>
	<polygon fill="#939393" points="1915.747,413.582 1995.07,408.178 1925.795,407.442  "/>
	<polygon fill="#BBBBBB" points="1992.791,443.308 1915.747,413.582 1912.879,444.472  "/>
	<polygon fill="#1B1313" points="1912.879,444.472 1905.566,510.793 1912.35,444.89  "/>
	<polygon fill="#281C1C" points="1891.594,1029.875 1878.317,986.595 1896.647,989.639  "/>
	<polygon fill="#251A1A" points="1908.882,962.57 1896.647,989.639 1878.317,986.595  "/>
	<polygon fill="#DD9999" points="2102.307,443.595 2118.985,443.811 1992.791,443.308  "/>
	<polygon fill="#DDDDDD" points="1912.879,444.472 2011.098,443.303 1992.791,443.308  "/>
	<polygon fill="#1A1A1A" points="1912.879,444.472 1912.35,444.89 2011.098,443.303  "/>
	<polygon fill="#241919" points="2209.988,503.665 2203.983,441.989 2209.686,409.774  "/>
	<polygon fill="#434343" points="2202.313,445.844 2209.988,503.665 2209.686,409.774  "/>
	<polygon fill="#211717" points="2204.594,446.567 2209.988,503.665 2196.894,497.535  "/>
	<polygon fill="#313131" points="2204.594,446.567 2203.059,444.894 2209.988,503.665  "/>
	<polygon fill="#1F1616" points="2196.894,497.535 2209.988,503.665 2169.163,526.555  "/>
	<polygon fill="#583D3D" points="2209.988,503.665 2203.059,444.894 2203.983,441.989  "/>
	<polygon fill="#323232" points="2161.315,782.198 2156.414,789.478 2224.951,917.742  "/>
	<polygon fill="#242424" points="2156.414,789.478 2161.315,782.198 2158.327,526.661  "/>
	<polygon fill="#1A1A1A" points="2169.163,526.555 2209.988,503.665 2158.327,526.661  "/>
	<polygon fill="#2E2E2E" points="2169.163,526.555 2158.327,526.661 2161.315,782.198  "/>
	<polygon fill="#C08686" points="2102.307,443.595 2100.438,408.264 2152.948,410.059  "/>
	<polygon fill="#DD9999" points="2011.098,443.303 2056.397,443.642 1992.791,443.308  "/>
	<polygon fill="#DDDDDD" points="2056.397,443.642 2102.307,443.595 1992.791,443.308  "/>
	<polygon fill="#1A1212" points="2219.588,1027.698 2202.324,1029.452 2244.289,993.701  "/>
	<polygon fill="#C08686" points="2011.098,443.303 1946.171,407.666 2015.385,409.746  "/>
	<polygon fill="#2B2B2B" points="2210.103,962.157 2224.951,917.742 2196.789,963.24  "/>
	<polygon fill="#131313" points="1891.594,1029.875 1892.626,1021.259 1878.317,986.595  "/>
	<polygon fill="#3D3D3D" points="1952.84,785.094 1967.562,526.574 1948.263,528.013  "/>
	<polygon fill="#3D3D3D" points="1952.84,785.094 1966.779,783.98 1967.562,526.574  "/>
	<polygon fill="#DDDDDD" points="1919.934,444.892 2011.098,443.303 1912.35,444.89  "/>
	<polygon fill="#C08686" points="1926.558,409.031 1946.171,407.666 2011.098,443.303  "/>
	<polygon fill="#363636" points="1904.351,917.324 1966.779,783.98 1952.84,785.094  "/>
	<polygon fill="#2A2A2A" points="1908.882,962.57 1904.351,917.324 1891.585,920.739  "/>
	<polygon fill="#242424" points="1891.585,920.739 1904.351,917.324 1952.84,785.094  "/>
	<polygon fill="#454545" points="2202.313,445.844 2188.652,445.154 2209.988,503.665  "/>
	<polygon fill="#B78080" points="2181.705,408.79 2188.652,445.154 2152.948,410.059  "/>
	<polygon fill="#BD8484" points="2102.307,443.595 2152.948,410.059 2188.652,445.154  "/>
	<polygon fill="#DDDDDD" points="2118.985,443.811 2102.307,443.595 2188.652,445.154  "/>
	<polygon fill="#EE9999" points="2118.985,443.811 2188.652,445.154 2202.313,445.844  "/>
	<polygon fill="#2E2E2E" points="1919.934,444.892 1923.558,446.154 2011.098,443.303  "/>
	<polygon fill="#BC8383" points="1926.558,409.031 2011.098,443.303 1923.558,446.154  "/>
	<polygon fill="#EEEEEE" points="2015.385,409.746 1946.171,407.666 1999.218,409.493  "/>
	<polygon fill="#252525" points="1908.882,962.57 1924.853,961.707 1904.351,917.324  "/>
	<polygon fill="#191919" points="1924.853,961.707 1908.882,962.57 1878.317,986.595  "/>
	<polygon fill="#333333" points="1912.35,444.89 1925.44,510.837 1919.934,444.892  "/>
	<polygon fill="#333333" points="1912.35,444.89 1905.566,510.793 1925.44,510.837  "/>
	<polygon fill="#1B1B1B" points="1905.566,510.793 1948.263,528.013 1925.44,510.837  "/>
	<polygon fill="#6E6E6E" points="1925.44,510.837 1923.558,446.154 1919.934,444.892  "/>
	<polygon fill="#1F1F1F" points="1948.263,528.013 1967.562,526.574 1925.44,510.837  "/>
	<polygon fill="#5F4242" points="2056.397,443.642 2040.798,408.388 2056.18,408.326  "/>
	<polygon fill="#7D7D7D" points="1966.779,783.98 1904.351,917.324 1996.191,781.136  "/>
	<polygon fill="#8C8C8C" points="1966.779,783.98 1996.191,781.136 1967.562,526.574  "/>
	<polygon fill="#5A3F3F" points="2073.403,407.711 2056.397,443.642 2056.18,408.326  "/>
	<polygon fill="#EE9999" points="2073.403,407.711 2056.18,408.326 2040.798,408.388  "/>
	<polygon fill="#979797" points="2156.414,789.478 2158.327,526.661 2111.832,627.974  "/>
	<polygon fill="#383838" points="2244.289,993.701 2218.425,989.649 2219.588,1027.698  "/>
	<polygon fill="#252525" points="2244.289,993.701 2210.103,962.157 2218.425,989.649  "/>
	<polygon fill="#262626" points="2196.789,963.24 2218.425,989.649 2210.103,962.157  "/>
	<polygon fill="#808080" points="2111.832,627.974 2113.82,800.169 2156.414,789.478  "/>
	<polygon fill="#A5A5A5" points="1967.562,526.574 1996.191,781.136 2017.511,528.948  "/>
	<polygon fill="#C9C9C9" points="2113.82,800.169 2111.832,627.974 2046.484,696.725  "/>
	<polygon fill="#C2C2C2" points="1996.191,781.136 2046.484,696.725 2017.511,528.948  "/>
	<polygon fill="#535353" points="2224.951,917.742 2156.414,789.478 2189.744,917.677  "/>
	<polygon fill="#7D7D7D" points="2189.744,917.677 2156.414,789.478 2113.82,800.169  "/>
	<polygon fill="#575757" points="2224.951,917.742 2189.744,917.677 2196.789,963.24  "/>
	<polygon fill="#CBCBCB" points="2046.484,696.725 2091.793,527.993 2017.511,528.948  "/>
	<polygon fill="#9E9E9E" points="2091.793,527.993 2111.832,627.974 2158.327,526.661  "/>
	<polygon fill="#C2C2C2" points="2111.832,627.974 2091.793,527.993 2046.484,696.725  "/>
	<polygon fill="#483232" points="2040.798,408.388 2056.397,443.642 2031.218,407.773  "/>
	<polygon points="2031.218,407.773 2073.403,407.711 2040.798,408.388  "/>
	<polygon fill="#FFAAAA" points="2031.218,407.773 2080.086,407.371 2073.403,407.711  "/>
	<polygon fill="#FFBBBB" points="1946.171,407.666 1980.629,408.181 1999.218,409.493  "/>
	<polygon fill="#B3B3B3" points="1996.191,781.136 2045.498,805.495 2046.484,696.725  "/>
	<polygon fill="#C7C7C7" points="2113.82,800.169 2046.484,696.725 2045.498,805.495  "/>
	<polygon points="2181.705,408.79 2152.948,410.059 2166.517,407.733  "/>
	<polygon fill="#444444" points="2166.517,407.733 2188.652,445.154 2181.705,408.79  "/>
	<polygon fill="#434343" points="2209.988,503.665 2188.652,445.154 2166.517,407.733  "/>
	<polygon points="2100.438,408.264 2166.517,407.733 2152.948,410.059  "/>
	<polygon fill="#151515" points="2100.438,408.264 2109.325,409.268 2166.517,407.733  "/>
	<polygon fill="#181010" points="2109.325,409.268 2128.259,407.381 2166.517,407.733  "/>
	<polygon fill="#181818" points="2128.259,407.381 2130.775,407.874 2166.517,407.733  "/>
	<polygon fill="#2F2F2F" points="2158.327,526.661 2209.988,503.665 2159.63,512.864  "/>
	<polygon fill="#323232" points="2158.327,526.661 2159.63,512.864 2091.793,527.993  "/>
	<polygon fill="#787878" points="2159.63,512.864 2209.988,503.665 2166.517,407.733  "/>
	<polygon fill="#797979" points="1923.558,446.154 1959.936,409.643 1926.558,409.031  "/>
	<polygon fill="#828282" points="1923.558,446.154 1925.44,510.837 1959.936,409.643  "/>
	<polygon fill="#161616" points="1946.171,407.666 1959.936,409.643 1980.629,408.181  "/>
	<polygon fill="#161616" points="1946.171,407.666 1926.558,409.031 1959.936,409.643  "/>
	<polygon fill="#585858" points="1916.828,993.917 1878.317,986.595 1892.626,1021.259  "/>
	<polygon fill="#4F4F4F" points="1924.853,961.707 1878.317,986.595 1916.828,993.917  "/>
	<polygon fill="#2C2C2C" points="1976.013,409.904 1980.629,408.181 1959.936,409.643  "/>
	<polygon fill="#272727" points="2130.775,407.874 2134.979,409.492 2166.517,407.733  "/>
	<polygon fill="#4D4D4D" points="2011.098,443.303 2015.385,409.746 1977.827,446.175  "/>
	<polygon fill="#555555" points="1999.218,409.493 1977.827,446.175 2015.385,409.746  "/>
	<polygon fill="#9F9F9F" points="1925.44,510.837 1975.721,441.107 1959.936,409.643  "/>
	<polygon fill="#BCBCBC" points="1975.721,441.107 1976.013,409.904 1959.936,409.643  "/>
	<polygon fill="#666666" points="1976.013,409.904 1975.721,441.107 1980.629,408.181  "/>
	<polygon fill="#6C6C6C" points="1999.218,409.493 1975.721,441.107 1977.827,446.175  "/>
	<polygon fill="#606060" points="1980.629,408.181 1975.721,441.107 1999.218,409.493  "/>
	<polygon fill="#B5B5B5" points="1925.44,510.837 1977.827,446.175 1975.721,441.107  "/>
	<polygon fill="#DDDDDD" points="2102.307,443.595 2056.397,443.642 2137.122,443.76  "/>
	<polygon fill="#5E5E5E" points="2128.259,407.381 2109.325,409.268 2133.944,445.875  "/>
	<polygon fill="#444444" points="2128.259,407.381 2133.944,445.875 2130.775,407.874  "/>
	<polygon fill="#4F4F4F" points="2134.979,409.492 2130.775,407.874 2133.944,445.875  "/>
	<polygon fill="#C1C1C1" points="2134.979,409.492 2133.944,445.875 2166.517,407.733  "/>
	<polygon fill="#1D1414" points="1975.943,447.869 1977.827,446.175 1925.44,510.837  "/>
	<polygon fill="#6D4C4C" points="2109.325,409.268 2137.25,446.885 2133.944,445.875  "/>
	<polygon fill="#4E4E4E" points="2102.307,443.595 2137.25,446.885 2100.438,408.264  "/>
	<polygon fill="#4E3737" points="2102.307,443.595 2137.122,443.76 2137.25,446.885  "/>
	<polygon fill="#B4B4B4" points="2137.25,446.885 2159.63,512.864 2166.517,407.733  "/>
	<polygon fill="#AAAAAA" points="2137.25,446.885 2166.517,407.733 2133.944,445.875  "/>
	<polygon fill="#3A3A3A" points="2109.325,409.268 2100.438,408.264 2137.25,446.885  "/>
	<polygon fill="#7D7D7D" points="2196.789,963.24 2189.744,917.677 2135.483,962.312  "/>
	<polygon fill="#515151" points="2196.789,963.24 2135.483,962.312 2218.425,989.649  "/>
	<polygon fill="#604343" points="2018.229,411.221 2031.218,407.773 2056.397,443.642  "/>
	<polygon fill="#5A3F3F" points="2094.848,410.962 2056.397,443.642 2073.403,407.711  "/>
	<polygon fill="#2B1E1E" points="2094.848,410.962 2073.403,407.711 2080.086,407.371  "/>
	<polygon fill="#282828" points="2080.086,407.371 2031.218,407.773 2094.848,410.962  "/>
	<polygon fill="#848484" points="1904.351,917.324 1924.853,961.707 1964.538,917.082  "/>
	<polygon fill="#7C7C7C" points="1904.351,917.324 1964.538,917.082 1996.191,781.136  "/>
	<polygon fill="#AFAFAF" points="1964.538,917.082 2045.498,805.495 1996.191,781.136  "/>
	<polygon fill="#151515" points="2095.357,446.159 2137.122,443.76 2056.397,443.642  "/>
	<polygon fill="#583D3D" points="2056.397,443.642 2094.848,410.962 2095.357,446.159  "/>
	<polygon fill="#FFFFFF" points="1977.827,446.175 2018.764,444.725 2011.098,443.303  "/>
	<polygon fill="#525252" points="1977.827,446.175 1975.943,447.869 2018.764,444.725  "/>
	<polygon fill="#553B3B" points="2018.229,411.221 2056.397,443.642 2018.764,444.725  "/>
	<polygon fill="#FFFFFF" points="2056.397,443.642 2011.098,443.303 2018.764,444.725  "/>
	<polygon fill="#747474" points="1892.626,1021.259 1967.321,1026.606 1916.828,993.917  "/>
	<polygon fill="#1B1B1B" points="1891.594,1029.875 1967.321,1026.606 1892.626,1021.259  "/>
	<polygon fill="#9F9F9F" points="1975.943,447.869 1925.44,510.837 2003.414,507.657  "/>
	<polygon fill="#4C4C4C" points="2017.511,528.948 2003.414,507.657 1967.562,526.574  "/>
	<polygon fill="#484848" points="1967.562,526.574 2003.414,507.657 1925.44,510.837  "/>
	<polygon fill="#5E5E5E" points="2091.793,527.993 2003.414,507.657 2017.511,528.948  "/>
	<polygon fill="#BEBEBE" points="2003.414,507.657 2018.764,444.725 1975.943,447.869  "/>
	<polygon fill="#666666" points="2166.031,1016.915 2219.588,1027.698 2218.425,989.649  "/>
	<polygon fill="#8F8F8F" points="2020.155,962.583 1964.538,917.082 1924.853,961.707  "/>
	<polygon fill="#BEBEBE" points="2095.357,446.159 2090.523,511.694 2137.122,443.76  "/>
	<polygon fill="#4D4D4D" points="2091.793,527.993 2090.523,511.694 2003.414,507.657  "/>
	<polygon fill="#B5B5B5" points="2090.523,511.694 2159.63,512.864 2137.25,446.885  "/>
	<polygon fill="#ACACAC" points="2090.523,511.694 2137.25,446.885 2137.122,443.76  "/>
	<polygon fill="#4E4E4E" points="2159.63,512.864 2090.523,511.694 2091.793,527.993  "/>
	<polygon fill="#BCBCBC" points="2054.706,412.506 2095.357,446.159 2094.848,410.962  "/>
	<polygon fill="#212121" points="2054.706,412.506 2094.848,410.962 2031.218,407.773  "/>
	<polygon fill="#242424" points="2054.706,412.506 2031.218,407.773 2018.229,411.221  "/>
	<polygon fill="#BBBBBB" points="2054.706,412.506 2018.764,444.725 2003.414,507.657  "/>
	<polygon fill="#CBCBCB" points="2090.523,511.694 2054.706,412.506 2003.414,507.657  "/>
	<polygon fill="#B9B9B9" points="2018.764,444.725 2054.706,412.506 2018.229,411.221  "/>
	<polygon fill="#C0C0C0" points="2054.706,412.506 2090.523,511.694 2095.357,446.159  "/>
	<polygon fill="#959595" points="2121.506,914.929 2189.744,917.677 2113.82,800.169  "/>
	<polygon fill="#B9B9B9" points="2121.506,914.929 2020.155,962.583 2135.483,962.312  "/>
	<polygon fill="#A1A1A1" points="2121.506,914.929 2135.483,962.312 2189.744,917.677  "/>
	<polygon fill="#B4B4B4" points="2113.82,800.169 2045.498,805.495 2121.506,914.929  "/>
	<polygon fill="#BDBDBD" points="1964.538,917.082 2020.155,962.583 2038.971,918.196  "/>
	<polygon fill="#B9B9B9" points="2045.498,805.495 2038.971,918.196 2121.506,914.929  "/>
	<polygon fill="#B0B0B0" points="2045.498,805.495 1964.538,917.082 2038.971,918.196  "/>
	<polygon fill="#BCBCBC" points="2020.155,962.583 2121.506,914.929 2038.971,918.196  "/>
	<polygon fill="#747474" points="2135.483,962.312 2020.155,962.583 2119.118,985.066  "/>
	<polygon fill="#A1A1A1" points="2119.118,985.066 2166.031,1016.915 2218.425,989.649  "/>
	<polygon fill="#7F7F7F" points="2135.483,962.312 2119.118,985.066 2218.425,989.649  "/>
	<polygon fill="#BBBBBB" points="2074.855,1029.251 2166.031,1016.915 2119.118,985.066  "/>
	<polygon fill="#383838" points="2219.588,1027.698 2166.031,1016.915 2074.855,1029.251  "/>
	<polygon fill="#EEEEEE" points="2219.588,1027.698 2074.855,1029.251 2202.324,1029.452  "/>
	<polygon fill="#121212" points="1891.594,1029.875 2074.855,1029.251 1967.321,1026.606  "/>
	<polygon fill="#DDDDDD" points="2202.324,1029.452 2074.855,1029.251 1891.594,1029.875  "/>
	<polygon fill="#6C6C6C" points="1924.853,961.707 1916.828,993.917 2000.898,987.962  "/>
	<polygon fill="#939393" points="2020.155,962.583 2000.898,987.962 2119.118,985.066  "/>
	<polygon fill="#A8A8A8" points="1916.828,993.917 1967.321,1026.606 2000.898,987.962  "/>
	<polygon fill="#CBCBCB" points="2074.855,1029.251 2119.118,985.066 2000.898,987.962  "/>
	<polygon fill="#6A6A6A" points="2020.155,962.583 1924.853,961.707 2000.898,987.962  "/>
	<polygon fill="#ADADAD" points="2000.898,987.962 1967.321,1026.606 2074.855,1029.251  "/>
</g>

</svg>