<?xml version="1.0" encoding="UTF-8" standalone="no"?>
<!-- Created with Inkscape (http://www.inkscape.org/) -->

<svg
   xmlns:dc="http://purl.org/dc/elements/1.1/"
   xmlns:cc="http://creativecommons.org/ns#"
   xmlns:rdf="http://www.w3.org/1999/02/22-rdf-syntax-ns#"
   xmlns:svg="http://www.w3.org/2000/svg"
   xmlns="http://www.w3.org/2000/svg"
   xmlns:sodipodi="http://sodipodi.sourceforge.net/DTD/sodipodi-0.dtd"
   xmlns:inkscape="http://www.inkscape.org/namespaces/inkscape"
   width="975"
   height="975"
   viewBox="0 0 257.96874 257.96876"
   version="1.1"
   id="svg2908"
   sodipodi:docname="King.svg"
   inkscape:version="0.92.4 (5da689c313, 2019-01-14)">
  <defs
     id="defs2902" />
  <sodipodi:namedview
     id="base"
     pagecolor="#ffffff"
     bordercolor="#666666"
     borderopacity="1.0"
     inkscape:pageopacity="0.0"
     inkscape:pageshadow="2"
     inkscape:zoom="0.36508865"
     inkscape:cx="513.80019"
     inkscape:cy="480.75266"
     inkscape:document-units="px"
     inkscape:current-layer="layer1"
     showgrid="false"
     inkscape:window-width="1920"
     inkscape:window-height="1017"
     inkscape:window-x="1912"
     inkscape:window-y="-8"
     inkscape:window-maximized="1"
     units="px" />
  <metadata
     id="metadata2905">
    <rdf:RDF>
      <cc:Work
         rdf:about="">
        <dc:format>image/svg+xml</dc:format>
        <dc:type
           rdf:resource="http://purl.org/dc/dcmitype/StillImage" />
        <dc:title></dc:title>
      </cc:Work>
    </rdf:RDF>
  </metadata>
  <g
     inkscape:label="Layer 1"
     inkscape:groupmode="layer"
     id="layer1"
     transform="translate(0,-39.031233)">
    <g
       transform="matrix(0.26458333,0,0,0.26458333,56.499574,23.723021)"
       id="g2648">
      <polygon
         style="fill:#c48989"
         points="365.387,986.902 302.557,1016.977 228.019,985.505 "
         id="polygon2176" />
      <polygon
         style="fill:#ba8282"
         points="228.019,985.505 302.557,1016.977 180.722,1025.527 "
         id="polygon2178" />
      <polygon
         style="fill:#c18787"
         points="322.48,918.735 236.232,960.869 228.785,911.023 "
         id="polygon2180" />
      <polygon
         style="fill:#775353"
         points="236.232,960.869 345.236,957.706 228.019,985.505 "
         id="polygon2182" />
      <polygon
         style="fill:#b07b7b"
         points="322.48,918.735 345.236,957.706 236.232,960.869 "
         id="polygon2184" />
      <polygon
         style="fill:#8a6161"
         points="345.236,957.706 365.387,986.902 228.019,985.505 "
         id="polygon2186" />
      <polygon
         style="fill:#b98181"
         points="180.722,1025.527 125.152,989.84 228.019,985.505 "
         id="polygon2188" />
      <polygon
         style="fill:#a37272"
         points="365.387,986.902 395.894,1030.008 302.557,1016.977 "
         id="polygon2190" />
      <polygon
         style="fill:#3c2a2a"
         points="395.894,1030.008 180.722,1025.527 302.557,1016.977 "
         id="polygon2192" />
      <polygon
         style="fill:#c38888"
         points="288.836,119.464 234.302,151.294 196.431,97.763 "
         id="polygon2194" />
      <polygon
         style="fill:#b07b7b"
         points="228.785,911.023 236.232,960.869 139.828,918.861 "
         id="polygon2196" />
      <polygon
         style="fill:#a87676"
         points="196.431,97.763 285.811,78.811 288.836,119.464 "
         id="polygon2198" />
      <polygon
         style="fill:#a57373"
         points="285.811,78.811 365.294,111.803 288.836,119.464 "
         id="polygon2200" />
      <polygon
         style="fill:#aa7777"
         points="408.359,911.579 345.236,957.706 322.48,918.735 "
         id="polygon2202" />
      <polygon
         style="fill:#a07070"
         points="139.828,918.861 236.232,960.869 140.768,957.914 "
         id="polygon2204" />
      <polygon
         style="fill:#6d4c4c"
         points="236.232,960.869 228.019,985.505 140.768,957.914 "
         id="polygon2206" />
      <polygon
         style="fill:#755252"
         points="140.768,957.914 228.019,985.505 125.152,989.84 "
         id="polygon2208" />
      <polygon
         style="fill:#b27d7d"
         points="151.242,132.304 196.431,97.763 234.302,151.294 "
         id="polygon2210" />
      <polygon
         style="fill:#ae7a7a"
         points="322.48,918.735 228.785,911.023 267.397,795.235 "
         id="polygon2212" />
      <polygon
         style="fill:#966969"
         points="365.387,986.902 457.474,986.827 395.894,1030.008 "
         id="polygon2214" />
      <polygon
         style="fill:#654747"
         points="457.474,986.827 365.387,986.902 345.236,957.706 "
         id="polygon2216" />
      <polygon
         style="fill:#875e5e"
         points="125.152,989.84 180.722,1025.527 98.6,1028.475 "
         id="polygon2218" />
      <polygon
         points="395.894,1030.008 98.6,1028.475 180.722,1025.527 "
         id="polygon2220" />
      <polygon
         style="fill:#c88c8c"
         points="247.42,674.482 286.676,682.1 267.397,795.235 "
         id="polygon2222" />
      <polygon
         style="fill:#ad7979"
         points="234.302,151.294 288.836,119.464 279.72,251.32 "
         id="polygon2224" />
      <polygon
         style="fill:#a57373"
         points="365.294,111.803 279.72,251.32 288.836,119.464 "
         id="polygon2226" />
      <polygon
         style="fill:#b17c7c"
         points="181.706,328.114 279.72,251.32 256.947,337.86 "
         id="polygon2228" />
      <polygon
         style="fill:#be8585"
         points="340.463,327.233 256.947,337.86 279.72,251.32 "
         id="polygon2230" />
      <polygon
         style="fill:#cb8e8e"
         points="247.42,674.482 291.925,343.925 286.676,682.1 "
         id="polygon2232" />
      <polygon
         style="fill:#cb8e8e"
         points="246.962,345.184 291.925,343.925 247.42,674.482 "
         id="polygon2234" />
      <polygon
         style="fill:#382727"
         points="246.962,345.184 181.706,328.114 256.947,337.86 "
         id="polygon2236" />
      <polygon
         style="fill:#2e2020"
         points="291.925,343.925 246.962,345.184 256.947,337.86 "
         id="polygon2238" />
      <polygon
         style="fill:#845c5c"
         points="345.236,957.706 408.359,911.579 429.149,960.247 "
         id="polygon2240" />
      <polygon
         style="fill:#543a3a"
         points="429.149,960.247 457.474,986.827 345.236,957.706 "
         id="polygon2242" />
      <polygon
         style="fill:#9a6c6c"
         points="408.359,911.579 322.48,918.735 350.349,789.053 "
         id="polygon2244" />
      <polygon
         style="fill:#9e6e6e"
         points="267.397,795.235 350.349,789.053 322.48,918.735 "
         id="polygon2246" />
      <polygon
         style="fill:#bb8383"
         points="286.676,682.1 350.349,789.053 267.397,795.235 "
         id="polygon2248" />
      <polygon
         style="fill:#986a6a"
         points="228.785,911.023 139.828,918.861 183.913,791.88 "
         id="polygon2250" />
      <polygon
         style="fill:#9a6b6b"
         points="183.913,791.88 267.397,795.235 228.785,911.023 "
         id="polygon2252" />
      <polygon
         style="fill:#b98181"
         points="183.913,791.88 247.42,674.482 267.397,795.235 "
         id="polygon2254" />
      <polygon
         style="fill:#725050"
         points="86.384,916.316 139.828,918.861 140.768,957.914 "
         id="polygon2256" />
      <polygon
         style="fill:#6c4c4c"
         points="139.828,918.861 86.384,916.316 183.913,791.88 "
         id="polygon2258" />
      <polygon
         style="fill:#9b6c6c"
         points="234.302,151.294 226.973,255.508 151.242,132.304 "
         id="polygon2260" />
      <polygon
         style="fill:#b37d7d"
         points="279.72,251.32 181.706,328.114 226.973,255.508 "
         id="polygon2262" />
      <polygon
         style="fill:#a47373"
         points="234.302,151.294 279.72,251.32 226.973,255.508 "
         id="polygon2264" />
      <polygon
         style="fill:#b67f7f"
         points="202.628,678.025 247.42,674.482 183.913,791.88 "
         id="polygon2266" />
      <polygon
         style="fill:#745151"
         points="125.152,989.84 98.6,1028.475 64.072,987.573 "
         id="polygon2268" />
      <polygon
         style="fill:#583d3d"
         points="125.152,989.84 64.072,987.573 140.768,957.914 "
         id="polygon2270" />
      <polygon
         style="fill:#bc8484"
         points="286.676,682.1 336.455,650.872 350.349,789.053 "
         id="polygon2272" />
      <polygon
         style="fill:#ba8282"
         points="291.925,343.925 336.455,650.872 286.676,682.1 "
         id="polygon2274" />
      <polygon
         style="fill:#8d6363"
         points="196.431,97.763 151.242,132.304 111.054,99.814 "
         id="polygon2276" />
      <polygon
         style="fill:#b47e7e"
         points="246.962,345.184 247.42,674.482 209.438,360.924 "
         id="polygon2278" />
      <polygon
         style="fill:#b78080"
         points="247.42,674.482 202.628,678.025 209.438,360.924 "
         id="polygon2280" />
      <polygon
         style="fill:#6b4b4b"
         points="415.725,119.29 365.294,111.803 412.852,85.637 "
         id="polygon2282" />
      <polygon
         style="fill:#5b3f3f"
         points="285.811,78.811 412.852,85.637 365.294,111.803 "
         id="polygon2284" />
      <polygon
         style="fill:#9c6d6d"
         points="339.67,252.609 340.463,327.233 279.72,251.32 "
         id="polygon2286" />
      <polygon
         style="fill:#815a5a"
         points="365.294,111.803 415.725,119.29 339.67,252.609 "
         id="polygon2288" />
      <polygon
         style="fill:#976a6a"
         points="365.294,111.803 339.67,252.609 279.72,251.32 "
         id="polygon2290" />
      <polygon
         style="fill:#493333"
         points="340.463,327.233 338.02,345.112 256.947,337.86 "
         id="polygon2292" />
      <polygon
         style="fill:#ab7878"
         points="291.925,343.925 338.02,345.112 336.455,650.872 "
         id="polygon2294" />
      <polygon
         style="fill:#463131"
         points="338.02,345.112 291.925,343.925 256.947,337.86 "
         id="polygon2296" />
      <polygon
         style="fill:#694949"
         points="408.359,911.579 460.282,913.929 429.149,960.247 "
         id="polygon2298" />
      <polygon
         style="fill:#593e3e"
         points="408.359,911.579 350.349,789.053 460.282,913.929 "
         id="polygon2300" />
      <polygon
         style="fill:#432f2f"
         points="201.614,61.561 285.811,78.811 196.431,97.763 "
         id="polygon2302" />
      <polygon
         style="fill:#412d2d"
         points="196.431,97.763 111.054,99.814 201.614,61.561 "
         id="polygon2304" />
      <polygon
         style="fill:#5e4242"
         points="151.242,132.304 114.616,148.962 111.054,99.814 "
         id="polygon2306" />
      <polygon
         style="fill:#583d3d"
         points="415.725,119.29 421.828,154.913 339.67,252.609 "
         id="polygon2308" />
      <polygon
         style="fill:#352525"
         points="140.768,957.914 64.072,987.573 95.253,959.922 "
         id="polygon2310" />
      <polygon
         style="fill:#563c3c"
         points="86.384,916.316 140.768,957.914 95.253,959.922 "
         id="polygon2312" />
      <polygon
         style="fill:#795454"
         points="226.973,255.508 181.706,328.114 186.904,254.743 "
         id="polygon2314" />
      <polygon
         style="fill:#735151"
         points="226.973,255.508 186.904,254.743 151.242,132.304 "
         id="polygon2316" />
      <polygon
         style="fill:#5d4141"
         points="151.242,132.304 186.904,254.743 114.616,148.962 "
         id="polygon2318" />
      <polygon
         style="fill:#352525"
         points="186.133,343.955 181.706,328.114 246.962,345.184 "
         id="polygon2320" />
      <polygon
         style="fill:#835c5c"
         points="209.438,360.924 186.133,343.955 246.962,345.184 "
         id="polygon2322" />
      <polygon
         style="fill:#5f4242"
         points="477.408,1025.694 395.894,1030.008 457.474,986.827 "
         id="polygon2324" />
      <polygon
         style="fill:#725050"
         points="202.628,678.025 183.913,791.88 174.361,670.455 "
         id="polygon2326" />
      <polygon
         style="fill:#765353"
         points="209.438,360.924 174.361,670.455 186.133,343.955 "
         id="polygon2328" />
      <polygon
         style="fill:#704e4e"
         points="209.438,360.924 202.628,678.025 174.361,670.455 "
         id="polygon2330" />
      <polygon
         style="fill:#634545"
         points="186.904,254.743 181.706,328.114 153.947,301.698 "
         id="polygon2332" />
      <polygon
         style="fill:#684949"
         points="338.02,345.112 366.563,677.267 336.455,650.872 "
         id="polygon2334" />
      <polygon
         style="fill:#614444"
         points="350.349,789.053 336.455,650.872 366.563,677.267 "
         id="polygon2336" />
      <polygon
         style="fill:#483232"
         points="355.167,255.259 339.67,252.609 421.828,154.913 "
         id="polygon2338" />
      <polygon
         style="fill:#2e2020"
         points="201.614,61.561 309.206,55.124 285.811,78.811 "
         id="polygon2340" />
      <polygon
         style="fill:#342424"
         points="309.206,55.124 412.852,85.637 285.811,78.811 "
         id="polygon2342" />
      <polygon
         style="fill:#442f2f"
         points="397.625,334.493 338.02,345.112 340.463,327.233 "
         id="polygon2344" />
      <polygon
         style="fill:#644646"
         points="340.463,327.233 339.67,252.609 397.625,334.493 "
         id="polygon2346" />
      <polygon
         style="fill:#432f2f"
         points="397.625,334.493 339.67,252.609 355.167,255.259 "
         id="polygon2348" />
      <polygon
         style="fill:#5b4040"
         points="350.349,789.053 366.563,677.267 385.603,792.478 "
         id="polygon2350" />
      <polygon
         style="fill:#4a3333"
         points="350.349,789.053 385.603,792.478 460.282,913.929 "
         id="polygon2352" />
      <polygon
         style="fill:#1c1414"
         points="397.625,334.493 356.926,345.072 338.02,345.112 "
         id="polygon2354" />
      <polygon
         style="fill:#4b3535"
         points="338.02,345.112 356.926,345.072 366.563,677.267 "
         id="polygon2356" />
      <polygon
         style="fill:#302121"
         points="86.384,916.316 95.253,959.922 71.564,918.359 "
         id="polygon2358" />
      <polygon
         style="fill:#402d2d"
         points="64.072,987.573 98.6,1028.475 58.06,1020.808 "
         id="polygon2360" />
      <polygon
         style="fill:#3a2828"
         points="443.712,107.926 421.828,154.913 415.725,119.29 "
         id="polygon2362" />
      <polygon
         style="fill:#442f2f"
         points="415.725,119.29 412.852,85.637 443.712,107.926 "
         id="polygon2364" />
      <polygon
         style="fill:#261a1a"
         points="448.466,960.1 457.474,986.827 429.149,960.247 "
         id="polygon2366" />
      <polygon
         style="fill:#312222"
         points="429.149,960.247 460.282,913.929 448.466,960.1 "
         id="polygon2368" />
      <polygon
         style="fill:#281c1c"
         points="152.852,793.71 86.384,916.316 71.564,918.359 "
         id="polygon2370" />
      <polygon
         style="fill:#3f2c2c"
         points="183.913,791.88 86.384,916.316 152.852,793.71 "
         id="polygon2372" />
      <polygon
         style="fill:#4d3636"
         points="152.852,793.71 174.361,670.455 183.913,791.88 "
         id="polygon2374" />
      <polygon
         points="174.361,670.455 173.136,664.304 186.133,343.955 "
         id="polygon2376" />
      <polygon
         points="184.945,344.293 186.133,343.955 173.136,664.304 "
         id="polygon2378" />
      <polygon
         points="173.136,664.304 174.361,670.455 152.852,793.71 "
         id="polygon2380" />
      <polygon
         points="385.603,792.478 465.175,918.678 460.282,913.929 "
         id="polygon2382" />
      <polygon
         style="fill:#1c1414"
         points="448.466,960.1 460.282,913.929 465.175,918.678 "
         id="polygon2384" />
      <polygon
         style="fill:#3f2c2c"
         points="153.947,301.698 181.706,328.114 147.185,333.999 "
         id="polygon2386" />
      <polygon
         style="fill:#2d1f1f"
         points="186.133,343.955 147.185,333.999 181.706,328.114 "
         id="polygon2388" />
      <polygon
         style="fill:#ffaaaa"
         points="184.945,344.293 147.185,333.999 186.133,343.955 "
         id="polygon2390" />
      <polygon
         style="fill:#1b1b1b"
         points="366.563,677.267 364.811,690.672 385.603,792.478 "
         id="polygon2392" />
      <polygon
         style="fill:#141414"
         points="356.926,345.072 364.811,690.672 366.563,677.267 "
         id="polygon2394" />
      <polygon
         points="153.947,301.698 185.674,252.602 186.904,254.743 "
         id="polygon2396" />
      <polygon
         style="fill:#dddddd"
         points="185.674,252.602 114.616,148.962 186.904,254.743 "
         id="polygon2398" />
      <polygon
         style="fill:#352525"
         points="457.474,986.827 489.688,990.833 477.408,1025.694 "
         id="polygon2400" />
      <polygon
         style="fill:#241919"
         points="448.466,960.1 489.688,990.833 457.474,986.827 "
         id="polygon2402" />
      <polygon
         style="fill:#201616"
         points="201.614,61.561 111.054,99.814 118.233,85.456 "
         id="polygon2404" />
      <polygon
         style="fill:#dd9999"
         points="111.054,99.814 99.045,120.08 118.233,85.456 "
         id="polygon2406" />
      <polygon
         style="fill:#261b1b"
         points="99.045,120.08 111.054,99.814 114.616,148.962 "
         id="polygon2408" />
      <polygon
         style="fill:#131313"
         points="114.616,148.962 185.674,252.602 99.045,120.08 "
         id="polygon2410" />
      <polygon
         style="fill:#111111"
         points="421.828,154.913 443.712,107.926 420.815,153.079 "
         id="polygon2412" />
      <polygon
         style="fill:#111111"
         points="421.828,154.913 420.815,153.079 355.167,255.259 "
         id="polygon2414" />
      <polygon
         style="fill:#181010"
         points="57.122,985.425 64.072,987.573 58.06,1020.808 "
         id="polygon2416" />
      <polygon
         points="64.072,987.573 57.122,985.425 95.253,959.922 "
         id="polygon2418" />
      <polygon
         points="201.614,61.561 247.939,56.839 309.206,55.124 "
         id="polygon2420" />
      <polygon
         style="fill:#181818"
         points="201.614,61.561 118.233,85.456 247.939,56.839 "
         id="polygon2422" />
      <polygon
         style="fill:#141414"
         points="381.698,310.117 397.625,334.493 355.167,255.259 "
         id="polygon2424" />
      <polygon
         style="fill:#212121"
         points="204.866,344.949 147.185,333.999 184.945,344.293 "
         id="polygon2426" />
      <polygon
         style="fill:#505050"
         points="356.926,345.072 333.556,343.828 364.811,690.672 "
         id="polygon2428" />
      <polygon
         style="fill:#232323"
         points="397.625,334.493 333.556,343.828 356.926,345.072 "
         id="polygon2430" />
      <polygon
         style="fill:#373737"
         points="420.815,153.079 332.82,255.102 355.167,255.259 "
         id="polygon2432" />
      <polygon
         style="fill:#363636"
         points="332.82,255.102 381.698,310.117 355.167,255.259 "
         id="polygon2434" />
      <polygon
         style="fill:#414141"
         points="385.603,792.478 364.811,690.672 365.907,794.259 "
         id="polygon2436" />
      <polygon
         style="fill:#656565"
         points="204.866,344.949 184.945,344.293 195.122,700.966 "
         id="polygon2438" />
      <polygon
         style="fill:#636363"
         points="173.136,664.304 195.122,700.966 184.945,344.293 "
         id="polygon2440" />
      <polygon
         style="fill:#686868"
         points="173.136,664.304 152.852,793.71 195.122,700.966 "
         id="polygon2442" />
      <polygon
         style="fill:#121212"
         points="95.253,959.922 57.122,985.425 102.396,959.553 "
         id="polygon2444" />
      <polygon
         style="fill:#181818"
         points="102.396,959.553 71.564,918.359 95.253,959.922 "
         id="polygon2446" />
      <polygon
         style="fill:#727272"
         points="364.811,690.672 333.556,343.828 338.02,685.716 "
         id="polygon2448" />
      <polygon
         style="fill:#6e6e6e"
         points="364.811,690.672 338.02,685.716 365.907,794.259 "
         id="polygon2450" />
      <polygon
         style="fill:#3e3e3e"
         points="185.674,252.602 153.947,301.698 182.679,301.526 "
         id="polygon2452" />
      <polygon
         style="fill:#797979"
         points="182.679,301.526 229.22,254.1 185.674,252.602 "
         id="polygon2454" />
      <polygon
         style="fill:#383838"
         points="153.947,301.698 147.185,333.999 182.679,301.526 "
         id="polygon2456" />
      <polygon
         style="fill:#585858"
         points="187.514,795.9 195.122,700.966 152.852,793.71 "
         id="polygon2458" />
      <polygon
         style="fill:#ffffff"
         points="309.206,55.124 392.731,81.728 412.852,85.637 "
         id="polygon2460" />
      <polygon
         style="fill:#292929"
         points="247.939,56.839 392.731,81.728 309.206,55.124 "
         id="polygon2462" />
      <polygon
         style="fill:#151515"
         points="443.712,107.926 412.852,85.637 392.731,81.728 "
         id="polygon2464" />
      <polygon
         style="fill:#aeaeae"
         points="204.866,344.949 195.122,700.966 240.136,704.707 "
         id="polygon2466" />
      <polygon
         style="fill:#afafaf"
         points="246.251,345.409 204.866,344.949 240.136,704.707 "
         id="polygon2468" />
      <polygon
         style="fill:#acacac"
         points="240.136,704.707 195.122,700.966 187.514,795.9 "
         id="polygon2470" />
      <polygon
         style="fill:#3b3b3b"
         points="465.175,918.678 421.662,960.629 448.466,960.1 "
         id="polygon2472" />
      <polygon
         style="fill:#2a2a2a"
         points="489.688,990.833 448.466,960.1 421.662,960.629 "
         id="polygon2474" />
      <polygon
         style="fill:#b5b5b5"
         points="333.556,343.828 290.64,346.07 289.679,680.625 "
         id="polygon2476" />
      <polygon
         style="fill:#cbcbcb"
         points="289.679,680.625 246.251,345.409 240.136,704.707 "
         id="polygon2478" />
      <polygon
         style="fill:#cbcbcb"
         points="290.64,346.07 246.251,345.409 289.679,680.625 "
         id="polygon2480" />
      <polygon
         style="fill:#b7b7b7"
         points="338.02,685.716 333.556,343.828 289.679,680.625 "
         id="polygon2482" />
      <polygon
         style="fill:#3c3c3c"
         points="102.396,959.553 96.993,915.517 71.564,918.359 "
         id="polygon2484" />
      <polygon
         style="fill:#4c4c4c"
         points="96.993,915.517 187.514,795.9 152.852,793.71 "
         id="polygon2486" />
      <polygon
         style="fill:#323232"
         points="71.564,918.359 96.993,915.517 152.852,793.71 "
         id="polygon2488" />
      <polygon
         style="fill:#999999"
         points="365.907,794.259 338.02,685.716 326.005,792.904 "
         id="polygon2490" />
      <polygon
         style="fill:#b3b3b3"
         points="338.02,685.716 289.679,680.625 326.005,792.904 "
         id="polygon2492" />
      <polygon
         style="fill:#3c3c3c"
         points="385.603,792.478 437.862,914.786 465.175,918.678 "
         id="polygon2494" />
      <polygon
         style="fill:#4a4a4a"
         points="437.862,914.786 421.662,960.629 465.175,918.678 "
         id="polygon2496" />
      <polygon
         style="fill:#3b3b3b"
         points="437.862,914.786 385.603,792.478 365.907,794.259 "
         id="polygon2498" />
      <polygon
         style="fill:#343434"
         points="397.625,334.493 324.492,334.75 333.556,343.828 "
         id="polygon2500" />
      <polygon
         style="fill:#a4a4a4"
         points="324.492,334.75 332.82,255.102 277.32,253.18 "
         id="polygon2502" />
      <polygon
         style="fill:#5f5f5f"
         points="381.698,310.117 324.492,334.75 397.625,334.493 "
         id="polygon2504" />
      <polygon
         style="fill:#303030"
         points="324.492,334.75 290.64,346.07 333.556,343.828 "
         id="polygon2506" />
      <polygon
         style="fill:#919191"
         points="381.698,310.117 332.82,255.102 324.492,334.75 "
         id="polygon2508" />
      <polygon
         style="fill:#bbbbbb"
         points="240.136,704.707 187.514,795.9 264.311,799.952 "
         id="polygon2510" />
      <polygon
         style="fill:#c2c2c2"
         points="326.005,792.904 289.679,680.625 264.311,799.952 "
         id="polygon2512" />
      <polygon
         style="fill:#c6c6c6"
         points="240.136,704.707 264.311,799.952 289.679,680.625 "
         id="polygon2514" />
      <polygon
         style="fill:#767676"
         points="229.22,254.1 140.753,119.874 185.674,252.602 "
         id="polygon2516" />
      <polygon
         style="fill:#585858"
         points="140.753,119.874 99.045,120.08 185.674,252.602 "
         id="polygon2518" />
      <polygon
         style="fill:#5b5b5b"
         points="99.045,120.08 140.753,119.874 118.233,85.456 "
         id="polygon2520" />
      <polygon
         style="fill:#8c8c8c"
         points="230.784,331.169 182.679,301.526 147.185,333.999 "
         id="polygon2522" />
      <polygon
         style="fill:#434343"
         points="230.784,331.169 204.866,344.949 246.251,345.409 "
         id="polygon2524" />
      <polygon
         style="fill:#bfbfbf"
         points="324.492,334.75 277.32,253.18 230.784,331.169 "
         id="polygon2526" />
      <polygon
         style="fill:#afafaf"
         points="230.784,331.169 277.32,253.18 229.22,254.1 "
         id="polygon2528" />
      <polygon
         style="fill:#505050"
         points="324.492,334.75 230.784,331.169 290.64,346.07 "
         id="polygon2530" />
      <polygon
         style="fill:#a4a4a4"
         points="182.679,301.526 230.784,331.169 229.22,254.1 "
         id="polygon2532" />
      <polygon
         style="fill:#515151"
         points="230.784,331.169 246.251,345.409 290.64,346.07 "
         id="polygon2534" />
      <polygon
         style="fill:#4c4c4c"
         points="230.784,331.169 147.185,333.999 204.866,344.949 "
         id="polygon2536" />
      <polygon
         style="fill:#505050"
         points="395.539,111.576 420.815,153.079 443.712,107.926 "
         id="polygon2538" />
      <polygon
         style="fill:#4d4d4d"
         points="392.731,81.728 395.539,111.576 443.712,107.926 "
         id="polygon2540" />
      <polygon
         style="fill:#656565"
         points="332.82,255.102 420.815,153.079 395.539,111.576 "
         id="polygon2542" />
      <polygon
         style="fill:#2e2e2e"
         points="118.233,85.456 186.198,86.343 247.939,56.839 "
         id="polygon2544" />
      <polygon
         style="fill:#616161"
         points="118.233,85.456 140.753,119.874 186.198,86.343 "
         id="polygon2546" />
      <polygon
         style="fill:#3d3d3d"
         points="421.662,960.629 433.532,981.98 489.688,990.833 "
         id="polygon2548" />
      <polygon
         style="fill:#dd9999"
         points="111.635,1029.118 98.6,1028.475 395.894,1030.008 "
         id="polygon2550" />
      <polygon
         style="fill:#484848"
         points="57.122,985.425 58.06,1020.808 111.635,1029.118 "
         id="polygon2552" />
      <polygon
         style="fill:#dddddd"
         points="111.635,1029.118 58.06,1020.808 98.6,1028.475 "
         id="polygon2554" />
      <polygon
         style="fill:#7a7a7a"
         points="172.411,959.651 96.993,915.517 102.396,959.553 "
         id="polygon2556" />
      <polygon
         style="fill:#545454"
         points="349.008,959.064 433.532,981.98 421.662,960.629 "
         id="polygon2558" />
      <polygon
         style="fill:#484848"
         points="124.194,983.599 172.411,959.651 102.396,959.553 "
         id="polygon2560" />
      <polygon
         style="fill:#6a6a6a"
         points="111.635,1029.118 124.194,983.599 57.122,985.425 "
         id="polygon2562" />
      <polygon
         style="fill:#4c4c4c"
         points="57.122,985.425 124.194,983.599 102.396,959.553 "
         id="polygon2564" />
      <polygon
         style="fill:#818181"
         points="267.541,91.665 395.539,111.576 392.731,81.728 "
         id="polygon2566" />
      <polygon
         style="fill:#414141"
         points="267.541,91.665 392.731,81.728 247.939,56.839 "
         id="polygon2568" />
      <polygon
         style="fill:#454545"
         points="186.198,86.343 267.541,91.665 247.939,56.839 "
         id="polygon2570" />
      <polygon
         style="fill:#eeeeee"
         points="404.823,1027.833 111.635,1029.118 395.894,1030.008 "
         id="polygon2572" />
      <polygon
         style="fill:#6b6b6b"
         points="433.532,981.98 404.823,1027.833 489.688,990.833 "
         id="polygon2574" />
      <polygon
         style="fill:#dddddd"
         points="395.894,1030.008 477.408,1025.694 404.823,1027.833 "
         id="polygon2576" />
      <polygon
         style="fill:#3c3c3c"
         points="489.688,990.833 404.823,1027.833 477.408,1025.694 "
         id="polygon2578" />
      <polygon
         style="fill:#7d7d7d"
         points="96.993,915.517 161.832,914.673 187.514,795.9 "
         id="polygon2580" />
      <polygon
         style="fill:#898989"
         points="96.993,915.517 172.411,959.651 161.832,914.673 "
         id="polygon2582" />
      <polygon
         style="fill:#a7a7a7"
         points="214.892,121.824 229.22,254.1 277.32,253.18 "
         id="polygon2584" />
      <polygon
         style="fill:#a1a1a1"
         points="186.198,86.343 214.892,121.824 267.541,91.665 "
         id="polygon2586" />
      <polygon
         style="fill:#a1a1a1"
         points="140.753,119.874 214.892,121.824 186.198,86.343 "
         id="polygon2588" />
      <polygon
         style="fill:#959595"
         points="140.753,119.874 229.22,254.1 214.892,121.824 "
         id="polygon2590" />
      <polygon
         style="fill:#cbcbcb"
         points="267.541,91.665 214.892,121.824 309.558,126.88 "
         id="polygon2592" />
      <polygon
         style="fill:#a9a9a9"
         points="395.539,111.576 267.541,91.665 309.558,126.88 "
         id="polygon2594" />
      <polygon
         style="fill:#afafaf"
         points="309.558,126.88 214.892,121.824 277.32,253.18 "
         id="polygon2596" />
      <polygon
         style="fill:#9d9d9d"
         points="277.32,253.18 332.82,255.102 309.558,126.88 "
         id="polygon2598" />
      <polygon
         style="fill:#989898"
         points="395.539,111.576 309.558,126.88 332.82,255.102 "
         id="polygon2600" />
      <polygon
         style="fill:#808080"
         points="365.907,794.259 326.005,792.904 370.025,916.037 "
         id="polygon2602" />
      <polygon
         style="fill:#8d8d8d"
         points="421.662,960.629 370.025,916.037 349.008,959.064 "
         id="polygon2604" />
      <polygon
         style="fill:#7e7e7e"
         points="365.907,794.259 370.025,916.037 437.862,914.786 "
         id="polygon2606" />
      <polygon
         style="fill:#8b8b8b"
         points="421.662,960.629 437.862,914.786 370.025,916.037 "
         id="polygon2608" />
      <polygon
         style="fill:#626262"
         points="363.878,984.986 433.532,981.98 349.008,959.064 "
         id="polygon2610" />
      <polygon
         style="fill:#9c9c9c"
         points="404.823,1027.833 433.532,981.98 363.878,984.986 "
         id="polygon2612" />
      <polygon
         style="fill:#767676"
         points="259.014,958.155 363.878,984.986 349.008,959.064 "
         id="polygon2614" />
      <polygon
         style="fill:#b9b9b9"
         points="370.025,916.037 260.054,915.33 349.008,959.064 "
         id="polygon2616" />
      <polygon
         style="fill:#a0a0a0"
         points="264.311,799.952 187.514,795.9 260.054,915.33 "
         id="polygon2618" />
      <polygon
         style="fill:#b1b1b1"
         points="260.054,915.33 172.411,959.651 259.014,958.155 "
         id="polygon2620" />
      <polygon
         style="fill:#b4b4b4"
         points="349.008,959.064 260.054,915.33 259.014,958.155 "
         id="polygon2622" />
      <polygon
         style="fill:#a0a0a0"
         points="161.832,914.673 260.054,915.33 187.514,795.9 "
         id="polygon2624" />
      <polygon
         style="fill:#b4b4b4"
         points="260.054,915.33 161.832,914.673 172.411,959.651 "
         id="polygon2626" />
      <polygon
         style="fill:#a6a6a6"
         points="260.054,915.33 326.005,792.904 264.311,799.952 "
         id="polygon2628" />
      <polygon
         style="fill:#a7a7a7"
         points="370.025,916.037 326.005,792.904 260.054,915.33 "
         id="polygon2630" />
      <polygon
         style="fill:#6f6f6f"
         points="172.411,959.651 251.424,978.91 259.014,958.155 "
         id="polygon2632" />
      <polygon
         style="fill:#7b7b7b"
         points="251.424,978.91 363.878,984.986 259.014,958.155 "
         id="polygon2634" />
      <polygon
         style="fill:#7c7c7c"
         points="251.424,978.91 172.411,959.651 124.194,983.599 "
         id="polygon2636" />
      <polygon
         style="fill:#b0b0b0"
         points="245.359,1013.517 124.194,983.599 111.635,1029.118 "
         id="polygon2638" />
      <polygon
         style="fill:#c6c6c6"
         points="363.878,984.986 251.424,978.91 245.359,1013.517 "
         id="polygon2640" />
      <polygon
         style="fill:#b5b5b5"
         points="404.823,1027.833 363.878,984.986 245.359,1013.517 "
         id="polygon2642" />
      <polygon
         style="fill:#b8b8b8"
         points="245.359,1013.517 251.424,978.91 124.194,983.599 "
         id="polygon2644" />
      <polygon
         style="fill:#373737"
         points="404.823,1027.833 245.359,1013.517 111.635,1029.118 "
         id="polygon2646" />
    </g>
  </g>
</svg>
