<?xml version="1.0" encoding="UTF-8" standalone="no"?>
<!-- Created with Inkscape (http://www.inkscape.org/) -->

<svg
   xmlns:dc="http://purl.org/dc/elements/1.1/"
   xmlns:cc="http://creativecommons.org/ns#"
   xmlns:rdf="http://www.w3.org/1999/02/22-rdf-syntax-ns#"
   xmlns:svg="http://www.w3.org/2000/svg"
   xmlns="http://www.w3.org/2000/svg"
   xmlns:sodipodi="http://sodipodi.sourceforge.net/DTD/sodipodi-0.dtd"
   xmlns:inkscape="http://www.inkscape.org/namespaces/inkscape"
   width="975"
   height="975"
   viewBox="0 0 257.96874 257.96876"
   version="1.1"
   id="svg2908"
   sodipodi:docname="Rook.svg"
   inkscape:version="0.92.4 (5da689c313, 2019-01-14)">
  <defs
     id="defs2902" />
  <sodipodi:namedview
     id="base"
     pagecolor="#ffffff"
     bordercolor="#666666"
     borderopacity="1.0"
     inkscape:pageopacity="0.0"
     inkscape:pageshadow="2"
     inkscape:zoom="0.36508865"
     inkscape:cx="513.80019"
     inkscape:cy="480.75266"
     inkscape:document-units="px"
     inkscape:current-layer="layer1"
     showgrid="false"
     inkscape:window-width="1920"
     inkscape:window-height="1017"
     inkscape:window-x="1912"
     inkscape:window-y="-8"
     inkscape:window-maximized="1"
     units="px" />
  <metadata
     id="metadata2905">
    <rdf:RDF>
      <cc:Work
         rdf:about="">
        <dc:format>image/svg+xml</dc:format>
        <dc:type
           rdf:resource="http://purl.org/dc/dcmitype/StillImage" />
        <dc:title></dc:title>
      </cc:Work>
    </rdf:RDF>
  </metadata>
  <g
     inkscape:label="Layer 1"
     inkscape:groupmode="layer"
     id="layer1"
     transform="translate(0,-39.031233)">
    <g
       transform="matrix(0.26458333,0,0,0.26458333,-416.38806,23.551261)"
       id="g654">
      <polygon
         style="fill:#cb8e8e"
         points="2122.176,995.487 2002.911,1026.329 1997.946,987.567 "
         id="polygon2" />
      <polygon
         style="fill:#c68a8a"
         points="2119.41,916.773 2050.39,961.82 2017.458,914.504 "
         id="polygon4" />
      <polygon
         style="fill:#a17070"
         points="2122.176,995.487 1997.946,987.567 2050.39,961.82 "
         id="polygon6" />
      <polygon
         style="fill:#c98d8d"
         points="2098.39,446.522 2088.675,511.704 2085.746,444.692 "
         id="polygon8" />
      <polygon
         style="fill:#cb8e8e"
         points="2088.675,511.704 2027.13,410.015 2085.746,444.692 "
         id="polygon10" />
      <polygon
         style="fill:#ca8d8d"
         points="2088.04,408.981 2085.746,444.692 2027.13,410.015 "
         id="polygon12" />
      <polygon
         points="2023.262,442.794 2088.675,511.704 2025.816,445.753 "
         id="polygon14" />
      <polygon
         style="fill:#c68b8b"
         points="2023.262,442.794 2027.13,410.015 2088.675,511.704 "
         id="polygon16" />
      <polygon
         style="fill:#ca8d8d"
         points="1996.992,446.944 2025.816,445.753 1990.199,512.021 "
         id="polygon18" />
      <polygon
         style="fill:#c98d8d"
         points="1990.199,512.021 2025.816,445.753 2088.675,511.704 "
         id="polygon20" />
      <polygon
         style="fill:#382727"
         points="2027.13,410.015 2083.91,407.4 2088.04,408.981 "
         id="polygon22" />
      <polygon
         style="fill:#a77575"
         points="2098.39,446.522 2128.511,446.226 2088.675,511.704 "
         id="polygon24" />
      <polygon
         style="fill:#2d2020"
         points="2085.746,444.692 2128.511,446.226 2098.39,446.522 "
         id="polygon26" />
      <polygon
         style="fill:#3c2a2a"
         points="1981.186,444.552 2025.816,445.753 1996.992,446.944 "
         id="polygon28" />
      <polygon
         style="fill:#9d6e6e"
         points="1996.992,446.944 1990.199,512.021 1981.186,444.552 "
         id="polygon30" />
      <polygon
         style="fill:#af7a7a"
         points="1972.703,961.742 2017.458,914.504 2050.39,961.82 "
         id="polygon32" />
      <polygon
         style="fill:#745151"
         points="1997.946,987.567 1972.703,961.742 2050.39,961.82 "
         id="polygon34" />
      <polygon
         style="fill:#3c3c3c"
         points="2023.262,442.794 2032.744,408.55 2027.13,410.015 "
         id="polygon36" />
      <polygon
         style="fill:#181010"
         points="2032.744,408.55 2083.91,407.4 2027.13,410.015 "
         id="polygon38" />
      <polygon
         style="fill:#a97676"
         points="2165.847,960.349 2119.41,916.773 2177.167,918.221 "
         id="polygon40" />
      <polygon
         style="fill:#a97676"
         points="2165.847,960.349 2050.39,961.82 2119.41,916.773 "
         id="polygon42" />
      <polygon
         style="fill:#775353"
         points="2050.39,961.82 2165.847,960.349 2122.176,995.487 "
         id="polygon44" />
      <polygon
         style="fill:#533a3a"
         points="1990.199,512.021 2088.675,511.704 2046.213,525.748 "
         id="polygon46" />
      <polygon
         style="fill:#c88c8c"
         points="2095.961,527.823 2049.701,606.307 2046.213,525.748 "
         id="polygon48" />
      <polygon
         style="fill:#473131"
         points="2046.213,525.748 2088.675,511.704 2095.961,527.823 "
         id="polygon50" />
      <polygon
         style="fill:#885f5f"
         points="2122.176,995.487 2165.847,960.349 2208.631,983.472 "
         id="polygon52" />
      <polygon
         style="fill:#996b6b"
         points="2208.631,983.472 2202.324,1029.452 2122.176,995.487 "
         id="polygon54" />
      <polygon
         style="fill:#765252"
         points="2002.911,1026.329 2122.176,995.487 2202.324,1029.452 "
         id="polygon56" />
      <polygon
         style="fill:#b88080"
         points="2028.809,794.557 2087.367,787.19 2017.458,914.504 "
         id="polygon58" />
      <polygon
         style="fill:#ba8282"
         points="2017.458,914.504 2087.367,787.19 2119.41,916.773 "
         id="polygon60" />
      <polygon
         style="fill:#cb8e8e"
         points="2095.961,527.823 2087.367,787.19 2049.701,606.307 "
         id="polygon62" />
      <polygon
         style="fill:#cb8e8e"
         points="2087.367,787.19 2028.809,794.557 2049.701,606.307 "
         id="polygon64" />
      <polygon
         style="fill:#231818"
         points="1943.199,407.974 1991.921,408.16 1985.185,410.3 "
         id="polygon66" />
      <polygon
         style="fill:#a97676"
         points="1985.185,410.3 1981.186,444.552 1943.199,407.974 "
         id="polygon68" />
      <polygon
         style="fill:#a67474"
         points="1943.199,407.974 1981.186,444.552 1990.199,512.021 "
         id="polygon70" />
      <polygon
         style="fill:#a77474"
         points="2017.458,914.504 1972.703,961.742 1921.526,912.876 "
         id="polygon72" />
      <polygon
         style="fill:#9a6c6c"
         points="2017.458,914.504 1921.526,912.876 2028.809,794.557 "
         id="polygon74" />
      <polygon
         style="fill:#7f5959"
         points="1896.647,989.639 1972.703,961.742 1997.946,987.567 "
         id="polygon76" />
      <polygon
         style="fill:#a47272"
         points="1997.946,987.567 2002.911,1026.329 1896.647,989.639 "
         id="polygon78" />
      <polygon
         style="fill:#6c4c4c"
         points="2128.511,446.226 2113.184,408.064 2130.913,436.547 "
         id="polygon80" />
      <polygon
         style="fill:#684949"
         points="2113.184,408.064 2128.525,408.727 2130.913,436.547 "
         id="polygon82" />
      <polygon
         style="fill:#9e6e6e"
         points="1990.199,512.021 1933.471,511.551 1943.199,407.974 "
         id="polygon84" />
      <polygon
         style="fill:#835c5c"
         points="2128.525,408.727 2172.985,444.514 2130.913,436.547 "
         id="polygon86" />
      <polygon
         style="fill:#5c4040"
         points="1935.011,445.662 1943.199,407.974 1933.471,511.551 "
         id="polygon88" />
      <polygon
         style="fill:#b57f7f"
         points="2130.913,436.547 2196.894,497.535 2128.511,446.226 "
         id="polygon90" />
      <polygon
         style="fill:#ad7979"
         points="2088.675,511.704 2128.511,446.226 2196.894,497.535 "
         id="polygon92" />
      <polygon
         style="fill:#825b5b"
         points="2130.913,436.547 2172.985,444.514 2196.894,497.535 "
         id="polygon94" />
      <polygon
         style="fill:#432f2f"
         points="1933.471,511.551 1990.199,512.021 1978.914,525.433 "
         id="polygon96" />
      <polygon
         style="fill:#3f2c2c"
         points="1990.199,512.021 2046.213,525.748 1978.914,525.433 "
         id="polygon98" />
      <polygon
         style="fill:#bc8383"
         points="2049.701,606.307 1978.914,525.433 2046.213,525.748 "
         id="polygon100" />
      <polygon
         style="fill:#1a1212"
         points="1943.199,407.974 1937.495,409.814 1942.722,407.155 "
         id="polygon102" />
      <polygon
         style="fill:#4d3636"
         points="1937.495,409.814 1943.199,407.974 1935.011,445.662 "
         id="polygon104" />
      <polygon
         points="2113.184,408.064 2159.719,407.585 2128.525,408.727 "
         id="polygon106" />
      <polygon
         style="fill:#7a5555"
         points="2159.719,407.585 2172.985,444.514 2128.525,408.727 "
         id="polygon108" />
      <polygon
         style="fill:#a47272"
         points="2129.076,785 2119.41,916.773 2087.367,787.19 "
         id="polygon110" />
      <polygon
         style="fill:#9d6e6e"
         points="2177.167,918.221 2119.41,916.773 2129.076,785 "
         id="polygon112" />
      <polygon
         style="fill:#b37d7d"
         points="2129.076,785 2087.367,787.19 2095.961,527.823 "
         id="polygon114" />
      <polygon
         style="fill:#3c3c3c"
         points="2025.816,445.753 2055.709,443.501 2023.262,442.794 "
         id="polygon116" />
      <polygon
         points="2055.709,443.501 2025.816,445.753 1981.186,444.552 "
         id="polygon118" />
      <polygon
         style="fill:#535353"
         points="2085.746,444.692 2088.04,408.981 2055.709,443.501 "
         id="polygon120" />
      <polygon
         style="fill:#676767"
         points="2055.709,443.501 2088.04,408.981 2083.91,407.4 "
         id="polygon122" />
      <polygon
         style="fill:#ac7979"
         points="1981.672,571.254 1978.914,525.433 2049.701,606.307 "
         id="polygon124" />
      <polygon
         style="fill:#bd8484"
         points="2049.701,606.307 2028.809,794.557 1981.672,571.254 "
         id="polygon126" />
      <polygon
         style="fill:#111111"
         points="2032.744,408.55 2052.636,409.59 2083.91,407.4 "
         id="polygon128" />
      <polygon
         style="fill:#5f5f5f"
         points="2052.636,409.59 2055.709,443.501 2083.91,407.4 "
         id="polygon130" />
      <polygon
         style="fill:#5f5f5f"
         points="2023.262,442.794 2055.709,443.501 2052.636,409.59 "
         id="polygon132" />
      <polygon
         style="fill:#535353"
         points="2052.636,409.59 2032.744,408.55 2023.262,442.794 "
         id="polygon134" />
      <polygon
         style="fill:#6d6d6d"
         points="1942.722,407.155 1937.495,409.814 1966.276,409.457 "
         id="polygon136" />
      <polygon
         style="fill:#171010"
         points="1943.199,407.974 1942.722,407.155 1966.276,409.457 "
         id="polygon138" />
      <polygon
         style="fill:#996b6b"
         points="1921.526,912.876 1972.509,799.445 2028.809,794.557 "
         id="polygon140" />
      <polygon
         style="fill:#ac7878"
         points="1972.509,799.445 1981.672,571.254 2028.809,794.557 "
         id="polygon142" />
      <polygon
         style="fill:#141414"
         points="2124.028,409.137 2159.719,407.585 2113.184,408.064 "
         id="polygon144" />
      <polygon
         style="fill:#b6b6b6"
         points="2172.985,444.514 2159.719,407.585 2124.028,409.137 "
         id="polygon146" />
      <polygon
         style="fill:#6d4c4c"
         points="2177.167,918.221 2214.955,915.204 2165.847,960.349 "
         id="polygon148" />
      <polygon
         style="fill:#a07070"
         points="2095.961,527.823 2149.634,529.102 2129.076,785 "
         id="polygon150" />
      <polygon
         style="fill:#563c3c"
         points="2088.675,511.704 2196.894,497.535 2149.634,529.102 "
         id="polygon152" />
      <polygon
         style="fill:#4b3434"
         points="2088.675,511.704 2149.634,529.102 2095.961,527.823 "
         id="polygon154" />
      <polygon
         style="fill:#bcbcbc"
         points="2124.028,409.137 2101.47,443.363 2172.985,444.514 "
         id="polygon156" />
      <polygon
         points="2101.47,443.363 2128.511,446.226 2085.746,444.692 "
         id="polygon158" />
      <polygon
         style="fill:#ffaaaa"
         points="2085.746,444.692 2055.709,443.501 2101.47,443.363 "
         id="polygon160" />
      <polygon
         style="fill:#553b3b"
         points="2097.844,409.056 2113.184,408.064 2128.511,446.226 "
         id="polygon162" />
      <polygon
         style="fill:#4d3636"
         points="2128.511,446.226 2101.47,443.363 2097.844,409.056 "
         id="polygon164" />
      <polygon
         style="fill:#c7c7c7"
         points="2097.844,409.056 2101.47,443.363 2124.028,409.137 "
         id="polygon166" />
      <polygon
         style="fill:#121212"
         points="2124.028,409.137 2113.184,408.064 2097.844,409.056 "
         id="polygon168" />
      <polygon
         style="fill:#bebebe"
         points="1935.011,445.662 2011.849,443.659 1937.495,409.814 "
         id="polygon170" />
      <polygon
         style="fill:#eeaaaa"
         points="1981.186,444.552 2011.849,443.659 2055.709,443.501 "
         id="polygon172" />
      <polygon
         style="fill:#533a3a"
         points="2011.849,443.659 1985.185,410.3 1991.921,408.16 "
         id="polygon174" />
      <polygon
         style="fill:#563c3c"
         points="1981.186,444.552 1985.185,410.3 2011.849,443.659 "
         id="polygon176" />
      <polygon
         style="fill:#bbbbbb"
         points="1966.276,409.457 1937.495,409.814 2011.849,443.659 "
         id="polygon178" />
      <polygon
         style="fill:#4b3535"
         points="2011.707,407.801 2011.849,443.659 1991.921,408.16 "
         id="polygon180" />
      <polygon
         style="fill:#c1c1c1"
         points="2011.707,407.801 1966.276,409.457 2011.849,443.659 "
         id="polygon182" />
      <polygon
         style="fill:#ee9999"
         points="1991.921,408.16 1943.199,407.974 2011.707,407.801 "
         id="polygon184" />
      <polygon
         style="fill:#232323"
         points="2011.707,407.801 1943.199,407.974 1966.276,409.457 "
         id="polygon186" />
      <polygon
         style="fill:#845c5c"
         points="2204.594,446.567 2196.894,497.535 2172.985,444.514 "
         id="polygon188" />
      <polygon
         style="fill:#171010"
         points="2011.849,443.659 1935.011,445.662 1918.381,443.797 "
         id="polygon190" />
      <polygon
         style="fill:#5c4040"
         points="1918.381,443.797 1935.011,445.662 1933.471,511.551 "
         id="polygon192" />
      <polygon
         style="fill:#765252"
         points="2002.911,1026.329 1891.594,1029.875 1896.647,989.639 "
         id="polygon194" />
      <polygon
         points="2002.911,1026.329 2202.324,1029.452 1891.594,1029.875 "
         id="polygon196" />
      <polygon
         style="fill:#3e2c2c"
         points="2172.985,444.514 2203.059,444.894 2204.594,446.567 "
         id="polygon198" />
      <polygon
         style="fill:#865d5d"
         points="1918.381,443.797 1933.471,511.551 1914.877,446.646 "
         id="polygon200" />
      <polygon
         style="fill:#6c4b4b"
         points="2129.076,785 2159.15,796.314 2177.167,918.221 "
         id="polygon202" />
      <polygon
         style="fill:#885f5f"
         points="2149.634,529.102 2159.15,796.314 2129.076,785 "
         id="polygon204" />
      <polygon
         style="fill:#6c4c4c"
         points="2159.15,796.314 2214.955,915.204 2177.167,918.221 "
         id="polygon206" />
      <polygon
         style="fill:#724f4f"
         points="1972.703,961.742 1908.882,962.57 1921.526,912.876 "
         id="polygon208" />
      <polygon
         style="fill:#473232"
         points="1908.882,962.57 1972.703,961.742 1896.647,989.639 "
         id="polygon210" />
      <polygon
         style="fill:#704e4e"
         points="1906.048,416.129 1916.962,411.188 1916.92,440.044 "
         id="polygon212" />
      <polygon
         style="fill:#845d5d"
         points="2209.686,409.774 2203.983,441.989 2191.588,411.44 "
         id="polygon214" />
      <polygon
         style="fill:#1c1313"
         points="2209.686,409.774 2191.588,411.44 2132.251,409.299 "
         id="polygon216" />
      <polygon
         style="fill:#604343"
         points="1906.048,416.129 1916.92,440.044 1905.566,510.793 "
         id="polygon218" />
      <polygon
         style="fill:#513939"
         points="1914.877,446.646 1933.471,511.551 1905.566,510.793 "
         id="polygon220" />
      <polygon
         style="fill:#898989"
         points="1905.566,510.793 1916.92,440.044 1914.877,446.646 "
         id="polygon222" />
      <polygon
         style="fill:#503838"
         points="1908.882,962.57 1891.585,920.739 1921.526,912.876 "
         id="polygon224" />
      <polygon
         style="fill:#563c3c"
         points="2244.289,993.701 2202.324,1029.452 2208.631,983.472 "
         id="polygon226" />
      <polygon
         style="fill:#201616"
         points="2244.289,993.701 2208.631,983.472 2165.847,960.349 "
         id="polygon228" />
      <polygon
         style="fill:#bc8484"
         points="2132.251,409.299 2191.588,411.44 2118.985,443.811 "
         id="polygon230" />
      <polygon
         style="fill:#bc8484"
         points="2118.985,443.811 2191.588,411.44 2203.983,441.989 "
         id="polygon232" />
      <polygon
         style="fill:#cc8888"
         points="2118.985,443.811 2203.059,444.894 2172.985,444.514 "
         id="polygon234" />
      <polygon
         style="fill:#dddddd"
         points="2172.985,444.514 2101.47,443.363 2118.985,443.811 "
         id="polygon236" />
      <polygon
         style="fill:#ac7878"
         points="2203.059,444.894 2118.985,443.811 2203.983,441.989 "
         id="polygon238" />
      <polygon
         style="fill:#2a1e1e"
         points="2169.163,526.555 2149.634,529.102 2196.894,497.535 "
         id="polygon240" />
      <polygon
         style="fill:#af7b7b"
         points="2118.985,443.811 2116.784,408.609 2132.251,409.299 "
         id="polygon242" />
      <polygon
         style="fill:#281c1c"
         points="1933.471,511.551 1978.914,525.433 1948.263,528.013 "
         id="polygon244" />
      <polygon
         style="fill:#563c3c"
         points="1981.672,571.254 1948.263,528.013 1978.914,525.433 "
         id="polygon246" />
      <polygon
         style="fill:#251919"
         points="1905.566,510.793 1933.471,511.551 1948.263,528.013 "
         id="polygon248" />
      <polygon
         style="fill:#b57e7e"
         points="1995.07,408.178 1916.962,411.188 1934.646,407.292 "
         id="polygon250" />
      <polygon
         style="fill:#bc8383"
         points="1916.92,440.044 1916.962,411.188 1995.07,408.178 "
         id="polygon252" />
      <polygon
         style="fill:#af7b7b"
         points="1916.92,440.044 1992.791,443.308 1914.877,446.646 "
         id="polygon254" />
      <polygon
         style="fill:#dd9999"
         points="1992.791,443.308 2101.47,443.363 2055.709,443.501 "
         id="polygon256" />
      <polygon
         style="fill:#b98181"
         points="1995.07,408.178 1992.791,443.308 1916.92,440.044 "
         id="polygon258" />
      <polygon
         style="fill:#eeeeee"
         points="1992.791,443.308 2118.985,443.811 2101.47,443.363 "
         id="polygon260" />
      <polygon
         style="fill:#eeaaaa"
         points="1992.791,443.308 2055.709,443.501 2011.849,443.659 "
         id="polygon262" />
      <polygon
         style="fill:#696969"
         points="1914.877,446.646 1992.791,443.308 1918.381,443.797 "
         id="polygon264" />
      <polygon
         style="fill:#eeaaaa"
         points="1918.381,443.797 1992.791,443.308 2011.849,443.659 "
         id="polygon266" />
      <polygon
         style="fill:#513838"
         points="2165.847,960.349 2214.955,915.204 2210.103,962.157 "
         id="polygon268" />
      <polygon
         style="fill:#3e2b2b"
         points="2244.289,993.701 2165.847,960.349 2210.103,962.157 "
         id="polygon270" />
      <polygon
         style="fill:#453030"
         points="1981.672,571.254 1972.509,799.445 1952.84,785.094 "
         id="polygon272" />
      <polygon
         style="fill:#644646"
         points="1981.672,571.254 1952.84,785.094 1948.263,528.013 "
         id="polygon274" />
      <polygon
         style="fill:#412d2d"
         points="1921.526,912.876 1891.585,920.739 1952.84,785.094 "
         id="polygon276" />
      <polygon
         style="fill:#4f3737"
         points="1972.509,799.445 1921.526,912.876 1952.84,785.094 "
         id="polygon278" />
      <polygon
         points="2135.408,408.58 2132.251,409.299 2116.784,408.609 "
         id="polygon280" />
      <polygon
         style="fill:#b3b3b3"
         points="2116.784,408.609 2118.985,443.811 2135.408,408.58 "
         id="polygon282" />
      <polygon
         points="2132.251,409.299 2135.408,408.58 2209.686,409.774 "
         id="polygon284" />
      <polygon
         style="fill:#563c3c"
         points="2161.315,782.198 2149.634,529.102 2169.163,526.555 "
         id="polygon286" />
      <polygon
         style="fill:#2f2121"
         points="2161.315,782.198 2214.955,915.204 2159.15,796.314 "
         id="polygon288" />
      <polygon
         style="fill:#171010"
         points="2161.315,782.198 2159.15,796.314 2149.634,529.102 "
         id="polygon290" />
      <polygon
         points="1916.962,411.188 1925.795,407.442 1934.646,407.292 "
         id="polygon292" />
      <polygon
         style="fill:#dddddd"
         points="1925.795,407.442 1995.07,408.178 1934.646,407.292 "
         id="polygon294" />
      <polygon
         points="2209.686,409.774 2135.408,408.58 2194.031,408.203 "
         id="polygon296" />
      <polygon
         style="fill:#282828"
         points="1912.879,444.472 1906.048,416.129 1905.566,510.793 "
         id="polygon298" />
      <polygon
         style="fill:#241919"
         points="2224.951,917.742 2210.103,962.157 2214.955,915.204 "
         id="polygon300" />
      <polygon
         style="fill:#1f1515"
         points="2161.315,782.198 2224.951,917.742 2214.955,915.204 "
         id="polygon302" />
      <polygon
         style="fill:#bfbfbf"
         points="2202.313,445.844 2194.031,408.203 2135.408,408.58 "
         id="polygon304" />
      <polygon
         style="fill:#b9b9b9"
         points="2135.408,408.58 2118.985,443.811 2202.313,445.844 "
         id="polygon306" />
      <polygon
         style="fill:#474747"
         points="2194.031,408.203 2202.313,445.844 2209.686,409.774 "
         id="polygon308" />
      <polygon
         style="fill:#111111"
         points="1916.962,411.188 1906.048,416.129 1915.747,413.582 "
         id="polygon310" />
      <polygon
         style="fill:#101010"
         points="1915.747,413.582 1925.795,407.442 1916.962,411.188 "
         id="polygon312" />
      <polygon
         style="fill:#bababa"
         points="1995.07,408.178 1915.747,413.582 1992.791,443.308 "
         id="polygon314" />
      <polygon
         style="fill:#2e2e2e"
         points="1915.747,413.582 1906.048,416.129 1912.879,444.472 "
         id="polygon316" />
      <polygon
         style="fill:#939393"
         points="1925.795,407.442 1915.747,413.582 1995.07,408.178 "
         id="polygon318" />
      <polygon
         style="fill:#bbbbbb"
         points="1912.879,444.472 1992.791,443.308 1915.747,413.582 "
         id="polygon320" />
      <polygon
         style="fill:#1b1313"
         points="1912.35,444.89 1912.879,444.472 1905.566,510.793 "
         id="polygon322" />
      <polygon
         style="fill:#281c1c"
         points="1896.647,989.639 1891.594,1029.875 1878.317,986.595 "
         id="polygon324" />
      <polygon
         style="fill:#251a1a"
         points="1878.317,986.595 1908.882,962.57 1896.647,989.639 "
         id="polygon326" />
      <polygon
         style="fill:#dd9999"
         points="1992.791,443.308 2102.307,443.595 2118.985,443.811 "
         id="polygon328" />
      <polygon
         style="fill:#dddddd"
         points="1992.791,443.308 1912.879,444.472 2011.098,443.303 "
         id="polygon330" />
      <polygon
         style="fill:#1a1a1a"
         points="2011.098,443.303 1912.879,444.472 1912.35,444.89 "
         id="polygon332" />
      <polygon
         style="fill:#241919"
         points="2209.686,409.774 2209.988,503.665 2203.983,441.989 "
         id="polygon334" />
      <polygon
         style="fill:#434343"
         points="2209.686,409.774 2202.313,445.844 2209.988,503.665 "
         id="polygon336" />
      <polygon
         style="fill:#211717"
         points="2196.894,497.535 2204.594,446.567 2209.988,503.665 "
         id="polygon338" />
      <polygon
         style="fill:#313131"
         points="2209.988,503.665 2204.594,446.567 2203.059,444.894 "
         id="polygon340" />
      <polygon
         style="fill:#1f1616"
         points="2169.163,526.555 2196.894,497.535 2209.988,503.665 "
         id="polygon342" />
      <polygon
         style="fill:#583d3d"
         points="2203.983,441.989 2209.988,503.665 2203.059,444.894 "
         id="polygon344" />
      <polygon
         style="fill:#323232"
         points="2224.951,917.742 2161.315,782.198 2156.414,789.478 "
         id="polygon346" />
      <polygon
         style="fill:#242424"
         points="2158.327,526.661 2156.414,789.478 2161.315,782.198 "
         id="polygon348" />
      <polygon
         style="fill:#1a1a1a"
         points="2158.327,526.661 2169.163,526.555 2209.988,503.665 "
         id="polygon350" />
      <polygon
         style="fill:#2e2e2e"
         points="2161.315,782.198 2169.163,526.555 2158.327,526.661 "
         id="polygon352" />
      <polygon
         style="fill:#c08686"
         points="2152.948,410.059 2102.307,443.595 2100.438,408.264 "
         id="polygon354" />
      <polygon
         style="fill:#dd9999"
         points="1992.791,443.308 2011.098,443.303 2056.397,443.642 "
         id="polygon356" />
      <polygon
         style="fill:#dddddd"
         points="1992.791,443.308 2056.397,443.642 2102.307,443.595 "
         id="polygon358" />
      <polygon
         style="fill:#1a1212"
         points="2244.289,993.701 2219.588,1027.698 2202.324,1029.452 "
         id="polygon360" />
      <polygon
         style="fill:#c08686"
         points="2015.385,409.746 2011.098,443.303 1946.171,407.666 "
         id="polygon362" />
      <polygon
         style="fill:#2b2b2b"
         points="2196.789,963.24 2210.103,962.157 2224.951,917.742 "
         id="polygon364" />
      <polygon
         style="fill:#131313"
         points="1878.317,986.595 1891.594,1029.875 1892.626,1021.259 "
         id="polygon366" />
      <polygon
         style="fill:#3d3d3d"
         points="1948.263,528.013 1952.84,785.094 1967.562,526.574 "
         id="polygon368" />
      <polygon
         style="fill:#3d3d3d"
         points="1967.562,526.574 1952.84,785.094 1966.779,783.98 "
         id="polygon370" />
      <polygon
         style="fill:#dddddd"
         points="1912.35,444.89 1919.934,444.892 2011.098,443.303 "
         id="polygon372" />
      <polygon
         style="fill:#c08686"
         points="2011.098,443.303 1926.558,409.031 1946.171,407.666 "
         id="polygon374" />
      <polygon
         style="fill:#363636"
         points="1952.84,785.094 1904.351,917.324 1966.779,783.98 "
         id="polygon376" />
      <polygon
         style="fill:#2a2a2a"
         points="1891.585,920.739 1908.882,962.57 1904.351,917.324 "
         id="polygon378" />
      <polygon
         style="fill:#242424"
         points="1952.84,785.094 1891.585,920.739 1904.351,917.324 "
         id="polygon380" />
      <polygon
         style="fill:#454545"
         points="2209.988,503.665 2202.313,445.844 2188.652,445.154 "
         id="polygon382" />
      <polygon
         style="fill:#b78080"
         points="2152.948,410.059 2181.705,408.79 2188.652,445.154 "
         id="polygon384" />
      <polygon
         style="fill:#bd8484"
         points="2188.652,445.154 2102.307,443.595 2152.948,410.059 "
         id="polygon386" />
      <polygon
         style="fill:#dddddd"
         points="2188.652,445.154 2118.985,443.811 2102.307,443.595 "
         id="polygon388" />
      <polygon
         style="fill:#ee9999"
         points="2202.313,445.844 2118.985,443.811 2188.652,445.154 "
         id="polygon390" />
      <polygon
         style="fill:#2e2e2e"
         points="2011.098,443.303 1919.934,444.892 1923.558,446.154 "
         id="polygon392" />
      <polygon
         style="fill:#bc8383"
         points="1923.558,446.154 1926.558,409.031 2011.098,443.303 "
         id="polygon394" />
      <polygon
         style="fill:#eeeeee"
         points="1999.218,409.493 2015.385,409.746 1946.171,407.666 "
         id="polygon396" />
      <polygon
         style="fill:#252525"
         points="1904.351,917.324 1908.882,962.57 1924.853,961.707 "
         id="polygon398" />
      <polygon
         style="fill:#191919"
         points="1878.317,986.595 1924.853,961.707 1908.882,962.57 "
         id="polygon400" />
      <polygon
         style="fill:#333333"
         points="1919.934,444.892 1912.35,444.89 1925.44,510.837 "
         id="polygon402" />
      <polygon
         style="fill:#333333"
         points="1925.44,510.837 1912.35,444.89 1905.566,510.793 "
         id="polygon404" />
      <polygon
         style="fill:#1b1b1b"
         points="1925.44,510.837 1905.566,510.793 1948.263,528.013 "
         id="polygon406" />
      <polygon
         style="fill:#6e6e6e"
         points="1919.934,444.892 1925.44,510.837 1923.558,446.154 "
         id="polygon408" />
      <polygon
         style="fill:#1f1f1f"
         points="1925.44,510.837 1948.263,528.013 1967.562,526.574 "
         id="polygon410" />
      <polygon
         style="fill:#5f4242"
         points="2056.18,408.326 2056.397,443.642 2040.798,408.388 "
         id="polygon412" />
      <polygon
         style="fill:#7d7d7d"
         points="1996.191,781.136 1966.779,783.98 1904.351,917.324 "
         id="polygon414" />
      <polygon
         style="fill:#8c8c8c"
         points="1967.562,526.574 1966.779,783.98 1996.191,781.136 "
         id="polygon416" />
      <polygon
         style="fill:#5a3f3f"
         points="2056.18,408.326 2073.403,407.711 2056.397,443.642 "
         id="polygon418" />
      <polygon
         style="fill:#ee9999"
         points="2040.798,408.388 2073.403,407.711 2056.18,408.326 "
         id="polygon420" />
      <polygon
         style="fill:#979797"
         points="2111.832,627.974 2156.414,789.478 2158.327,526.661 "
         id="polygon422" />
      <polygon
         style="fill:#383838"
         points="2219.588,1027.698 2244.289,993.701 2218.425,989.649 "
         id="polygon424" />
      <polygon
         style="fill:#252525"
         points="2218.425,989.649 2244.289,993.701 2210.103,962.157 "
         id="polygon426" />
      <polygon
         style="fill:#262626"
         points="2210.103,962.157 2196.789,963.24 2218.425,989.649 "
         id="polygon428" />
      <polygon
         style="fill:#808080"
         points="2156.414,789.478 2111.832,627.974 2113.82,800.169 "
         id="polygon430" />
      <polygon
         style="fill:#a5a5a5"
         points="2017.511,528.948 1967.562,526.574 1996.191,781.136 "
         id="polygon432" />
      <polygon
         style="fill:#c9c9c9"
         points="2046.484,696.725 2113.82,800.169 2111.832,627.974 "
         id="polygon434" />
      <polygon
         style="fill:#c2c2c2"
         points="2017.511,528.948 1996.191,781.136 2046.484,696.725 "
         id="polygon436" />
      <polygon
         style="fill:#535353"
         points="2189.744,917.677 2224.951,917.742 2156.414,789.478 "
         id="polygon438" />
      <polygon
         style="fill:#7d7d7d"
         points="2113.82,800.169 2189.744,917.677 2156.414,789.478 "
         id="polygon440" />
      <polygon
         style="fill:#575757"
         points="2196.789,963.24 2224.951,917.742 2189.744,917.677 "
         id="polygon442" />
      <polygon
         style="fill:#cbcbcb"
         points="2017.511,528.948 2046.484,696.725 2091.793,527.993 "
         id="polygon444" />
      <polygon
         style="fill:#9e9e9e"
         points="2158.327,526.661 2091.793,527.993 2111.832,627.974 "
         id="polygon446" />
      <polygon
         style="fill:#c2c2c2"
         points="2046.484,696.725 2111.832,627.974 2091.793,527.993 "
         id="polygon448" />
      <polygon
         style="fill:#483232"
         points="2031.218,407.773 2040.798,408.388 2056.397,443.642 "
         id="polygon450" />
      <polygon
         points="2040.798,408.388 2031.218,407.773 2073.403,407.711 "
         id="polygon452" />
      <polygon
         style="fill:#ffaaaa"
         points="2073.403,407.711 2031.218,407.773 2080.086,407.371 "
         id="polygon454" />
      <polygon
         style="fill:#ffbbbb"
         points="1999.218,409.493 1946.171,407.666 1980.629,408.181 "
         id="polygon456" />
      <polygon
         style="fill:#b3b3b3"
         points="2046.484,696.725 1996.191,781.136 2045.498,805.495 "
         id="polygon458" />
      <polygon
         style="fill:#c7c7c7"
         points="2045.498,805.495 2113.82,800.169 2046.484,696.725 "
         id="polygon460" />
      <polygon
         points="2166.517,407.733 2181.705,408.79 2152.948,410.059 "
         id="polygon462" />
      <polygon
         style="fill:#444444"
         points="2181.705,408.79 2166.517,407.733 2188.652,445.154 "
         id="polygon464" />
      <polygon
         style="fill:#434343"
         points="2166.517,407.733 2209.988,503.665 2188.652,445.154 "
         id="polygon466" />
      <polygon
         points="2152.948,410.059 2100.438,408.264 2166.517,407.733 "
         id="polygon468" />
      <polygon
         style="fill:#151515"
         points="2166.517,407.733 2100.438,408.264 2109.325,409.268 "
         id="polygon470" />
      <polygon
         style="fill:#181010"
         points="2166.517,407.733 2109.325,409.268 2128.259,407.381 "
         id="polygon472" />
      <polygon
         style="fill:#181818"
         points="2166.517,407.733 2128.259,407.381 2130.775,407.874 "
         id="polygon474" />
      <polygon
         style="fill:#2f2f2f"
         points="2159.63,512.864 2158.327,526.661 2209.988,503.665 "
         id="polygon476" />
      <polygon
         style="fill:#323232"
         points="2091.793,527.993 2158.327,526.661 2159.63,512.864 "
         id="polygon478" />
      <polygon
         style="fill:#787878"
         points="2166.517,407.733 2159.63,512.864 2209.988,503.665 "
         id="polygon480" />
      <polygon
         style="fill:#797979"
         points="1926.558,409.031 1923.558,446.154 1959.936,409.643 "
         id="polygon482" />
      <polygon
         style="fill:#828282"
         points="1959.936,409.643 1923.558,446.154 1925.44,510.837 "
         id="polygon484" />
      <polygon
         style="fill:#161616"
         points="1980.629,408.181 1946.171,407.666 1959.936,409.643 "
         id="polygon486" />
      <polygon
         style="fill:#161616"
         points="1959.936,409.643 1946.171,407.666 1926.558,409.031 "
         id="polygon488" />
      <polygon
         style="fill:#585858"
         points="1892.626,1021.259 1916.828,993.917 1878.317,986.595 "
         id="polygon490" />
      <polygon
         style="fill:#4f4f4f"
         points="1916.828,993.917 1924.853,961.707 1878.317,986.595 "
         id="polygon492" />
      <polygon
         style="fill:#2c2c2c"
         points="1959.936,409.643 1976.013,409.904 1980.629,408.181 "
         id="polygon494" />
      <polygon
         style="fill:#272727"
         points="2166.517,407.733 2130.775,407.874 2134.979,409.492 "
         id="polygon496" />
      <polygon
         style="fill:#4d4d4d"
         points="1977.827,446.175 2011.098,443.303 2015.385,409.746 "
         id="polygon498" />
      <polygon
         style="fill:#555555"
         points="2015.385,409.746 1999.218,409.493 1977.827,446.175 "
         id="polygon500" />
      <polygon
         style="fill:#9f9f9f"
         points="1959.936,409.643 1925.44,510.837 1975.721,441.107 "
         id="polygon502" />
      <polygon
         style="fill:#bcbcbc"
         points="1959.936,409.643 1975.721,441.107 1976.013,409.904 "
         id="polygon504" />
      <polygon
         style="fill:#666666"
         points="1980.629,408.181 1976.013,409.904 1975.721,441.107 "
         id="polygon506" />
      <polygon
         style="fill:#6c6c6c"
         points="1977.827,446.175 1999.218,409.493 1975.721,441.107 "
         id="polygon508" />
      <polygon
         style="fill:#606060"
         points="1999.218,409.493 1980.629,408.181 1975.721,441.107 "
         id="polygon510" />
      <polygon
         style="fill:#b5b5b5"
         points="1975.721,441.107 1925.44,510.837 1977.827,446.175 "
         id="polygon512" />
      <polygon
         style="fill:#dddddd"
         points="2137.122,443.76 2102.307,443.595 2056.397,443.642 "
         id="polygon514" />
      <polygon
         style="fill:#5e5e5e"
         points="2133.944,445.875 2128.259,407.381 2109.325,409.268 "
         id="polygon516" />
      <polygon
         style="fill:#444444"
         points="2130.775,407.874 2128.259,407.381 2133.944,445.875 "
         id="polygon518" />
      <polygon
         style="fill:#4f4f4f"
         points="2133.944,445.875 2134.979,409.492 2130.775,407.874 "
         id="polygon520" />
      <polygon
         style="fill:#c1c1c1"
         points="2166.517,407.733 2134.979,409.492 2133.944,445.875 "
         id="polygon522" />
      <polygon
         style="fill:#1d1414"
         points="1925.44,510.837 1975.943,447.869 1977.827,446.175 "
         id="polygon524" />
      <polygon
         style="fill:#6d4c4c"
         points="2133.944,445.875 2109.325,409.268 2137.25,446.885 "
         id="polygon526" />
      <polygon
         style="fill:#4e4e4e"
         points="2100.438,408.264 2102.307,443.595 2137.25,446.885 "
         id="polygon528" />
      <polygon
         style="fill:#4e3737"
         points="2137.25,446.885 2102.307,443.595 2137.122,443.76 "
         id="polygon530" />
      <polygon
         style="fill:#b4b4b4"
         points="2166.517,407.733 2137.25,446.885 2159.63,512.864 "
         id="polygon532" />
      <polygon
         style="fill:#aaaaaa"
         points="2133.944,445.875 2137.25,446.885 2166.517,407.733 "
         id="polygon534" />
      <polygon
         style="fill:#3a3a3a"
         points="2137.25,446.885 2109.325,409.268 2100.438,408.264 "
         id="polygon536" />
      <polygon
         style="fill:#7d7d7d"
         points="2135.483,962.312 2196.789,963.24 2189.744,917.677 "
         id="polygon538" />
      <polygon
         style="fill:#515151"
         points="2218.425,989.649 2196.789,963.24 2135.483,962.312 "
         id="polygon540" />
      <polygon
         style="fill:#604343"
         points="2056.397,443.642 2018.229,411.221 2031.218,407.773 "
         id="polygon542" />
      <polygon
         style="fill:#5a3f3f"
         points="2073.403,407.711 2094.848,410.962 2056.397,443.642 "
         id="polygon544" />
      <polygon
         style="fill:#2b1e1e"
         points="2080.086,407.371 2094.848,410.962 2073.403,407.711 "
         id="polygon546" />
      <polygon
         style="fill:#282828"
         points="2094.848,410.962 2080.086,407.371 2031.218,407.773 "
         id="polygon548" />
      <polygon
         style="fill:#848484"
         points="1964.538,917.082 1904.351,917.324 1924.853,961.707 "
         id="polygon550" />
      <polygon
         style="fill:#7c7c7c"
         points="1996.191,781.136 1904.351,917.324 1964.538,917.082 "
         id="polygon552" />
      <polygon
         style="fill:#afafaf"
         points="1996.191,781.136 1964.538,917.082 2045.498,805.495 "
         id="polygon554" />
      <polygon
         style="fill:#151515"
         points="2056.397,443.642 2095.357,446.159 2137.122,443.76 "
         id="polygon556" />
      <polygon
         style="fill:#583d3d"
         points="2095.357,446.159 2056.397,443.642 2094.848,410.962 "
         id="polygon558" />
      <polygon
         style="fill:#ffffff"
         points="2011.098,443.303 1977.827,446.175 2018.764,444.725 "
         id="polygon560" />
      <polygon
         style="fill:#525252"
         points="2018.764,444.725 1977.827,446.175 1975.943,447.869 "
         id="polygon562" />
      <polygon
         style="fill:#553b3b"
         points="2018.764,444.725 2018.229,411.221 2056.397,443.642 "
         id="polygon564" />
      <polygon
         style="fill:#ffffff"
         points="2018.764,444.725 2056.397,443.642 2011.098,443.303 "
         id="polygon566" />
      <polygon
         style="fill:#747474"
         points="1916.828,993.917 1892.626,1021.259 1967.321,1026.606 "
         id="polygon568" />
      <polygon
         style="fill:#1b1b1b"
         points="1892.626,1021.259 1891.594,1029.875 1967.321,1026.606 "
         id="polygon570" />
      <polygon
         style="fill:#9f9f9f"
         points="2003.414,507.657 1975.943,447.869 1925.44,510.837 "
         id="polygon572" />
      <polygon
         style="fill:#4c4c4c"
         points="1967.562,526.574 2017.511,528.948 2003.414,507.657 "
         id="polygon574" />
      <polygon
         style="fill:#484848"
         points="1925.44,510.837 1967.562,526.574 2003.414,507.657 "
         id="polygon576" />
      <polygon
         style="fill:#5e5e5e"
         points="2017.511,528.948 2091.793,527.993 2003.414,507.657 "
         id="polygon578" />
      <polygon
         style="fill:#bebebe"
         points="1975.943,447.869 2003.414,507.657 2018.764,444.725 "
         id="polygon580" />
      <polygon
         style="fill:#666666"
         points="2218.425,989.649 2166.031,1016.915 2219.588,1027.698 "
         id="polygon582" />
      <polygon
         style="fill:#8f8f8f"
         points="1924.853,961.707 2020.155,962.583 1964.538,917.082 "
         id="polygon584" />
      <polygon
         style="fill:#bebebe"
         points="2137.122,443.76 2095.357,446.159 2090.523,511.694 "
         id="polygon586" />
      <polygon
         style="fill:#4d4d4d"
         points="2003.414,507.657 2091.793,527.993 2090.523,511.694 "
         id="polygon588" />
      <polygon
         style="fill:#b5b5b5"
         points="2137.25,446.885 2090.523,511.694 2159.63,512.864 "
         id="polygon590" />
      <polygon
         style="fill:#acacac"
         points="2137.122,443.76 2090.523,511.694 2137.25,446.885 "
         id="polygon592" />
      <polygon
         style="fill:#4e4e4e"
         points="2091.793,527.993 2159.63,512.864 2090.523,511.694 "
         id="polygon594" />
      <polygon
         style="fill:#bcbcbc"
         points="2094.848,410.962 2054.706,412.506 2095.357,446.159 "
         id="polygon596" />
      <polygon
         style="fill:#212121"
         points="2031.218,407.773 2054.706,412.506 2094.848,410.962 "
         id="polygon598" />
      <polygon
         style="fill:#242424"
         points="2018.229,411.221 2054.706,412.506 2031.218,407.773 "
         id="polygon600" />
      <polygon
         style="fill:#bbbbbb"
         points="2003.414,507.657 2054.706,412.506 2018.764,444.725 "
         id="polygon602" />
      <polygon
         style="fill:#cbcbcb"
         points="2003.414,507.657 2090.523,511.694 2054.706,412.506 "
         id="polygon604" />
      <polygon
         style="fill:#b9b9b9"
         points="2018.229,411.221 2018.764,444.725 2054.706,412.506 "
         id="polygon606" />
      <polygon
         style="fill:#c0c0c0"
         points="2095.357,446.159 2054.706,412.506 2090.523,511.694 "
         id="polygon608" />
      <polygon
         style="fill:#959595"
         points="2113.82,800.169 2121.506,914.929 2189.744,917.677 "
         id="polygon610" />
      <polygon
         style="fill:#b9b9b9"
         points="2135.483,962.312 2121.506,914.929 2020.155,962.583 "
         id="polygon612" />
      <polygon
         style="fill:#a1a1a1"
         points="2189.744,917.677 2121.506,914.929 2135.483,962.312 "
         id="polygon614" />
      <polygon
         style="fill:#b4b4b4"
         points="2121.506,914.929 2113.82,800.169 2045.498,805.495 "
         id="polygon616" />
      <polygon
         style="fill:#bdbdbd"
         points="2038.971,918.196 1964.538,917.082 2020.155,962.583 "
         id="polygon618" />
      <polygon
         style="fill:#b9b9b9"
         points="2121.506,914.929 2045.498,805.495 2038.971,918.196 "
         id="polygon620" />
      <polygon
         style="fill:#b0b0b0"
         points="2038.971,918.196 2045.498,805.495 1964.538,917.082 "
         id="polygon622" />
      <polygon
         style="fill:#bcbcbc"
         points="2038.971,918.196 2020.155,962.583 2121.506,914.929 "
         id="polygon624" />
      <polygon
         style="fill:#747474"
         points="2119.118,985.066 2135.483,962.312 2020.155,962.583 "
         id="polygon626" />
      <polygon
         style="fill:#a1a1a1"
         points="2218.425,989.649 2119.118,985.066 2166.031,1016.915 "
         id="polygon628" />
      <polygon
         style="fill:#7f7f7f"
         points="2218.425,989.649 2135.483,962.312 2119.118,985.066 "
         id="polygon630" />
      <polygon
         style="fill:#bbbbbb"
         points="2119.118,985.066 2074.855,1029.251 2166.031,1016.915 "
         id="polygon632" />
      <polygon
         style="fill:#383838"
         points="2074.855,1029.251 2219.588,1027.698 2166.031,1016.915 "
         id="polygon634" />
      <polygon
         style="fill:#eeeeee"
         points="2202.324,1029.452 2219.588,1027.698 2074.855,1029.251 "
         id="polygon636" />
      <polygon
         style="fill:#121212"
         points="1967.321,1026.606 1891.594,1029.875 2074.855,1029.251 "
         id="polygon638" />
      <polygon
         style="fill:#dddddd"
         points="1891.594,1029.875 2202.324,1029.452 2074.855,1029.251 "
         id="polygon640" />
      <polygon
         style="fill:#6c6c6c"
         points="2000.898,987.962 1924.853,961.707 1916.828,993.917 "
         id="polygon642" />
      <polygon
         style="fill:#939393"
         points="2119.118,985.066 2020.155,962.583 2000.898,987.962 "
         id="polygon644" />
      <polygon
         style="fill:#a8a8a8"
         points="2000.898,987.962 1916.828,993.917 1967.321,1026.606 "
         id="polygon646" />
      <polygon
         style="fill:#cbcbcb"
         points="2000.898,987.962 2074.855,1029.251 2119.118,985.066 "
         id="polygon648" />
      <polygon
         style="fill:#6a6a6a"
         points="2000.898,987.962 2020.155,962.583 1924.853,961.707 "
         id="polygon650" />
      <polygon
         style="fill:#adadad"
         points="2074.855,1029.251 2000.898,987.962 1967.321,1026.606 "
         id="polygon652" />
    </g>
  </g>
</svg>
